<svg xmlns="http://www.w3.org/2000/svg" width="133.694" height="135.886" viewBox="0 0 133.694 135.886">
  <g id="Group_1804" data-name="Group 1804" transform="translate(-63.472 -5346.442)">
    <g id="_2bb35230-59dc-4bb6-8427-442b26685956_illustration-1" data-name="2bb35230-59dc-4bb6-8427-442b26685956_illustration-1" transform="translate(82.652 5368)">
      <path id="Path_177" data-name="Path 177" d="M53.5,0A53.5,53.5,0,1,1,0,53.5,53.5,53.5,0,0,1,53.5,0Z" transform="translate(7)" fill="#1ee0ad"/>
      <path id="Path_156" data-name="Path 156" d="M66.272,61.058c0,5.85-4.282,10.592-9.564,10.592s-9.563-4.742-9.563-10.592,4.282-10.592,9.563-10.592S66.272,55.209,66.272,61.058Z" fill="#fff" stroke="#000" stroke-width="4" fill-rule="evenodd"/>
      <path id="Path_157" data-name="Path 157" d="M54.763,59.3a1.27,1.27,0,1,1-1.27-1.262,1.265,1.265,0,0,1,1.27,1.262m7.619-.631a1.27,1.27,0,1,1-1.27-1.261,1.265,1.265,0,0,1,1.27,1.261" fill-rule="evenodd"/>
      <path id="Path_158" data-name="Path 158" d="M28.1,35.961q19.575,14.216,13.05,60.283m20.826-64c18.646,19.124,8.908,41.195,10.578,60.379" fill="none" stroke="#000" stroke-linecap="round" stroke-width="4" fill-rule="evenodd"/>
      <g id="Group_117" data-name="Group 117" transform="translate(0.203 67.962) rotate(-36)">
        <path id="Path_159" data-name="Path 159" d="M0,0H20.02V12.556H0Z" transform="translate(0.79 0.861)" fill="#fff"/>
        <path id="Path_160" data-name="Path 160" d="M1,1H21V13.57H1Z" fill="none" stroke="#000" stroke-linecap="round" stroke-linejoin="round" stroke-width="2" fill-rule="evenodd"/>
      </g>
      <path id="Path_161" data-name="Path 161" stroke="#000" d="M2.45,57.786,13.6,56.366,18.171,45.9" fill="none" transform="translate(0 11)" stroke-linecap="round" stroke-linejoin="round" stroke-width="2" fill-rule="evenodd"/>
      <g id="Group_118" data-name="Group 118" transform="matrix(0.966, -0.259, 0.259, 0.966, 21.309, 92.163)">
        <path id="Path_162" data-name="Path 162" d="M0,0H25.9V16.57H0Z" transform="translate(0.879 0.942)" fill="#fff"/>
        <path id="Path_163" data-name="Path 163" d="M1,1H27V17.544H1Z" fill="none" stroke="#000" stroke-linecap="round" stroke-linejoin="round" stroke-width="2" fill-rule="evenodd"/>
      </g>
      <path id="Path_164" data-name="Path 164" d="M23.6,84.166l13.893,3.4,10.21-10.353" transform="translate(0 10)" fill="none" stroke="#000" stroke-linejoin="round" stroke-width="2" fill-rule="evenodd"/>
      <g id="Group_122" data-name="Group 122" transform="translate(30 -4)">
        <g id="Group_121" data-name="Group 121" transform="matrix(0.934, 0.358, -0.358, 0.934, 44.173, 84.921)">
          <path id="Path_168" data-name="Path 168" d="M0,0H26.512V17.086H0Z" transform="translate(0.746 0.665)" fill="#fff"/>
          <path id="Path_169" data-name="Path 169" d="M1,1H27V17.544H1Z" fill="none" stroke="#000" stroke-linejoin="round" stroke-width="2" fill-rule="evenodd"/>
        </g>
        <path id="Path_170" data-name="Path 170" d="M44.852,87.89l9.242,10.916,14.344-2.374" fill="none" stroke="#000" stroke-linecap="round" stroke-linejoin="round" stroke-width="2" fill-rule="evenodd"/>
      </g>
      <g id="Group_126" data-name="Group 126" transform="translate(-7 -19)">
        <g id="Group_125" data-name="Group 125" transform="matrix(0.875, 0.485, -0.485, 0.875, 102.272, 49)">
          <path id="Path_174" data-name="Path 174" d="M0,0H19.634V12.6H0Z" transform="translate(0.975 0.921)" fill="#fff"/>
          <path id="Path_175" data-name="Path 175" d="M1,1H21V13.57H1Z" fill="none" stroke="#000" stroke-linecap="round" stroke-linejoin="round" stroke-width="2" fill-rule="evenodd"/>
        </g>
        <path id="Path_176" data-name="Path 176" d="M102.475,51.384l6,9.5,11.42-.279" fill="none" stroke="#000" stroke-linecap="round" stroke-linejoin="round" stroke-width="2" fill-rule="evenodd"/>
      </g>
      <g id="Group_127" data-name="Group 127" transform="translate(10 7.417)">
        <g id="Group_121-2" data-name="Group 121" transform="matrix(0.934, 0.358, -0.358, 0.934, 43.329, 85.809)">
          <path id="Path_168-2" data-name="Path 168" d="M0,0H20.87V13.45H0Z" transform="translate(0)" fill="#fff"/>
          <path id="Path_169-2" data-name="Path 169" d="M0,0H20.466V13.023H0Z" transform="translate(0.2 0.264)" fill="none" stroke="#000" stroke-linejoin="round" stroke-width="2" fill-rule="evenodd"/>
        </g>
        <path id="Path_170-2" data-name="Path 170" stroke="#000" d="M44.852,87.89l7.275,8.593,11.291-1.869" fill="none" transform="translate(-1.35 -0.443)" stroke-linecap="round" stroke-linejoin="round" stroke-width="2" fill-rule="evenodd"/>
      </g>
    </g>
    <g id="Group_499" data-name="Group 499" transform="matrix(0.996, 0.087, -0.087, 0.996, 649.995, 53.15)">
      <path id="Path_1019" data-name="Path 1019" d="M-99.665,5390.131l-6.007-3.187-3.555-8.091v-8.582l3.555-5.394,5.026-1.226,6.988,2.207,3.31.981,5.026-1.961,8.826-2.7,3.433,1.471-7.11,3.188-2.574,3.432v1.1l50.016-5.517,6.988-2.207,9.807,2.207v2.82h-5.394l-4.413,2.7H-30.4l-3.555-1.1-49.894,8.582,1.1,2.207,3.31,3.31-2.452.98-5.517-.98-5.394,1.593Z" fill="#fff"/>
      <path id="Path_1020" data-name="Path 1020" d="M17.145,68.758a1.563,1.563,0,1,1-1.563-1.563A1.561,1.561,0,0,1,17.145,68.758ZM14.478,54.236l6.251,6.251,2.21-2.21-6.251-6.251Zm-.916.916-2.21,2.21L17.6,63.612l2.21-2.21Zm-3.125,4.688L6.665,63.612,11.353,68.3l3.772-3.772Zm9.834,4.23a1.563,1.563,0,1,0,1.563,1.563A1.562,1.562,0,0,0,20.271,64.07Zm54.24-55.8a1.564,1.564,0,1,1-2.219,2.2l-1.25-1.475a7.771,7.771,0,0,0-.764,3.507v.988l-.892.423L69.209,14l.616.52a1.564,1.564,0,1,1-2.219,2.2l-1.163-1.378c-1.034.511-2.147,1.074-3.018,1.542L28.7,53.051c.827.45,2.4.842,5.255.127l.959-.241.739.809a3.2,3.2,0,0,1,.092,3.177c-.8,1.688-3.043,2.914-7.285,3.974-.763.192-1.345,2.156-1.861,3.889-1.21,4.069-3.038,10.221-11.02,10.221-2.5,0-5.335,0-10.481-5.146A16.173,16.173,0,0,1-.044,57.819c0-6.691,5.271-7.995,9.118-8.946,2.8-.692,4.546-1.21,5.044-2.541,3.516-9.373,7.218-13.408,12.376-13.491a2.083,2.083,0,0,1,2.192,1.142c.561,1.213-.38,2.285-.833,2.8l-.114.133c-3.774,4.718-4.235,6.338-3.879,7.473L58.234,11.4a4.384,4.384,0,0,0,.533-.7L56.681,8.923a1.564,1.564,0,0,1,2.2-2.219l1.194,1.411c.366-.856.688-1.708.9-2.36l.209-.628.784-.375-.608-.517a1.564,1.564,0,0,1,2.2-2.219l1.188,1.4L71.908,0h.355a2.646,2.646,0,0,1,2.111.984c1.061,1.327.692,3.432.555,4.047l-.194.861-.836.278a4.95,4.95,0,0,0-1.1.644Zm-48,47.066-1.53,1.594-6.943-6.943,3.452-3.314c-1.478-2.622-1.408-4.813,2.6-10.139-1.867.961-4.3,3.6-7.04,10.9C15.934,50.4,12.689,51.2,9.824,51.91c-4.18,1.03-6.743,1.869-6.743,5.908a13.2,13.2,0,0,0,4.23,9.834c4.23,4.23,6.193,4.23,8.271,4.23,5.257,0,6.59-3.161,8.023-7.985.825-2.78,1.606-5.408,4.1-6.03a21.752,21.752,0,0,0,3.611-1.178A7.848,7.848,0,0,1,26.512,55.333ZM60.277,15.65l-.959-.961L22.5,50.029l2.433,2.433Zm11.7-12.217L63.726,7.379a27.417,27.417,0,0,1-2.314,4.982L62.754,13.7c1.527-.792,3.374-1.692,4.436-2.2a9.316,9.316,0,0,1,4.779-7.865C71.97,3.566,71.972,3.5,71.972,3.433Z" transform="translate(-71.954 5319.836) rotate(38)"/>
    </g>
  </g>
</svg>
