<svg id="Component_6_1" data-name="Component 6 – 1" xmlns="http://www.w3.org/2000/svg" width="199.412" height="29" viewBox="0 0 199.412 29">
  <g id="Интерьерные_цифровые_пианино" data-name="Интерьерные цифровые пианино" transform="translate(36.743 6.074)">
    <g id="Group_302" data-name="Group 302" transform="translate(0 0)">
      <path id="Path_537" data-name="Path 537" d="M819.53,314h-5.2v13.7h-2.044V314h-5.2v-1.784H819.53Z" transform="translate(-807.088 -311.851)"/>
      <path id="Path_538" data-name="Path 538" d="M856.1,319.388c0,4.546-2.5,8.244-7.417,8.244-4.959,0-7.417-3.785-7.417-8.288,0-4.829,2.893-7.939,7.4-7.939C853.467,311.4,856.1,314.776,856.1,319.388Zm-12.79.109c0,3.872,2.11,6.374,5.395,6.374,3.241,0,5.351-2.523,5.351-6.374,0-3.828-2.11-6.308-5.394-6.308C845.005,313.189,843.308,316.19,843.308,319.5Z" transform="translate(-825.778 -311.405)"/>
      <path id="Path_539" data-name="Path 539" d="M893.161,314h-5.2v13.7h-2.045V314h-5.2v-1.784h12.442Z" transform="translate(-847.355 -311.851)"/>
      <path id="Path_540" data-name="Path 540" d="M922.666,327.708h-2.284l-1.718-4.742h-6.5l-1.762,4.742h-2.175l6.09-15.487h2.306Zm-7.244-13.529-2.675,7.156h5.307Z" transform="translate(-862.396 -311.851)"/>
      <path id="Path_541" data-name="Path 541" d="M958.618,327.708H948.352V312.221H950.4v13.7h8.222Z" transform="translate(-884.341 -311.851)"/>
      <path id="Path_542" data-name="Path 542" d="M1000.81,312.221l4.981,13.116,4.807-13.116h2.849v15.487h-1.935V314.788l-4.851,12.921h-1.784l-4.938-12.921v12.921h-1.958V312.221Z" transform="translate(-911.483 -311.851)"/>
      <path id="Path_543" data-name="Path 543" d="M1046.369,312.221v9.767c0,2.98,1.2,4.35,4.176,4.35,3.132,0,4.177-1.5,4.177-4.35v-9.767h2.066v9.223c0,4.35-1.544,6.591-6.242,6.591-4.481,0-6.243-2.088-6.243-6.373v-9.44Z" transform="translate(-936.815 -311.851)"/>
      <path id="Path_544" data-name="Path 544" d="M1091.932,316.4c-.24-2.24-1.566-3.154-3.851-3.154-2.218,0-3.5.935-3.5,2.567,0,1.74,1.805,2.11,4.2,2.61,2.523.522,5.742,1.305,5.742,4.568,0,3.436-3.067,4.7-6.026,4.7-3.7,0-6.416-1.718-6.416-5.459h1.979c.088,2.806,2.132,3.785,4.611,3.785,1.805,0,3.85-.63,3.85-2.828,0-2-1.958-2.393-4.5-2.98-2.5-.566-5.4-.979-5.4-4.242,0-3.176,2.828-4.415,5.612-4.415,3.285,0,5.547,1.523,5.677,4.85Z" transform="translate(-957.473 -311.484)"/>
      <path id="Path_545" data-name="Path 545" d="M1122.138,327.708h-2.044V312.221h2.044Z" transform="translate(-978.263 -311.851)"/>
      <path id="Path_546" data-name="Path 546" d="M1142.631,327.658c-4.416,0-7.178-3.132-7.178-8.091,0-4.437,2.567-8.114,7.331-8.114,3.046,0,6.112,1.7,6.416,5h-2.044a4.177,4.177,0,0,0-4.416-3.241c-3.676,0-5.22,3.067-5.22,6.33,0,3.938,1.979,6.352,5.2,6.352,2.632,0,4.242-1.566,4.568-4.459h2.045C1148.983,325.374,1146.459,327.658,1142.631,327.658Z" transform="translate(-986.662 -311.431)"/>
    </g>
  </g>
  <g id="Group_305" data-name="Group 305">
    <g id="Group_303" data-name="Group 303" transform="translate(0.68 0.68)">
      <circle id="Ellipse_43" data-name="Ellipse 43" cx="13.82" cy="13.82" r="13.82" fill="#fff"/>
    </g>
    <g id="Group_304" data-name="Group 304">
      <path id="Path_547" data-name="Path 547" d="M740.5,299.359A13.141,13.141,0,1,1,727.359,312.5,13.155,13.155,0,0,1,740.5,299.359m0-1.359A14.5,14.5,0,1,0,755,312.5,14.5,14.5,0,0,0,740.5,298Z" transform="translate(-726 -298)"/>
    </g>
  </g>
  <g id="Group_306" data-name="Group 306" transform="translate(13.82)">
    <line id="Line_20" data-name="Line 20" y1="29" transform="translate(0.68)" fill="#fff"/>
    <rect id="Rectangle_63" data-name="Rectangle 63" width="1.359" height="29" transform="translate(0)"/>
  </g>
  <g id="Group_307" data-name="Group 307" transform="translate(4.758 3.012)">
    <path id="Path_548" data-name="Path 548" d="M755.531,327.011h-1.359V306.846l-7.7,8.327-1,0-7.613-8.312v20.153H736.5v-21.9l1.181-.459,8.295,9.057,8.377-9.059,1.179.462Z" transform="translate(-736.5 -304.648)"/>
  </g>
</svg>
