<svg xmlns="http://www.w3.org/2000/svg" xmlns:xlink="http://www.w3.org/1999/xlink" width="247" height="255.5" viewBox="0 0 247 255.5">
  <defs>
    <linearGradient id="linear-gradient" x1="1" x2="0" gradientUnits="objectBoundingBox">
      <stop offset="0" stop-color="#f2f2f2"/>
      <stop offset="1" stop-color="#d8dbe1"/>
    </linearGradient>
  </defs>
  <g id="Group_1806" data-name="Group 1806" transform="translate(-1558 -2235.5)">
    <g id="Group_1633" data-name="Group 1633">
      <rect id="Rectangle_380" data-name="Rectangle 380" width="50" height="4" transform="translate(1558 2362)" fill="url(#linear-gradient)"/>
      <path id="Path_1154" data-name="Path 1154" d="M0,0H247V9H0Z" transform="translate(1558 2381)" fill="url(#linear-gradient)"/>
      <path id="Path_1155" data-name="Path 1155" d="M0,0H201V9H0Z" transform="translate(1558 2401)" fill="url(#linear-gradient)"/>
      <rect id="Rectangle_381" data-name="Rectangle 381" width="88" height="6" transform="translate(1558 2429)" fill="url(#linear-gradient)"/>
      <path id="Path_1156" data-name="Path 1156" d="M0,0H76V13H0Z" transform="translate(1558 2478)" fill="url(#linear-gradient)"/>
    </g>
    <path id="Path_1157" data-name="Path 1157" d="M727.735,115.606v-1.587q0-24.407.005-48.815a9.14,9.14,0,0,1,12.394-8.756c10.81,4.054,21.637,8.066,32.426,12.174A22.718,22.718,0,0,1,787.2,89.75c.066,7.919.035,15.84.006,23.759a10.193,10.193,0,0,1-7.573,9.877,10.285,10.285,0,1,1,2.044-19.061c.277.14.561.265.861.405.695-3.653-1.3-6.157-4.864-6.159q-20.2-.012-40.391,0c-3.172,0-5.021,1.858-5.024,5.035q-.007,10.26,0,20.52a10.268,10.268,0,0,1-20.352,2.051,9.738,9.738,0,0,1,3.784-10.057,9.987,9.987,0,0,1,10.788-1.142C726.839,115.135,727.179,115.325,727.735,115.606Zm27.443-35.285c-1.97-.235-2.237-.529-2.239-2.39,0-3.418-.022-6.836.01-10.254a1.962,1.962,0,0,0-1.524-2.162c-.926-.284-1.818-.679-2.729-1.012-1.833-.672-2.67-.1-2.673,1.854q-.01,5.667,0,11.334c0,2.11-.133,2.271-2.223,2.678V93.931h11.381Zm-13.745.052c-2.192-.435-2.233-.487-2.233-2.791,0-4.9.007-9.79,0-14.686a2.262,2.262,0,0,0-2.74-2.5,4.548,4.548,0,0,0-4.181,4.454q-.045,12.364,0,24.728a4.142,4.142,0,0,0,3.17,4.151,46.344,46.344,0,0,0,5.987.376Zm27.485,13.566V80.348c-2.06-.33-2.245-.548-2.245-2.578,0-1.654-.035-3.309.012-4.961a1.882,1.882,0,0,0-1.428-2.107c-.991-.316-1.951-.728-2.93-1.084-1.681-.612-2.574,0-2.584,1.775-.013,2.121,0,4.242,0,6.364,0,2.081-.124,2.231-2.192,2.6V93.938Zm2.332-.086a79.5,79.5,0,0,0,8.08-.067,4.066,4.066,0,0,0,3.314-4.327,22.041,22.041,0,0,0-.693-4.561,17.078,17.078,0,0,0-5.691-8.824,2.1,2.1,0,0,0-1.813-.363c-.462.213-.707,1.025-.914,1.621a4.612,4.612,0,0,0-.031,1.285,1.523,1.523,0,0,1-1.523,1.619c-.237.025-.471.072-.731.112Z" transform="translate(929.299 2179.659)" fill="url(#linear-gradient)"/>
  </g>
</svg>
