<svg xmlns="http://www.w3.org/2000/svg" width="1920.416" height="336.422" viewBox="0 0 1920.416 336.422">
  <g id="Group_1725" data-name="Group 1725" transform="translate(0.023 -237)">
    <path id="Path_1187" data-name="Path 1187" d="M0,462.936s96.548,2.19,125.075,0,61.44,2.19,96.548,0S268.8,448.7,285.257,432.28s78.995-144.521,118.491-144.521c71.315,0,76.8,183.936,226.012,183.936s118.492-72.261,193.1-72.261,74.605,63.5,122.88,63.5S1057.645,279,1110.308,279s92.16,118.245,175.544,118.245c128.365,0,219.428,52.553,267.7,94.157s52.663,81.02,100.937,81.02,112.979-106.2,157.988-116.055c44.983-9.854,92.16,6.569,107.52,13.138" fill="none" stroke="#000" stroke-miterlimit="10" stroke-width="2"/>
    <path id="Path_1188" data-name="Path 1188" d="M0,462.936s96.548,2.19,125.075,0,61.44,2.19,96.548,0,42-16.013,58.461-32.436,83.759-139,123.257-139c71.315,0,77.208,180.2,226.42,180.2s117.848-79.2,192.453-79.2c50.1,0,75.25,70.436,123.524,70.436S1058.151,274.5,1110.814,274.5c59.123,0,94.989,128,178.372,128,128.365,0,216.094,47.3,264.369,88.9s52.663,74.1,100.937,74.1,114.779-95.141,159.788-105c44.983-9.854,90.36,2.436,105.72,9.005" fill="none" stroke="#000" stroke-miterlimit="10" stroke-width="1" opacity="0.51"/>
    <path id="Path_1189" data-name="Path 1189" d="M0,462.936s96.548,2.19,125.075,0,53.763,2.19,88.871,0,40.662-17.013,57.119-33.436,92.778-132,132.276-132c71.315,0,77.208,174.2,226.42,174.2s94.8-88.2,169.4-88.2c50.1,0,86.18,79.436,146.572,79.436,48.275,0,112.414-195.436,165.077-195.436,66.138,0,95.991,149,179.374,149,128.365,0,215.092,33.3,263.367,74.9s52.117,67.1,100.391,67.1,118.331-84.141,163.34-94c44.983-9.854,87.354-1.564,102.714,5.005" fill="none" stroke="#000" stroke-miterlimit="10" stroke-width="1" opacity="0.36"/>
    <path id="Path_1190" data-name="Path 1190" d="M0,462.936s96.548,2.19,125.075,0,10.673,2.19,45.781,0,55.949-8.794,73.152-24.436c90.188-82,119.835-116,159.332-116,71.315,0,77.208,149.2,226.42,149.2s67.743-92.2,142.349-92.2c50.1,0,113.236,83.436,173.629,83.436,48.275,0,112.414-225.436,165.077-225.436,66.138,0,101,211,184.384,211,128.365,0,210.082,1.3,258.356,42.9s52.117,46.1,100.391,46.1,95.2-53,168.351-55c46.037-1.259,82.344-19.564,97.7-12.995" fill="none" stroke="#000" stroke-miterlimit="10" stroke-width="1" opacity="0.13"/>
  </g>
</svg>
