<svg xmlns="http://www.w3.org/2000/svg" width="41.891" height="17.2" viewBox="0 0 41.891 17.2">
  <path id="Apple_Pay_logo" d="M7.713,2.218a2.573,2.573,0,0,1-2.062.974,2.918,2.918,0,0,1,.736-2.136A3.076,3.076,0,0,1,8.433,0a3.107,3.107,0,0,1-.72,2.218m.712,1.129c-1.137-.065-2.111.646-2.651.646S4.4,3.379,3.5,3.4A3.361,3.361,0,0,0,.643,5.131c-1.227,2.111-.319,5.237.867,6.955.581.851,1.276,1.784,2.193,1.751.867-.033,1.211-.565,2.258-.565s1.358.565,2.275.548c.949-.016,1.547-.851,2.128-1.7a7.464,7.464,0,0,0,.949-1.956A3.083,3.083,0,0,1,9.464,7.356a3.148,3.148,0,0,1,1.5-2.635A3.243,3.243,0,0,0,8.425,3.347M15,.974V13.731h1.98V9.369h2.741A4.049,4.049,0,0,0,23.98,5.163a4,4,0,0,0-4.2-4.19H15Zm1.98,1.669h2.283a2.38,2.38,0,0,1,2.7,2.528A2.388,2.388,0,0,1,19.25,7.708H16.976ZM27.6,13.829A3.276,3.276,0,0,0,30.518,12.2h.041v1.53h1.833V7.381c0-1.841-1.473-3.028-3.739-3.028-2.1,0-3.658,1.2-3.715,2.856h1.784a1.738,1.738,0,0,1,1.874-1.3c1.211,0,1.89.565,1.89,1.6v.7l-2.471.147c-2.3.139-3.543,1.08-3.543,2.717C24.471,12.732,25.756,13.829,27.6,13.829Zm.532-1.514c-1.056,0-1.727-.507-1.727-1.285,0-.8.646-1.268,1.882-1.342l2.2-.139v.72A2.152,2.152,0,0,1,28.129,12.315Zm6.71,4.885c1.931,0,2.839-.736,3.633-2.97l3.478-9.754H39.936L37.6,12.012h-.041L35.231,4.476h-2.07l3.355,9.287-.18.565a1.574,1.574,0,0,1-1.669,1.326c-.155,0-.458-.016-.581-.033v1.53A5.454,5.454,0,0,0,34.838,17.2Z" transform="translate(-0.059)"/>
</svg>
