<svg xmlns="http://www.w3.org/2000/svg" width="17.999" height="12.543" viewBox="0 0 17.999 12.543">
  <g id="box" transform="translate(-223.931 -95.459)">
    <path id="Path_824" data-name="Path 824" d="M21.9,207.38V214.8l5.9-1.121v-3.614a.253.253,0,0,1,.282-.251l.726.112a.253.253,0,0,1,.224.251v4.2a.253.253,0,0,1-.2.248l-6.464,1.39a2.278,2.278,0,0,1-.948,0l-6.394-1.345a.253.253,0,0,1-.2-.241l-.11-4.264a.253.253,0,0,1,.231-.259l5.432-.477a.253.253,0,0,0,.212-.156l.818-1.987A.253.253,0,0,1,21.9,207.38Zm-7.242-2.428-1.7,3.643a.253.253,0,0,0,.255.359l6.4-.647a.253.253,0,0,0,.206-.149l2.06-4.64-7.034,1.292A.253.253,0,0,0,14.659,204.952Zm7.217-1.434,2.179,4.785a.253.253,0,0,0,.21.147l6.389.514a.253.253,0,0,0,.251-.357l-1.666-3.653a.253.253,0,0,0-.185-.144Z" transform="translate(211 -108.059)"/>
  </g>
</svg>
