<svg xmlns="http://www.w3.org/2000/svg" width="48" height="48" viewBox="0 0 48 48">
  <path id="Path_1163" data-name="Path 1163" d="M48,27V24a3,3,0,0,0-3-3H37.339a2.087,2.087,0,0,0,.368-.293,2.3,2.3,0,0,0,.6-2.2c-.341-1.441-1.831-2.731-3.988-3.451-1.338-.445-1.338-.445-3.452-2.09-.771-.6-1.847-1.436-3.359-2.584,2.637-1.668,5.927-3.8,10.05-6.545A1,1,0,0,0,38,3a3,3,0,0,0-3-3,.993.993,0,0,0-.581.186C29.968,3.365,26.592,5.83,24,7.751,21.409,5.83,18.032,3.365,13.581.186A.993.993,0,0,0,13,0a3,3,0,0,0-3,3,1,1,0,0,0,.445.832c4.124,2.749,7.413,4.877,10.05,6.545-1.513,1.148-2.588,1.983-3.359,2.584-2.115,1.645-2.115,1.645-3.453,2.09-2.157.72-3.648,2.01-3.988,3.451a2.3,2.3,0,0,0,.6,2.2,2.124,2.124,0,0,0,.368.293H3a3,3,0,0,0-3,3v3H2V42H0v3a3,3,0,0,0,3,3H45a3,3,0,0,0,3-3V42H46V27ZM33.684,16.949c1.885.627,2.567,1.561,2.675,2.013.051.215-.025.29-.065.331a.571.571,0,0,1-.355.082A3.658,3.658,0,0,1,32.955,16.7C33.163,16.773,33.4,16.854,33.684,16.949ZM35.27,2.037a1,1,0,0,1,.618.5C31.7,5.324,28.407,7.447,25.8,9.09L25.676,9C28.129,7.185,31.251,4.909,35.27,2.037Zm-23.158.5a1,1,0,0,1,.619-.5C16.75,4.909,19.871,7.184,22.325,9L22.2,9.09C19.594,7.447,16.3,5.324,12.112,2.539Zm-.47,16.423c.106-.452.79-1.386,2.674-2.013.283-.095.52-.176.73-.252a3.66,3.66,0,0,1-2.984,2.678.568.568,0,0,1-.355-.082C11.667,19.252,11.591,19.177,11.642,18.962Zm5.306-1.645c.236-.7.236-.7,2.448-2,1.018-.6,2.5-1.463,4.6-2.756,2.106,1.293,3.586,2.16,4.6,2.756,2.213,1.3,2.213,1.3,2.448,2A6.022,6.022,0,0,0,34.306,21H13.694A6.017,6.017,0,0,0,16.948,17.317ZM46,45a1,1,0,0,1-1,1H3a1,1,0,0,1-1-1V44H46ZM15,29V27H33v2H31V40h2v2H15V40h2V29Zm20,0V27h9V42H35V40h2V29Zm0,9H33V31h2ZM15,38H13V31h2Zm-2-9H11V40h2v2H4V27h9ZM2,25V24a1,1,0,0,1,1-1H45a1,1,0,0,1,1,1v1Z"/>
</svg>
