<svg xmlns="http://www.w3.org/2000/svg" width="48" height="48" viewBox="0 0 48 48">
  <path id="Path_1162" data-name="Path 1162" d="M44.944,0a5.4,5.4,0,0,0-2.975.889C41.836.429,41.577,0,41.053,0c-1.183,0-.462.8.236,1.387-.165.137-.32.271-.463.4-.144-.414-.4-.776-.883-.776-1.191,0-.451.8.252,1.389l-.374.375c-.144-.408-.4-.764-.878-.764-1.191,0-.451.8.252,1.389-.109.11-.221.221-.332.331A.934.934,0,0,0,38,3.016c-1.173,0-.474.776.22,1.362l-.356.354A.935.935,0,0,0,37,4.016c-1.172,0-.476.774.217,1.359l-.355.354A.933.933,0,0,0,36,5.016c-1.169,0-.479.771.213,1.356L36,6.583V7a3.614,3.614,0,0,1-.645,2.215L18.884,25.7A2.3,2.3,0,0,1,18,24c0-.734.794-1.651,1.32-2.259.576-.666,1.074-1.241.812-1.966a1.184,1.184,0,0,0-.967-.762c-4.633-.774-5.971,2.591-6.947,5.046A7.331,7.331,0,0,1,10.4,27.2a19.969,19.969,0,0,1-4.22,2.2C3.142,30.692,0,32.027,0,36c0,5.448,6.756,12,11,12,4.86,0,6.155-3.23,7.2-5.826.762-1.9,1.42-3.543,3.176-4.245,4.539-1.815,5.349-4.381,5.112-5.61A1.526,1.526,0,0,0,25,31a2.459,2.459,0,0,0-1.519.556A2.1,2.1,0,0,1,22,32a1.307,1.307,0,0,1-1.007-.313,1.655,1.655,0,0,1-.09-1.176L38.682,12.718l.025-.011c.627-.627,1.173-.662,2.969-.687l.34-.005c1.192-.019,1.5-1.337,1.9-3.006.2-.837.662-2.8,1.086-2.993A3.008,3.008,0,1,0,44.944,0ZM22,34a4.121,4.121,0,0,0,2.28-.571,7.025,7.025,0,0,1-3.652,2.643c-2.55,1.021-3.474,3.325-4.289,5.358C15.316,43.983,14.507,46,11,46c-2.975,0-9-5.5-9-10,0-2.526,1.793-3.412,4.962-4.759A21.516,21.516,0,0,0,11.6,28.8a8.757,8.757,0,0,0,2.477-4c.886-2.23,1.553-3.663,3.312-3.873A5.071,5.071,0,0,0,16,24a4.2,4.2,0,0,0,1.466,3.119l-.88.881L18.9,30.317a3.393,3.393,0,0,0,.465,2.535A3.022,3.022,0,0,0,22,34Zm-2-5.414L19.414,28,36,11.4l.586.586ZM44.992,4.016c-1.957.016-2.549,2.521-3.025,4.534-.109.464-.262,1.112-.393,1.472a6.555,6.555,0,0,0-3.484.639L37.3,9.875a5.74,5.74,0,0,0,.684-2.444c.7-.693,2.535-2.519,3.758-3.746A4.444,4.444,0,0,1,45,2h0a1.026,1.026,0,0,1,1,1.023A1,1,0,0,1,44.992,4.016ZM14.707,30.293l3,3-1.414,1.414-3-3Zm-3,3,3,3-1.414,1.414-3-3Zm0,7-1.414,1.414-4-4,1.414-1.414ZM14,41a1,1,0,1,1-1-1A1,1,0,0,1,14,41Zm3-3a1,1,0,1,1-1-1A1,1,0,0,1,17,38Zm-4,6a1,1,0,1,1-1-1A1,1,0,0,1,13,44Z"/>
</svg>
