<svg xmlns="http://www.w3.org/2000/svg" width="48" height="48" viewBox="0 0 48 48">
  <path id="Path_1161" data-name="Path 1161" d="M18,26a4,4,0,1,0,4,4A4,4,0,0,0,18,26Zm0,6a2,2,0,1,1,2-2A2,2,0,0,1,18,32ZM8.707,33.293l6,6-1.414,1.414-6-6ZM47.336,6.074A2.517,2.517,0,0,0,48,4.109C48,1.459,46.579,0,44,0a2.564,2.564,0,0,0-2.058.719A1.056,1.056,0,0,0,41.71.29a1.047,1.047,0,0,0-1.42,0A1.047,1.047,0,0,0,40,1a1.028,1.028,0,0,0,.29.71,1.06,1.06,0,0,0,.608.27,7.342,7.342,0,0,1-.938.823,1.044,1.044,0,0,0-.25-.513,1.058,1.058,0,0,0-1.42,0A1.028,1.028,0,0,0,38,3a1.047,1.047,0,0,0,.29.71,1.074,1.074,0,0,0,.325.21,10.026,10.026,0,0,0-.677.779,1.06,1.06,0,0,0-.229-.409A1,1,0,0,0,36,5a1.028,1.028,0,0,0,.29.71.8.8,0,0,0,.845.263,3.562,3.562,0,0,0-.366,1.168,2.076,2.076,0,0,0,.038.639l-12.1,12.1A10.311,10.311,0,0,0,19,18c-5.213,0-6.008,3.457-6.436,5.314a5.88,5.88,0,0,1-.271.979,8,8,0,0,1-2.932.846C5.634,25.82,0,26.852,0,33.98,0,40.531,7.469,48,14.02,48c7.128,0,8.16-5.633,8.842-9.361a8.257,8.257,0,0,1,.823-2.912,4.84,4.84,0,0,1,1-.291C26.543,35.008,30,34.213,30,29a10.314,10.314,0,0,0-1.88-5.707L40.216,11.2a2.08,2.08,0,0,0,.41.043c.075,0,.153,0,.235-.012a3.525,3.525,0,0,0,1.166-.365A1.04,1.04,0,0,0,42,11a1,1,0,1,0,1.71-.71.922.922,0,0,0-.414-.224,9.921,9.921,0,0,0,.782-.68,1.088,1.088,0,0,0,.212.324,1,1,0,0,0,1.42-1.42.978.978,0,0,0-.517-.242,6.9,6.9,0,0,1,.83-.931,1.024,1.024,0,0,0,.267.593,1,1,0,0,0,1.42-1.42A.951.951,0,0,0,47.336,6.074Zm-23.1,27.412a3.864,3.864,0,0,0-1.944.807c-.818.818-1.074,2.217-1.4,3.986C20.232,41.9,19.481,46,14.02,46,8.516,46,2,39.484,2,33.98c0-5.462,4.1-6.213,7.722-6.875,1.77-.324,3.167-.58,3.985-1.4a3.86,3.86,0,0,0,.807-1.943C14.939,21.913,15.379,20,19,20c4.458,0,9,4.542,9,9C28,32.621,26.087,33.061,24.237,33.486Zm2.625-11.762c-.189-.2-.384-.4-.586-.586L38,9.414l.586.586ZM40.707,9.293h0s0,0,0,0ZM45.6,4.912a8.3,8.3,0,0,0-2.432,2.533c-.345.518-1.932,1.822-2.518,1.792L38.762,7.348a5.706,5.706,0,0,1,1.792-2.517A9.048,9.048,0,0,0,43.1,2.452C43.435,2,43.435,2,44,2c1.458,0,2,.572,2,2.109C46,4.637,46,4.637,45.6,4.912Z"/>
</svg>
