<svg xmlns="http://www.w3.org/2000/svg" width="17.569" height="16.407" viewBox="0 0 17.569 16.407">
  <g id="Group_1793" data-name="Group 1793" transform="translate(0)">
    <g id="loving" transform="translate(0 -1.058)" stroke-linecap="round" stroke-linejoin="round">
      <path d="M 8.774438858032227 16.34665489196777 C 8.296903610229492 16.09511184692383 7.029488563537598 15.38772487640381 5.636953353881836 14.28161239624023 C 4.125603199005127 13.08113288879395 2.146193265914917 11.14012241363525 1.299073338508606 8.710593223571777 C 0.8718633055686951 7.485452651977539 0.9010033011436462 6.144082546234131 1.381103277206421 4.933562755584717 C 1.851783275604248 3.746802806854248 2.697473287582397 2.837542772293091 3.762383222579956 2.373282670974731 C 4.241803169250488 2.163812637329102 4.752303123474121 2.057772636413574 5.28044319152832 2.057772636413574 C 6.323513507843018 2.057772636413574 7.324423313140869 2.465502738952637 8.098793029785156 3.205852746963501 L 8.788243293762207 3.865002870559692 L 9.479213714599609 3.207452774047852 C 10.25155353546143 2.472472667694092 11.2492733001709 2.067702770233154 12.28856372833252 2.067702770233154 C 12.8206033706665 2.067702770233154 13.33477306365967 2.175102710723877 13.81681346893311 2.386942863464355 C 14.88061332702637 2.853972673416138 15.72410297393799 3.765462636947632 16.1922435760498 4.953632831573486 C 16.66976356506348 6.165622711181641 16.69612312316895 7.507162570953369 16.2664737701416 8.731122970581055 C 15.41424369812012 11.1582727432251 13.43065357208252 13.09382247924805 11.91670322418213 14.29014301300049 C 10.52500152587891 15.3898458480835 9.252077102661133 16.09632110595703 8.774438858032227 16.34665489196777 Z" stroke="none"/>
      <path d="M 8.775571823120117 15.20375728607178 C 10.29693126678467 14.33362007141113 14.10487937927246 11.86889743804932 15.32291316986084 8.39990234375 C 16.02521324157715 6.399272918701172 15.15156364440918 4.06505298614502 13.41449356079102 3.302442789077759 C 13.0600528717041 3.146682739257813 12.68123340606689 3.067702770233154 12.28856372833252 3.067702770233154 C 11.51839351654053 3.067702770233154 10.74568367004395 3.382682800292969 10.1685733795166 3.931872844696045 C 9.782360076904297 4.299403667449951 9.286167144775391 4.483044147491455 8.789863586425781 4.483044147491455 C 8.29210376739502 4.483044147491455 7.794233798980713 4.298163414001465 7.407743453979492 3.928652763366699 C 6.828853130340576 3.375192642211914 6.053483486175537 3.057772636413574 5.28044319152832 3.057772636413574 C 4.89094352722168 3.057772636413574 4.515133380889893 3.135672807693481 4.162013530731201 3.289962768554688 C 2.423853397369385 4.047732830047607 1.545193314552307 6.379292964935303 2.24332332611084 8.381362915039063 C 3.45580530166626 11.85877132415771 7.253976345062256 14.32950592041016 8.775571823120117 15.20375728607178 M 8.772812843322754 17.46441268920898 L 8.531713485717773 17.34578323364258 C 8.271403312683105 17.2183723449707 2.139693260192871 14.15883255004883 0.3548232913017273 9.039833068847656 C -0.6919366717338562 6.037952899932861 0.6568732857704163 2.636272668838501 3.362743377685547 1.456612706184387 C 3.97856330871582 1.187548995018005 4.63068151473999 1.057770967483521 5.280447483062744 1.057770967483521 C 6.555079460144043 1.057770967483521 7.821151256561279 1.556913614273071 8.789843559265137 2.48304271697998 C 9.756588935852051 1.563060760498047 11.01828861236572 1.06769859790802 12.28856754302979 1.06769859790802 C 12.94285297393799 1.06769859790802 13.59926986694336 1.19903838634491 14.2191333770752 1.471442699432373 C 16.9211540222168 2.657692670822144 18.2628231048584 6.063222885131836 17.21002388000488 9.062342643737793 C 15.4141731262207 14.17696285247803 9.275322914123535 17.21947288513184 9.015003204345703 17.34633255004883 L 8.772812843322754 17.46441268920898 Z" stroke="none"/>
    </g>
  </g>
</svg>
