<svg xmlns="http://www.w3.org/2000/svg" width="21.3" height="19.891" viewBox="0 0 21.3 19.891">
  <g id="loving" transform="translate(0 -1.058)" fill="#000000" stroke-linecap="round" stroke-linejoin="round">
    <path d="M 10.6416130065918 18.6972484588623 C 11.34647178649902 18.30655097961426 12.6014232635498 17.55562019348145 13.95935249328613 16.48259544372559 C 15.71312236785889 15.09678554534912 18.0074520111084 12.86450576782227 18.9781322479248 10.09999561309814 C 19.43640327453613 8.794526100158691 19.40812301635742 7.363235950469971 18.89851188659668 6.069796085357666 C 18.40767288208008 4.823996067047119 17.53282165527344 3.872495889663696 16.43446159362793 3.390285968780518 C 15.95056247711182 3.177635908126831 15.43379211425781 3.069805860519409 14.89852237701416 3.069805860519409 C 13.84152221679688 3.069805860519409 12.82472229003906 3.483465909957886 12.03543281555176 4.234575748443604 C 11.64921379089355 4.60210657119751 11.15300846099854 4.785752296447754 10.65670394897461 4.785752296447754 C 10.15894317626953 4.785752296447754 9.66108226776123 4.600876331329346 9.274592399597168 4.231366157531738 C 8.494472503662109 3.485525846481323 7.447432518005371 3.057765960693359 6.401932239532471 3.057765960693359 C 5.870802402496338 3.057765960693359 5.357972621917725 3.16416597366333 4.876212596893311 3.374665975570679 C 3.777072429656982 3.853845834732056 2.900002479553223 4.80293607711792 2.406552314758301 6.047115802764893 C 1.894212365150452 7.33888578414917 1.862992405891418 8.769926071166992 2.318662405014038 10.0766658782959 C 3.893052339553833 14.59201908111572 8.919208526611328 17.73134422302246 10.6416130065918 18.6972484588623 M 10.63605213165283 20.94901657104492 L 10.34374237060547 20.80519676208496 C 10.02814197540283 20.65072631835938 2.594122409820557 16.94136619567871 0.4301624298095703 10.73513603210449 C -0.8389175534248352 7.095695972442627 0.7963724136352539 2.971525907516479 4.076932430267334 1.541315913200378 C 4.823546409606934 1.215108871459961 5.614160060882568 1.057770490646362 6.401930809020996 1.057770490646362 C 7.947283744812012 1.057770490646362 9.482266426086426 1.662927627563477 10.65669250488281 2.78575587272644 C 11.82876777648926 1.670377373695374 13.35844707489014 1.069802522659302 14.89851951599121 1.069802522659302 C 15.69176959991455 1.069802522659302 16.48759841918945 1.229036092758179 17.23911285400391 1.559295892715454 C 20.51501274108887 2.997495889663696 22.14164161682129 7.126326084136963 20.86524200439453 10.76243591308594 C 18.68796157836914 16.96334648132324 11.24528217315674 20.65205574035645 10.92968273162842 20.80586624145508 L 10.63605213165283 20.94901657104492 Z" stroke="none"/>
  </g>
</svg>