<svg id="Instagram_simple_icon" xmlns="http://www.w3.org/2000/svg" width="15.668" height="15.668" viewBox="0 0 15.668 15.668">
  <path id="Path_399" data-name="Path 399" d="M11.913,5.491c2.092,0,2.339.008,3.166.046a4.335,4.335,0,0,1,1.455.27A2.594,2.594,0,0,1,18.02,7.293a4.334,4.334,0,0,1,.27,1.455c.038.826.046,1.074.046,3.166s-.008,2.339-.046,3.166a4.336,4.336,0,0,1-.27,1.455,2.594,2.594,0,0,1-1.487,1.487,4.334,4.334,0,0,1-1.455.27c-.826.038-1.074.046-3.166.046s-2.34-.008-3.166-.046a4.336,4.336,0,0,1-1.455-.27,2.594,2.594,0,0,1-1.487-1.487,4.334,4.334,0,0,1-.27-1.455C5.5,14.252,5.49,14,5.49,11.913s.008-2.339.046-3.166a4.335,4.335,0,0,1,.27-1.455A2.595,2.595,0,0,1,7.293,5.806a4.334,4.334,0,0,1,1.455-.27c.826-.038,1.074-.046,3.166-.046m0-1.411c-2.128,0-2.394.009-3.23.047a5.75,5.75,0,0,0-1.9.364A4.007,4.007,0,0,0,4.49,6.781a5.751,5.751,0,0,0-.364,1.9c-.038.835-.047,1.1-.047,3.23s.009,2.394.047,3.23a5.75,5.75,0,0,0,.364,1.9,4.006,4.006,0,0,0,2.291,2.291,5.75,5.75,0,0,0,1.9.364c.836.038,1.1.047,3.23.047s2.394-.009,3.23-.047a5.75,5.75,0,0,0,1.9-.364,4.006,4.006,0,0,0,2.291-2.291,5.75,5.75,0,0,0,.364-1.9c.038-.836.047-1.1.047-3.23s-.009-2.394-.047-3.23a5.75,5.75,0,0,0-.364-1.9A4.007,4.007,0,0,0,17.044,4.49a5.751,5.751,0,0,0-1.9-.364c-.835-.038-1.1-.047-3.23-.047h0Z" transform="translate(-4.079 -4.079)"/>
  <path id="Path_400" data-name="Path 400" d="M130.658,126.635a4.023,4.023,0,1,0,4.023,4.023A4.023,4.023,0,0,0,130.658,126.635Zm0,6.634a2.611,2.611,0,1,1,2.611-2.611A2.611,2.611,0,0,1,130.658,133.269Z" transform="translate(-122.824 -122.824)"/>
  <ellipse id="Ellipse_39" data-name="Ellipse 39" cx="0.94" cy="0.94" rx="0.94" ry="0.94" transform="translate(11.075 2.712)"/>
</svg>
