<svg xmlns="http://www.w3.org/2000/svg" width="48" height="48" viewBox="0 0 48 48">
  <path id="Path_941" data-name="Path 941" d="M17.816,2a3,3,0,1,0,0,2H48V2ZM15,4a1,1,0,1,1,1-1A1,1,0,0,1,15,4ZM45,5a2.993,2.993,0,0,0-2.815,2H12V9H42.185A2.994,2.994,0,1,0,45,5Zm0,4a1,1,0,1,1,1-1A1,1,0,0,1,45,9ZM40,26H38V20H30v6H28V16H20V26H18V12H10V26H8V8H0V48H8V46h2v2h8V46h2v2h8V46h2v2h8V46h2v2h8V24H40ZM6,46H2V10H6Zm4-2H8V42h2Zm0-4H8V32h2Zm0-10H8V28h2Zm6,16H12V14h4Zm4-2H18V42h2Zm0-4H18V32h2Zm0-10H18V28h2Zm6,16H22V18h4Zm4-2H28V42h2Zm0-4H28V32h2Zm0-10H28V28h2Zm6,16H32V22h4Zm4-2H38V42h2Zm0-4H38V32h2Zm0-10H38V28h2Zm2-4h4V46H42Z"/>
</svg>
