<svg xmlns="http://www.w3.org/2000/svg" width="65.599" height="71.104" viewBox="0 0 65.599 71.104">
  <g id="Group_1805" data-name="Group 1805" transform="translate(-434.378 -336.5)">
    <g id="_124124124" data-name="124124124">
      <g id="Ellipse_45" data-name="Ellipse 45" transform="translate(440.55 348)" fill="none" stroke="#000" stroke-width="1">
        <circle cx="26.725" cy="26.725" r="26.725" stroke="none"/>
        <circle cx="26.725" cy="26.725" r="26.225" fill="none"/>
      </g>
      <g id="Group_318" data-name="Group 318" transform="translate(-517 -947)">
        <path id="Path_791" data-name="Path 791" d="M1024,1311.119v9.04l2.684-.424v-3.187l10.311-1.393v3.31l2.684-.424V1309Z" transform="translate(-46.373)"/>
        <path id="Path_792" data-name="Path 792" d="M978.475,1392l-2.684.444v5.745a4.8,4.8,0,0,0-1.554-.256,3.71,3.71,0,1,0,4.237,3.672c0-.047,0-.094,0-.141h0Z" transform="translate(0 -71.277)"/>
        <path id="Path_793" data-name="Path 793" d="M1069.475,1381l-2.684.444v5.745a4.8,4.8,0,0,0-1.554-.256,3.71,3.71,0,1,0,4.237,3.672c0-.047,0-.094,0-.141h0Z" transform="translate(-78.147 -61.831)"/>
      </g>
    </g>
    <g id="Group_429" data-name="Group 429" transform="translate(925.376 -400)">
      <line id="Line_42" data-name="Line 42" y1="9.537" transform="translate(-458.198 736.5)" fill="none" stroke="#1ee1af" stroke-width="1"/>
      <path id="Path_884" data-name="Path 884" d="M.282,4.027-.284-4.3" transform="translate(-460.486 742.08)" fill="none" stroke="#1ee1af" stroke-width="1"/>
      <line id="Line_44" data-name="Line 44" x1="0.675" y1="6.817" transform="translate(-462.876 739.5)" fill="none" stroke="#1ee1af" stroke-width="1"/>
      <line id="Line_45" data-name="Line 45" x1="0.698" y1="5.166" transform="translate(-464.876 741.5)" fill="none" stroke="#1ee1af" stroke-width="1"/>
      <line id="Line_46" data-name="Line 46" x1="1.113" y1="3.881" transform="translate(-467.24 743.271)" fill="none" stroke="#1ee1af" stroke-width="1"/>
      <line id="Line_47" data-name="Line 47" x1="1.381" y1="3.794" transform="translate(-469.417 743.978)" fill="none" stroke="#1ee1af" stroke-width="1"/>
      <line id="Line_48" data-name="Line 48" x1="1.642" y1="3.688" transform="translate(-471.54 744.836)" fill="none" stroke="#1ee1af" stroke-width="1"/>
      <line id="Line_49" data-name="Line 49" x1="1.895" y1="3.565" transform="translate(-473.598 745.84)" fill="none" stroke="#1ee1af" stroke-width="1"/>
      <line id="Line_50" data-name="Line 50" x1="2.139" y1="3.424" transform="translate(-475.581 746.984)" fill="none" stroke="#1ee1af" stroke-width="1"/>
      <line id="Line_51" data-name="Line 51" x1="2.373" y1="3.266" transform="translate(-477.479 748.265)" fill="none" stroke="#1ee1af" stroke-width="1"/>
      <line id="Line_52" data-name="Line 52" x1="2.595" y1="3.093" transform="translate(-479.283 749.674)" fill="none" stroke="#1ee1af" stroke-width="1"/>
      <line id="Line_53" data-name="Line 53" x1="2.804" y1="2.904" transform="translate(-480.984 751.206)" fill="none" stroke="#1ee1af" stroke-width="1"/>
      <line id="Line_54" data-name="Line 54" x1="3" y1="2.701" transform="translate(-482.575 752.853)" fill="none" stroke="#1ee1af" stroke-width="1"/>
      <line id="Line_55" data-name="Line 55" x1="3.181" y1="2.486" transform="translate(-484.047 754.607)" fill="none" stroke="#1ee1af" stroke-width="1"/>
      <line id="Line_56" data-name="Line 56" x1="3.347" y1="2.258" transform="translate(-485.392 756.459)" fill="none" stroke="#1ee1af" stroke-width="1"/>
      <line id="Line_57" data-name="Line 57" x1="3.496" y1="2.019" transform="translate(-486.606 758.401)" fill="none" stroke="#1ee1af" stroke-width="1"/>
      <line id="Line_58" data-name="Line 58" x1="3.629" y1="1.77" transform="translate(-487.68 760.423)" fill="none" stroke="#1ee1af" stroke-width="1"/>
      <line id="Line_59" data-name="Line 59" x1="3.743" y1="1.512" transform="translate(-488.612 762.514)" fill="none" stroke="#1ee1af" stroke-width="1"/>
      <line id="Line_60" data-name="Line 60" x1="3.84" y1="1.248" transform="translate(-489.395 764.666)" fill="none" stroke="#1ee1af" stroke-width="1"/>
      <line id="Line_61" data-name="Line 61" x1="3.917" y1="0.977" transform="translate(-490.026 766.867)" fill="none" stroke="#1ee1af" stroke-width="1"/>
      <line id="Line_62" data-name="Line 62" x1="3.976" y1="0.701" transform="translate(-490.502 769.106)" fill="none" stroke="#1ee1af" stroke-width="1"/>
      <line id="Line_63" data-name="Line 63" x1="4.015" y1="0.422" transform="translate(-490.82 771.373)" fill="none" stroke="#1ee1af" stroke-width="1"/>
      <line id="Line_64" data-name="Line 64" x1="4.035" y1="0.141" transform="translate(-490.98 773.657)" fill="none" stroke="#d8dbe1" stroke-width="1"/>
      <line id="Line_65" data-name="Line 65" x1="4.035" y2="0.141" transform="translate(-490.98 775.806)" fill="none" stroke="#d8dbe1" stroke-width="1"/>
      <line id="Line_66" data-name="Line 66" x1="4.015" y2="0.422" transform="translate(-490.82 777.809)" fill="none" stroke="#d8dbe1" stroke-width="1"/>
      <line id="Line_67" data-name="Line 67" x1="3.976" y2="0.701" transform="translate(-490.502 779.797)" fill="none" stroke="#d8dbe1" stroke-width="1"/>
      <line id="Line_68" data-name="Line 68" x1="3.917" y2="0.977" transform="translate(-490.026 781.761)" fill="none" stroke="#d8dbe1" stroke-width="1"/>
      <line id="Line_69" data-name="Line 69" x1="3.84" y2="1.248" transform="translate(-489.395 783.691)" fill="none" stroke="#d8dbe1" stroke-width="1"/>
      <line id="Line_70" data-name="Line 70" x1="3.743" y2="1.512" transform="translate(-488.612 785.578)" fill="none" stroke="#d8dbe1" stroke-width="1"/>
      <line id="Line_71" data-name="Line 71" x1="3.629" y2="1.77" transform="translate(-487.68 787.412)" fill="none" stroke="#d8dbe1" stroke-width="1"/>
      <line id="Line_72" data-name="Line 72" x1="3.496" y2="2.019" transform="translate(-486.606 789.185)" fill="none" stroke="#d8dbe1" stroke-width="1"/>
      <line id="Line_73" data-name="Line 73" x1="3.347" y2="2.258" transform="translate(-485.392 790.887)" fill="none" stroke="#d8dbe1" stroke-width="1"/>
      <line id="Line_74" data-name="Line 74" x1="3.181" y2="2.486" transform="translate(-484.047 792.511)" fill="none" stroke="#d8dbe1" stroke-width="1"/>
      <line id="Line_75" data-name="Line 75" x1="3" y2="2.701" transform="translate(-482.575 794.05)" fill="none" stroke="#d8dbe1" stroke-width="1"/>
      <line id="Line_76" data-name="Line 76" x1="2.804" y2="2.904" transform="translate(-480.984 795.494)" fill="none" stroke="#d8dbe1" stroke-width="1"/>
      <line id="Line_77" data-name="Line 77" x1="2.595" y2="3.093" transform="translate(-479.283 796.837)" fill="none" stroke="#d8dbe1" stroke-width="1"/>
      <line id="Line_78" data-name="Line 78" x1="2.373" y2="3.266" transform="translate(-477.479 798.073)" fill="none" stroke="#d8dbe1" stroke-width="1"/>
      <line id="Line_79" data-name="Line 79" x1="2.139" y2="3.424" transform="translate(-475.581 799.196)" fill="none" stroke="#d8dbe1" stroke-width="1"/>
      <line id="Line_80" data-name="Line 80" x1="1.895" y2="3.565" transform="translate(-473.598 800.2)" fill="none" stroke="#d8dbe1" stroke-width="1"/>
      <line id="Line_81" data-name="Line 81" x1="1.642" y2="3.688" transform="translate(-471.54 801.08)" fill="none" stroke="#d8dbe1" stroke-width="1"/>
      <line id="Line_82" data-name="Line 82" x1="1.381" y2="3.794" transform="translate(-469.417 801.832)" fill="none" stroke="#d8dbe1" stroke-width="1"/>
      <line id="Line_83" data-name="Line 83" x1="1.113" y2="3.881" transform="translate(-467.24 802.453)" fill="none" stroke="#d8dbe1" stroke-width="1"/>
      <line id="Line_84" data-name="Line 84" x1="0.839" y2="3.949" transform="translate(-465.018 802.938)" fill="none" stroke="#d8dbe1" stroke-width="1"/>
      <line id="Line_85" data-name="Line 85" x1="0.562" y2="3.998" transform="translate(-462.763 803.287)" fill="none" stroke="#d8dbe1" stroke-width="1"/>
      <line id="Line_86" data-name="Line 86" x1="0.282" y2="4.027" transform="translate(-460.486 803.497)" fill="none" stroke="#d8dbe1" stroke-width="1"/>
      <line id="Line_87" data-name="Line 87" y2="4.037" transform="translate(-458.198 803.567)" fill="none" stroke="#d8dbe1" stroke-width="1"/>
      <line id="Line_88" data-name="Line 88" x2="0.282" y2="4.027" transform="translate(-456.192 803.497)" fill="none" stroke="#d8dbe1" stroke-width="1"/>
      <line id="Line_89" data-name="Line 89" x2="0.562" y2="3.998" transform="translate(-454.195 803.287)" fill="none" stroke="#d8dbe1" stroke-width="1"/>
      <line id="Line_90" data-name="Line 90" x2="0.839" y2="3.949" transform="translate(-452.218 802.938)" fill="none" stroke="#d8dbe1" stroke-width="1"/>
      <line id="Line_91" data-name="Line 91" x2="1.113" y2="3.881" transform="translate(-450.269 802.453)" fill="none" stroke="#d8dbe1" stroke-width="1"/>
      <line id="Line_92" data-name="Line 92" x2="1.381" y2="3.794" transform="translate(-448.36 801.832)" fill="none" stroke="#d8dbe1" stroke-width="1"/>
      <line id="Line_93" data-name="Line 93" x2="1.642" y2="3.688" transform="translate(-446.498 801.08)" fill="none" stroke="#d8dbe1" stroke-width="1"/>
      <line id="Line_94" data-name="Line 94" x2="1.895" y2="3.565" transform="translate(-444.694 800.2)" fill="none" stroke="#d8dbe1" stroke-width="1"/>
      <line id="Line_95" data-name="Line 95" x2="2.139" y2="3.424" transform="translate(-442.955 799.196)" fill="none" stroke="#d8dbe1" stroke-width="1"/>
      <line id="Line_96" data-name="Line 96" x2="2.373" y2="3.266" transform="translate(-441.29 798.073)" fill="none" stroke="#d8dbe1" stroke-width="1"/>
      <line id="Line_97" data-name="Line 97" x2="2.595" y2="3.093" transform="translate(-439.708 796.837)" fill="none" stroke="#d8dbe1" stroke-width="1"/>
      <line id="Line_98" data-name="Line 98" x2="2.804" y2="2.904" transform="translate(-438.216 795.494)" fill="none" stroke="#d8dbe1" stroke-width="1"/>
      <line id="Line_99" data-name="Line 99" x2="3" y2="2.701" transform="translate(-436.822 794.05)" fill="none" stroke="#d8dbe1" stroke-width="1"/>
      <line id="Line_100" data-name="Line 100" x2="3.181" y2="2.486" transform="translate(-435.531 792.511)" fill="none" stroke="#d8dbe1" stroke-width="1"/>
      <line id="Line_101" data-name="Line 101" x2="3.347" y2="2.258" transform="translate(-434.351 790.887)" fill="none" stroke="#d8dbe1" stroke-width="1"/>
      <line id="Line_102" data-name="Line 102" x2="3.496" y2="2.019" transform="translate(-433.287 789.185)" fill="none" stroke="#d8dbe1" stroke-width="1"/>
      <line id="Line_103" data-name="Line 103" x2="3.629" y2="1.77" transform="translate(-432.344 787.412)" fill="none" stroke="#d8dbe1" stroke-width="1"/>
      <line id="Line_104" data-name="Line 104" x2="3.743" y2="1.512" transform="translate(-431.528 785.578)" fill="none" stroke="#d8dbe1" stroke-width="1"/>
      <line id="Line_105" data-name="Line 105" x2="3.84" y2="1.248" transform="translate(-430.841 783.691)" fill="none" stroke="#d8dbe1" stroke-width="1"/>
      <line id="Line_106" data-name="Line 106" x2="3.917" y2="0.977" transform="translate(-430.288 781.761)" fill="none" stroke="#d8dbe1" stroke-width="1"/>
      <line id="Line_107" data-name="Line 107" x2="3.976" y2="0.701" transform="translate(-429.87 779.797)" fill="none" stroke="#d8dbe1" stroke-width="1"/>
      <line id="Line_108" data-name="Line 108" x2="4.015" y2="0.422" transform="translate(-429.591 777.809)" fill="none" stroke="#d8dbe1" stroke-width="1"/>
      <line id="Line_109" data-name="Line 109" x2="4.035" y2="0.141" transform="translate(-429.451 775.806)" fill="none" stroke="#d8dbe1" stroke-width="1"/>
      <line id="Line_110" data-name="Line 110" y1="0.141" x2="4.035" transform="translate(-429.451 773.657)" fill="none" stroke="#d8dbe1" stroke-width="1"/>
      <line id="Line_111" data-name="Line 111" y1="0.422" x2="4.015" transform="translate(-429.591 771.373)" fill="none" stroke="#d8dbe1" stroke-width="1"/>
      <line id="Line_112" data-name="Line 112" y1="0.701" x2="3.976" transform="translate(-429.87 769.106)" fill="none" stroke="#d8dbe1" stroke-width="1"/>
      <line id="Line_113" data-name="Line 113" y1="0.977" x2="3.917" transform="translate(-430.288 766.867)" fill="none" stroke="#d8dbe1" stroke-width="1"/>
      <line id="Line_114" data-name="Line 114" y1="1.248" x2="3.84" transform="translate(-430.841 764.666)" fill="none" stroke="#d8dbe1" stroke-width="1"/>
      <line id="Line_115" data-name="Line 115" y1="1.512" x2="3.743" transform="translate(-431.528 762.514)" fill="none" stroke="#d8dbe1" stroke-width="1"/>
      <line id="Line_116" data-name="Line 116" y1="1.77" x2="3.629" transform="translate(-432.344 760.423)" fill="none" stroke="#d8dbe1" stroke-width="1"/>
      <line id="Line_117" data-name="Line 117" y1="2.019" x2="3.496" transform="translate(-433.287 758.401)" fill="none" stroke="#d8dbe1" stroke-width="1"/>
      <line id="Line_118" data-name="Line 118" y1="2.258" x2="3.347" transform="translate(-434.351 756.459)" fill="none" stroke="#d8dbe1" stroke-width="1"/>
      <line id="Line_119" data-name="Line 119" y1="2.486" x2="3.181" transform="translate(-435.531 754.607)" fill="none" stroke="#d8dbe1" stroke-width="1"/>
      <line id="Line_120" data-name="Line 120" y1="2.701" x2="3" transform="translate(-436.822 752.853)" fill="none" stroke="#d8dbe1" stroke-width="1"/>
      <line id="Line_121" data-name="Line 121" y1="2.904" x2="2.804" transform="translate(-438.216 751.206)" fill="none" stroke="#d8dbe1" stroke-width="1"/>
      <line id="Line_122" data-name="Line 122" y1="3.093" x2="2.595" transform="translate(-439.708 749.674)" fill="none" stroke="#d8dbe1" stroke-width="1"/>
      <line id="Line_123" data-name="Line 123" y1="3.266" x2="2.373" transform="translate(-441.29 748.265)" fill="none" stroke="#d8dbe1" stroke-width="1"/>
      <line id="Line_124" data-name="Line 124" y1="3.424" x2="2.139" transform="translate(-442.955 746.984)" fill="none" stroke="#d8dbe1" stroke-width="1"/>
      <line id="Line_125" data-name="Line 125" y1="3.565" x2="1.895" transform="translate(-444.694 745.84)" fill="none" stroke="#d8dbe1" stroke-width="1"/>
      <line id="Line_126" data-name="Line 126" y1="3.688" x2="1.642" transform="translate(-446.498 744.836)" fill="none" stroke="#d8dbe1" stroke-width="1"/>
      <line id="Line_127" data-name="Line 127" y1="3.794" x2="1.381" transform="translate(-448.36 743.978)" fill="none" stroke="#1ee1af" stroke-width="1"/>
      <line id="Line_128" data-name="Line 128" y1="4.651" x2="1.393" transform="translate(-450.269 742.5)" fill="none" stroke="#1ee1af" stroke-width="1"/>
      <line id="Line_129" data-name="Line 129" y1="6.166" x2="1.341" transform="translate(-452.218 740.5)" fill="none" stroke="#1ee1af" stroke-width="1"/>
      <line id="Line_130" data-name="Line 130" y1="7.817" x2="1.319" transform="translate(-454.195 738.5)" fill="none" stroke="#1ee1af" stroke-width="1"/>
      <line id="Line_131" data-name="Line 131" y1="8.607" x2="0.315" transform="translate(-456.192 737.5)" fill="none" stroke="#1ee1af" stroke-width="1"/>
    </g>
  </g>
</svg>
