<svg xmlns="http://www.w3.org/2000/svg" width="18.233" height="15.845" viewBox="0 0 18.233 15.845">
  <path id="telegram" d="M8.448,18.684l4.216,1.549L14.3,25.481a.51.51,0,0,0,.774.258L17.4,23.846a.782.782,0,0,1,.86,0l4.216,3.1a.51.51,0,0,0,.774-.258l3.1-14.885a.543.543,0,0,0-.688-.6L8.448,17.823A.448.448,0,0,0,8.448,18.684Zm5.507.688L22.128,14.3c.172-.086.258.086.172.258l-6.8,6.281a1.2,1.2,0,0,0-.43.86l-.258,1.721c0,.258-.344.258-.43,0l-.86-3.1A1.233,1.233,0,0,1,13.954,19.372Z" transform="translate(-8.125 -11.184)"/>
</svg>
