<svg xmlns="http://www.w3.org/2000/svg" width="48" height="48" viewBox="0 0 48 48">
  <path id="Path_1159" data-name="Path 1159" d="M45,40a1,1,0,0,0-1,1,3.67,3.67,0,0,0,.307,1.235,40.993,40.993,0,0,1-6.963,2.492A14.989,14.989,0,1,0,16.294,23.655c1.254-8.934,6.374-11.76,9.917-13.713,2.039-1.122,3.8-2.093,3.8-3.942,0-3.7-5.747-6-15.011-6S0,2.3,0,6C0,7.8,1.518,8.78,3.275,9.91,6.751,12.145,12,15.523,12,28c0,12.979,6.879,17.48,11,19.01A13.118,13.118,0,0,0,28.007,48v0h0v0h0v0h.008a42.6,42.6,0,0,0,17.447-4.1c.009,0,.014-.013.021-.018C45.96,44.436,46.654,45,47,45a1,1,0,0,0,1-1C48,43.447,45.552,40,45,40ZM28.011,20A12.981,12.981,0,0,1,39.538,39H36.83a2.992,2.992,0,0,0-1.815-1.814V26a3.985,3.985,0,0,0-7-2.618,3.985,3.985,0,0,0-7,2.617V37.186A2.991,2.991,0,0,0,19.192,39H17.9a27.7,27.7,0,0,1-1.9-10.99A13.025,13.025,0,0,1,28.011,20ZM31.2,39H30.83a2.9,2.9,0,0,0-1.819-1.817V26a2,2,0,0,1,4,0V37.186A2.992,2.992,0,0,0,31.2,39Zm-6,0h-.367a2.9,2.9,0,0,0-1.82-1.817V26a2,2,0,0,1,4,0V37.186A2.987,2.987,0,0,0,25.195,39Zm-3.186,0a1,1,0,0,1,1,1,1,1,0,1,1-1-1Zm6,0a1,1,0,0,1,1,1,1,1,0,1,1-1-1Zm7,1a1,1,0,0,1-1,1h0a1,1,0,1,1,1-1ZM4.357,8.229C2.852,7.26,2,6.68,2,6,2,4.061,6.557,2,15.013,2s13,2.061,13,4c0,.668-1.282,1.374-2.768,2.192-4.166,2.3-11.109,6.13-11.232,19.454L14,27.688C13.9,14.382,7.937,10.529,4.357,8.229ZM28.009,46h0a13.317,13.317,0,0,1-4.273-.85A10.46,10.46,0,0,1,18.961,41h.231a2.983,2.983,0,0,0,5.634,0h.37a3,3,0,0,0,2.815,2h0a3,3,0,0,0,2.812-2H31.2a2.982,2.982,0,0,0,5.632,0H38.24a12.98,12.98,0,0,1-10.229,5Z"/>
</svg>
