<svg xmlns="http://www.w3.org/2000/svg" width="19.407" height="11.077" viewBox="0 0 19.407 11.077">
  <path id="vk" d="M645.308,377.591c.276-.356.494-.644.657-.859q1.749-2.324,1.516-2.973l-.061-.1a.593.593,0,0,0-.313-.166,1.619,1.619,0,0,0-.647-.025l-2.912.021a.89.89,0,0,0-.2,0,.777.777,0,0,0-.132.031c-.021.012-.037.018-.049.025l-.04.031a.441.441,0,0,0-.111.107.63.63,0,0,0-.1.178,16.232,16.232,0,0,1-1.083,2.273c-.248.417-.479.779-.687,1.086a5.209,5.209,0,0,1-.525.678,4.016,4.016,0,0,1-.384.35c-.113.089-.2.126-.264.11s-.117-.028-.172-.04a.682.682,0,0,1-.227-.248,1.116,1.116,0,0,1-.117-.4,3.81,3.81,0,0,1-.034-.411c0-.113,0-.276,0-.485s.012-.35.012-.423c0-.255,0-.534.015-.834s.018-.54.028-.712.009-.362.009-.558a2.253,2.253,0,0,0-.037-.46,1.5,1.5,0,0,0-.1-.322.551.551,0,0,0-.205-.242,1.229,1.229,0,0,0-.338-.135,6.977,6.977,0,0,0-1.365-.132,6.684,6.684,0,0,0-2.417.242,1.329,1.329,0,0,0-.383.3c-.123.15-.138.23-.052.242a1.226,1.226,0,0,1,.859.436l.061.12a1.824,1.824,0,0,1,.141.466,5.045,5.045,0,0,1,.092.736,7.878,7.878,0,0,1,0,1.264c-.034.35-.064.623-.1.819a1.737,1.737,0,0,1-.135.476,1.51,1.51,0,0,1-.123.221.2.2,0,0,1-.049.052.755.755,0,0,1-.273.049.632.632,0,0,1-.344-.141,2.51,2.51,0,0,1-.42-.39,5.165,5.165,0,0,1-.491-.693,11.776,11.776,0,0,1-.565-1.049l-.162-.294c-.1-.187-.239-.463-.414-.825s-.331-.709-.463-1.046a.674.674,0,0,0-.242-.322l-.049-.031a.694.694,0,0,0-.162-.086,1.138,1.138,0,0,0-.233-.067l-2.77.021a.714.714,0,0,0-.577.19l-.04.061a.318.318,0,0,0-.031.163.808.808,0,0,0,.061.273q.607,1.427,1.319,2.749t1.239,2.135c.35.54.709,1.046,1.074,1.525s.6.785.721.92.212.236.279.3l.251.242a6.115,6.115,0,0,0,.712.583,11.186,11.186,0,0,0,1.043.666,5.588,5.588,0,0,0,1.328.537,4.578,4.578,0,0,0,1.476.166h1.163a.811.811,0,0,0,.537-.221l.04-.049a.658.658,0,0,0,.077-.187.986.986,0,0,0,.037-.276,3.428,3.428,0,0,1,.064-.782,2.037,2.037,0,0,1,.172-.528,1.242,1.242,0,0,1,.218-.3.847.847,0,0,1,.172-.147c.034-.015.061-.028.08-.034a.632.632,0,0,1,.571.156,3.344,3.344,0,0,1,.617.586c.193.233.423.494.693.782a4.8,4.8,0,0,0,.709.647l.2.12a2.539,2.539,0,0,0,.525.221,1.141,1.141,0,0,0,.568.052l2.586-.04a1.177,1.177,0,0,0,.6-.126.479.479,0,0,0,.252-.279.756.756,0,0,0,.006-.344,1.18,1.18,0,0,0-.071-.267c-.024-.052-.046-.092-.064-.126a10.015,10.015,0,0,0-1.933-2.233l-.04-.04h-.009a11.353,11.353,0,0,1-.819-.828.781.781,0,0,1-.141-.819,6.729,6.729,0,0,1,.9-1.329Zm0,0" transform="translate(-628.1 -372.96)"/>
</svg>
