<svg xmlns="http://www.w3.org/2000/svg" width="9.833" height="9.439" viewBox="0 0 9.833 9.439">
  <g id="wallet" transform="translate(0 -17.84)">
    <g id="Group_2022" data-name="Group 2022" transform="translate(0 17.84)">
      <path id="Path_1167" data-name="Path 1167" d="M160.037,19.637l3.92-1.07-.208-.42a.552.552,0,0,0-.74-.25L159.5,19.637Z" transform="translate(-157.739 -17.84)"/>
      <path id="Path_1168" data-name="Path 1168" d="M325.879,86.46a.552.552,0,0,0-.146.02l-.921.252L322,87.5h4.583l-.172-.632A.551.551,0,0,0,325.879,86.46Z" transform="translate(-318.445 -85.702)"/>
      <path id="Path_1169" data-name="Path 1169" d="M8.714,215.56H.553a.553.553,0,0,0-.533.407.571.571,0,0,0-.02.145v6.151a.552.552,0,0,0,.552.552H8.713a.552.552,0,0,0,.552-.552v-1.54H5.989a.939.939,0,0,1-.939-.939v-1.228a.937.937,0,0,1,.937-.937H9.265v-1.507A.551.551,0,0,0,8.714,215.56Z" transform="translate(0 -213.377)"/>
      <path id="Path_1170" data-name="Path 1170" d="M496.616,436.906a.552.552,0,0,0-.193-.115.564.564,0,0,0-.179-.03h-3.292a.552.552,0,0,0-.552.552v1.229a.552.552,0,0,0,.552.552h3.292a.563.563,0,0,0,.179-.03.536.536,0,0,0,.193-.115.55.55,0,0,0,.18-.407v-1.229A.55.55,0,0,0,496.616,436.906Zm-2.511,1.132a.276.276,0,0,1-.276.276h-.183a.276.276,0,0,1-.276-.276v-.183a.271.271,0,0,1,.106-.216.279.279,0,0,1,.17-.06h.183a.276.276,0,0,1,.276.276v.183Z" transform="translate(-486.963 -432.135)"/>
    </g>
  </g>
</svg>
