<svg xmlns="http://www.w3.org/2000/svg" width="18.607" height="13.11" viewBox="0 0 18.607 13.11">
  <path id="Path_534" data-name="Path 534" d="M18.216,2.051A2.355,2.355,0,0,0,16.567.391,55.165,55.165,0,0,0,9.3,0,55.391,55.391,0,0,0,2.03.391,2.337,2.337,0,0,0,.381,2.051,25,25,0,0,0,0,6.555a24.339,24.339,0,0,0,.391,4.5,2.355,2.355,0,0,0,1.649,1.66A55.165,55.165,0,0,0,9.3,13.11a55.39,55.39,0,0,0,7.274-.391,2.337,2.337,0,0,0,1.649-1.66,25,25,0,0,0,.381-4.5A24.338,24.338,0,0,0,18.216,2.051ZM7.4,9.325V3.785l4.863,2.77Z"/>
</svg>
