<svg xmlns="http://www.w3.org/2000/svg" width="40.732" height="16.724" viewBox="0 0 40.732 16.724">
  <path id="Apple_Pay_logo" d="M7.5,2.156A2.5,2.5,0,0,1,5.5,3.1a2.837,2.837,0,0,1,.716-2.077A2.991,2.991,0,0,1,8.2,0a3.021,3.021,0,0,1-.7,2.156m.692,1.1c-1.106-.064-2.053.629-2.578.629S4.279,3.286,3.4,3.3A3.268,3.268,0,0,0,.627,4.989c-1.193,2.053-.31,5.092.843,6.763.565.827,1.241,1.734,2.132,1.7.843-.032,1.178-.549,2.2-.549s1.321.549,2.212.533c.923-.016,1.5-.827,2.069-1.655A7.257,7.257,0,0,0,11,9.882,3,3,0,0,1,9.2,7.153,3.061,3.061,0,0,1,10.66,4.591,3.153,3.153,0,0,0,8.193,3.254M14.582.947v12.4h1.925V9.11h2.665a3.937,3.937,0,0,0,4.145-4.09A3.891,3.891,0,0,0,19.237.947H14.582ZM16.508,2.57h2.22a2.314,2.314,0,0,1,2.626,2.459A2.322,2.322,0,0,1,18.72,7.495H16.508ZM26.835,13.446a3.186,3.186,0,0,0,2.84-1.583h.04v1.488H31.5V7.177c0-1.79-1.432-2.944-3.636-2.944-2.045,0-3.557,1.17-3.612,2.777h1.734a1.69,1.69,0,0,1,1.822-1.265c1.178,0,1.838.549,1.838,1.559v.684l-2.4.143c-2.236.135-3.445,1.05-3.445,2.642C23.8,12.38,25.045,13.446,26.835,13.446Zm.517-1.472c-1.026,0-1.679-.493-1.679-1.249,0-.78.629-1.233,1.83-1.3l2.14-.135v.7A2.092,2.092,0,0,1,27.352,11.974Zm6.524,4.75c1.878,0,2.761-.716,3.533-2.888l3.381-9.484H38.834L36.566,11.68h-.04L34.259,4.352H32.246l3.262,9.031-.175.549a1.531,1.531,0,0,1-1.623,1.289c-.151,0-.446-.016-.565-.032v1.488A5.3,5.3,0,0,0,33.877,16.724Z" transform="translate(-0.059)" opacity="0.42"/>
</svg>
