<svg xmlns="http://www.w3.org/2000/svg" width="79.084" height="6.588" viewBox="0 0 79.084 6.588">
  <g id="Group_416" data-name="Group 416" transform="translate(-557 -955.991)">
    <path id="Path_841" data-name="Path 841" d="M0,120.862H1.721c1.32,0,2.231.428,2.231,1.6a1.471,1.471,0,0,1-1.311,1.512v.018a1.487,1.487,0,0,1,1.475,1.53c0,1.366-1.129,1.694-2.422,1.694H0Zm.91,5.609h.683c.819,0,1.557-.173,1.557-1.029,0-.983-.865-1.12-1.648-1.12H.91Zm0-2.9h.5c.883,0,1.63-.082,1.63-1.02,0-.756-.647-.947-1.175-.947H.91Z" transform="translate(557 835.239)" fill="#fff"/>
    <path id="Path_842" data-name="Path 842" d="M20.9,120.862h.956l2.686,6.356h-.993l-.647-1.6H19.792l-.647,1.6h-.956Zm.446.856-1.266,3.151h2.531Z" transform="translate(543.884 835.239)" fill="#fff"/>
    <path id="Path_843" data-name="Path 843" d="M45.971,120.862H47.21l2.8,5.118h.018v-5.118h.911v6.356H49.778L46.9,121.991h-.018v5.227h-.911v-6.356Z" transform="translate(523.852 835.239)" fill="#fff"/>
    <path id="Path_844" data-name="Path 844" d="M75.122,121.709a2.93,2.93,0,0,0-1.748-.437,2.487,2.487,0,0,0-.045,4.972,3.678,3.678,0,0,0,1.02-.109V124.2H73.009v-.747h2.249v3.306a5.789,5.789,0,0,1-1.94.282,3.131,3.131,0,0,1-3.351-3.315,3.168,3.168,0,0,1,3.36-3.26,4.786,4.786,0,0,1,1.867.319Z" transform="translate(506.548 835.521)" fill="#fff"/>
    <path id="Path_845" data-name="Path 845" d="M138.092,120.47a3.3,3.3,0,1,1-3.06,3.287A3,3,0,0,1,138.092,120.47Zm0,5.773c1.466,0,2.094-1.22,2.094-2.486,0-1.293-.692-2.5-2.094-2.486-1.4-.009-2.094,1.193-2.094,2.486C136,125.023,136.627,126.243,138.092,126.243Z" transform="translate(459.632 835.521)" fill="#fff"/>
    <path id="Path_846" data-name="Path 846" d="M163.471,120.862h.911v5.555h2.659v.8h-3.57v-6.356Z" transform="translate(439.126 835.239)" fill="#fff"/>
    <path id="Path_847" data-name="Path 847" d="M185.5,124.586c0,1.785-.9,2.741-2.468,2.741s-2.468-.956-2.468-2.741v-3.724h.911v3.606c0,1.22.383,2.058,1.557,2.058s1.557-.838,1.557-2.058v-3.606h.911Z" transform="translate(426.799 835.239)" fill="#fff"/>
    <path id="Path_848" data-name="Path 848" d="M206.139,120.862h3.378v.8H207.05v1.858h2.359v.8H207.05v2.9h-.911Z" transform="translate(408.36 835.239)" fill="#fff"/>
    <path id="Path_849" data-name="Path 849" d="M227.983,121.536a2.8,2.8,0,0,0-1.193-.264c-.51,0-1.111.182-1.111.847,0,1.22,2.732.938,2.732,3.032,0,1.357-1.047,1.894-2.322,1.894a4.25,4.25,0,0,1-1.3-.264l.091-.847a3.858,3.858,0,0,0,1.32.31,1.138,1.138,0,0,0,1.248-1.038c0-1.421-2.732-1.029-2.732-3.005,0-1.129.892-1.73,2.04-1.73a4.241,4.241,0,0,1,1.357.228Z" transform="translate(394.966 835.521)" fill="#fff"/>
    <path id="Path_850" data-name="Path 850" d="M245.387,120.862h3.56v.8H246.3v1.858h2.413v.8H246.3v2.094h2.65v.8h-3.56v-6.356Z" transform="translate(380.059 835.239)" fill="#fff"/>
    <path id="Path_851" data-name="Path 851" d="M265.7,120.862h1.239l2.8,5.118h.018v-5.118h.911v6.356h-1.166l-2.878-5.227h-.018v5.227H265.7Z" transform="translate(365.412 835.239)" fill="#fff"/>
    <path id="Path_852" data-name="Path 852" d="M109.716,126.843l-.9-.9c-.151.147-.3.3-.582.578a1.815,1.815,0,1,1-2.569-2.565c.207-.207.453-.449.582-.578a1.8,1.8,0,0,1-.658-1.32,1.592,1.592,0,0,1,1.587-1.587,1.555,1.555,0,0,1,1.124.471l-.641.639a.663.663,0,0,0-.483-.2.687.687,0,0,0-.68.68.712.712,0,0,0,.207.483c.3.3,2.11,2.117,2.11,2.117l.643-.643.64.643-.643.64.9.9Zm-2.829-2.82-.578.578a.907.907,0,0,0,1.28,1.285c.311-.307.587-.587.587-.587Z" transform="translate(481.191 835.52)" fill="#fff"/>
  </g>
</svg>
