<svg id="layer1" xmlns="http://www.w3.org/2000/svg" width="161.294" height="35.119" viewBox="0 0 161.294 35.119">
  <g id="switch29">
    <g id="g27">
      <g id="レイヤー_1" data-name="レイヤー 1">
        <g id="g24">
          <g id="g8">
            <path id="path4" d="M17.558,0a17.559,17.559,0,1,0,17.56,17.56A17.559,17.559,0,0,0,17.558,0Zm0,33.137A15.578,15.578,0,1,1,33.137,17.56,15.579,15.579,0,0,1,17.558,33.137Z" fill="#000000"/>
            <path id="path6" d="M49.045,35.66,46.5,32.683a.447.447,0,0,0-.112-.092.44.44,0,0,0-.41-.015h0a1.358,1.358,0,0,1-1.917-.976h0a3.438,3.438,0,0,0-1.665-2.352l-1.142-.659,6.491-3.747-.8-1.392-7.294,4.211-.877-.505V26.143l7.294-4.211-.8-1.392-6.49,3.748V22.97a3.441,3.441,0,0,0-1.2-2.619h0a1.358,1.358,0,0,1,.113-2.149.438.438,0,0,0,.191-.363.448.448,0,0,0-.023-.142l-1.3-3.7a.271.271,0,0,0-.514,0l-1.3,3.7a.432.432,0,0,0-.024.142.44.44,0,0,0,.19.363h0a1.357,1.357,0,0,1,.113,2.149,3.44,3.44,0,0,0-1.2,2.619v1.318L27.31,20.54l-.8,1.392L33.8,26.143v1.013l-.877.5L25.63,23.45l-.8,1.392,6.491,3.747-1.142.659A3.436,3.436,0,0,0,28.511,31.6h0a1.358,1.358,0,0,1-1.917.976h0a.441.441,0,0,0-.409.015.43.43,0,0,0-.111.092l-2.55,2.976a.272.272,0,0,0,.257.447l3.852-.722a.438.438,0,0,0,.354-.4,1.358,1.358,0,0,1,1.8-1.172,3.436,3.436,0,0,0,2.87-.267L33.8,32.89v7.494h1.607V31.961l.877-.506.877.506v8.422h1.607V32.89l1.141.658a3.437,3.437,0,0,0,2.87.267,1.357,1.357,0,0,1,1.8,1.172.44.44,0,0,0,.218.348.445.445,0,0,0,.136.05l3.852.722a.271.271,0,0,0,.256-.445ZM33.8,31.035l-2.142,1.236a.877.877,0,1,1-.876-1.519l2.142-1.237.877.506v1.013Zm1.607-8.292a.877.877,0,1,1,1.754,0v2.473l-.876.505-.877-.505Zm1.885,6.429-1.008.581-1.009-.582V28.006l1.009-.583,1.008.583Zm4.815,2.78a.879.879,0,0,1-1.2.321l-2.142-1.237V30.022l.876-.506,2.142,1.237A.878.878,0,0,1,42.107,31.951Z" transform="translate(-18.725 -11.029)" fill="#000000"/>
          </g>
          <g id="g22" transform="translate(39.026 2.276)">
            <path id="polygon10" d="M622.3,23h-5.86V11.285h-5.353V41.851h5.353V28.428h5.86V41.851h5.47V11.285H622.3Z" transform="translate(-526.855 -11.285)" fill="#000000"/>
            <path id="polygon12" d="M193.487,11.285l5.941,18.742V41.851h5.947V29.42l6.159-18.135h-5l-4.043,11.908-3.66-11.908Z" transform="translate(-193.487 -11.285)" fill="#000000"/>
            <path id="polygon14" d="M394.466,11.285,391.9,25.825l-2.974-14.54h-8.357V41.851h4.792V18.81l4.09,20.03h4.476l3.627-20.355V41.851h5.619V11.285Z" transform="translate(-342.836 -11.285)" fill="#000000"/>
            <path id="path16" d="M719.8,11.285h-8.278l-5.586,30.566h4.953l1.185-7.113h6.162l1.149,7.113h5.458ZM712.92,29.643l2.278-13.67,2.211,13.67Z" transform="translate(-602.572 -11.285)" fill="#000000"/>
            <path id="path18" d="M510.353,11.285l-5.588,30.566h4.955l1.186-7.113h6.162l1.149,7.113h5.457L518.63,11.285Zm1.4,18.358,2.278-13.67,2.211,13.67Z" transform="translate(-441.98 -11.285)" fill="#000000"/>
            <path id="path20" d="M279.834,11.285l-5.588,30.566H279.2l1.186-7.113h6.161l1.15,7.113h5.456l-5.044-30.566Zm1.4,18.358,2.278-13.67,2.21,13.67Z" transform="translate(-257.957 -11.285)" fill="#000000"/>
          </g>
        </g>
      </g>
    </g>
  </g>
</svg>
