<svg xmlns="http://www.w3.org/2000/svg" width="161.294" height="24.817" viewBox="0 0 161.294 24.817">
  <g id="Group_424" data-name="Group 424" transform="translate(-20.8 -236)">
    <path id="Path_873" data-name="Path 873" d="M368.2,236.968v22.147a.948.948,0,0,0,.968.968H371.8a.948.948,0,0,0,.968-.968V236.968A.948.948,0,0,0,371.8,236h-2.634a.948.948,0,0,0-.968.968" transform="translate(-254.027)" fill="#000000"/>
    <path id="Path_874" data-name="Path 874" d="M487.765,276.3v-9.757a7.1,7.1,0,0,0-6.639-7.042,10.818,10.818,0,0,0-6.988,2.2c-.161.134-.618.269-.618-.134v-.994a.948.948,0,0,0-.968-.968h-2.285a.948.948,0,0,0-.968.968v15.75a.948.948,0,0,0,.968.968h2.285a.9.9,0,0,0,.941-.968v-7.687a5.736,5.736,0,0,1,6.155-5.752c3.36,0,3.9,2.311,3.9,3.682v9.757a.948.948,0,0,0,.968.968H486.8a1,1,0,0,0,.968-.994" transform="translate(-327.953 -17.184)" fill="#000000"/>
    <path id="Path_875" data-name="Path 875" d="M394.5,278v.108" transform="translate(-273.258 -30.711)" fill="#000000"/>
    <path id="Path_876" data-name="Path 876" d="M555.133,245.757a5.655,5.655,0,0,1,5.94,5.752,5.73,5.73,0,0,1-5.94,5.94,5.793,5.793,0,0,1-5.806-5.994,5.723,5.723,0,0,1,5.806-5.7m5.483,12.821c.269-.215.564-.027.564.457a.968.968,0,0,0,.968,1.048h2.285a.948.948,0,0,0,.968-.968V236.968a.948.948,0,0,0-.968-.968h-2.285a.948.948,0,0,0-.968.968v6.988c0,.511-.269.672-.564.457-6.209-4.757-15.616,0-15.616,7.042.027,7.875,9.327,12.122,15.616,7.123" transform="translate(-383.307)" fill="#000000"/>
    <path id="Path_877" data-name="Path 877" d="M254.926,253.229c2.177-1.156,7.526-1.048,8.036-.968.242.027.618.215.618.564-.027,4.65-6.343,5.268-8.762,3.655a1.95,1.95,0,0,1-.86-1.478,1.679,1.679,0,0,1,.968-1.774m-2.822,6.236c2.983,2.123,8.52,1.613,11.02-.591a.456.456,0,0,1,.753.269c.242.779.591.968,1.371.968h1.586a.918.918,0,0,0,.941-.968V249.17c0-5.429-5.053-6.854-8.923-6.854-4.327,0-7.176,1.64-8.547,5-.134.349.269.753.618.753h2.957a1.553,1.553,0,0,0,1.156-.672c.779-1.29,2.016-1.774,4.354-1.774,2.58,0,3.252.564,4.085,1.774a1.042,1.042,0,0,1-.591,1.586,65.838,65.838,0,0,0-8.95.806,5.334,5.334,0,0,0-4.3,5.241,5.226,5.226,0,0,0,2.473,4.435m-21.26,1.236c7.687,0,10.885-4.972,10.885-9.192,0-4.032-3.225-9.192-10.939-9.192s-10.939,5.161-10.939,9.219c-.027,4.274,3.252,9.165,10.993,9.165m0-3.279c-4.489,0-6.531-3.333-6.531-5.886a6.521,6.521,0,1,1,6.531,5.886m-29.458-7.2v8.9a.948.948,0,0,1-.968.968h-2.15a.948.948,0,0,1-.968-.968V236.968a.948.948,0,0,1,.968-.968h13.976a6.536,6.536,0,0,1,6.773,6.612,6.722,6.722,0,0,1-2.983,5.376c-.134.081-.242.3-.188.323,1.183.941,1.21,1.693,1.613,3.306.753,2.93.833,5.456,1.989,7.9a.425.425,0,0,1-.376.511h-2.8a1.489,1.489,0,0,1-1.586-.968c-.994-3.064-.323-6.021-2.392-8.9a3.455,3.455,0,0,0-2.822-.968h-7.149c.027.054-.914.054-.941,1.021m9.488-4.166s3.736,0,3.736-3.413c0-3.44-3.736-3.44-3.736-3.44h-8.52a.948.948,0,0,0-.968.968v4.946a.974.974,0,0,0,.968.968Z" transform="translate(-129.061)" fill="#000000"/>
    <path id="Path_878" data-name="Path 878" d="M71.9,259.24H48.33a5.824,5.824,0,0,0-5.967,5.832,5.977,5.977,0,0,0,5.967,5.913H77.143v1.747H48.3a7.634,7.634,0,1,1,0-15.267H70.1v-2.392H40.535v17.659H38.6V253.3H71.9v5.94Z" transform="translate(-13.016 -12.65)" fill="#000000"/>
    <path id="Path_879" data-name="Path 879" d="M33.486,255.46H64.127v-1.774H35.314v-2.392h21.8a7.574,7.574,0,0,0,7.768-7.633A7.672,7.672,0,0,0,57,236H20.8v24.056h1.935V237.747H57.058a5.977,5.977,0,0,1,5.967,5.913,5.824,5.824,0,0,1-5.967,5.832H33.486Z" fill="#000000"/>
  </g>
</svg>
