<svg xmlns="http://www.w3.org/2000/svg" width="163.292" height="41.86" viewBox="0 0 163.292 41.86">
  <path id="path2356" d="M22.093,41.317c-.726-.531-.71-.669.72-6.315a72.7,72.7,0,0,0,1.648-8.013l.186-2.242-1.916,3.717c-3.413,6.621-5.926,9.836-9.178,11.743a12.43,12.43,0,0,1-8.344.888c-5.157-1.444-7-8.344-3.168-11.874,2.306-2.126,8.9-1.274,8.164,1.054-.243.767-.443.829-1.947.6-1.466-.22-1.8-.128-2.66.733a3.182,3.182,0,0,0-.984,2.7A2.738,2.738,0,0,0,5.8,37.019c2.041,1.717,5.176,1.154,7.7-1.384,1.745-1.753,4.748-7.273,8.594-15.794,4-8.853,6.4-13.633,8.489-16.871C32.476.036,32.776-.213,34.048.107c1.441.362,1.516,1.659.259,4.466a55.349,55.349,0,0,0-4.525,16.522l-.259,2.884L33.282,18.6A103.087,103.087,0,0,1,45.139,3.886C47.9,1.042,48.814.329,49.689.329c1.377,0,1.789.95.987,2.276-.33.546-2.279,3.761-4.331,7.145C38.739,22.293,35.3,31.5,36.516,36.034c.525,1.95,1.41,2.263,3.562,1.259,2.348-1.1,3.537-2.318,4.924-5.067C47.54,27.2,52.572,23.4,56.7,23.4a6.13,6.13,0,0,1,2.736.538c.659.461.874.461,1.505,0,.959-.7,2.678-.689,3.269.024.38.457.069,1.341-1.654,4.711-1.167,2.281-2.521,4.871-3.011,5.755s-.771,1.726-.626,1.87c.88.88,4.855-3.347,8.9-9.466,1.4-2.115,1.41-2.16.831-3.545-.752-1.8-.753-5.372,0-6.823a4.716,4.716,0,0,1,3.657-2.295A3.725,3.725,0,0,1,74.247,15.3a3.268,3.268,0,0,1,1.124,2.9,8.259,8.259,0,0,1-.769,3.283c-1.013,1.985-.99,2.059.536,1.812,1.579-.256,2.925.558,2.925,1.77,0,.467-1.221,2.4-2.725,4.3-5.089,6.458-5.911,9.7-2.051,8.085,2.516-1.051,3.789-2.305,9.777-9.628,4.361-5.333,6.028-7.112,6.667-7.112.983,0,2.56,1,2.56,1.621a10.976,10.976,0,0,1-1.6,2.544l-1.6,2.12.511,1.761a23.308,23.308,0,0,1,.678,3.4,3.941,3.941,0,0,0,.356,1.634,21,21,0,0,0,2.4-1.553,7.715,7.715,0,0,0,3.2-3.749c4.311-9.583,7.728-16.949,8.2-17.674a2.634,2.634,0,0,1,3.62-.288c.51.615.5.64-3.6,10.3L102.7,24.96l1.657-.971c1.817-1.065,3.231-1.232,4.158-.491a5.229,5.229,0,0,1,1.206,4.249,36.9,36.9,0,0,1-3.779,7.864c-.6.976-.815,1.634-.539,1.634,1.038,0,3.752-2.756,4.776-4.85,1.347-2.753,5.509-7.009,8.071-8.252,2.428-1.179,5.5-1.274,6.681-.208.7.631.831.648,1.029.131.485-1.263,4.018-1.058,4.018.232a47.2,47.2,0,0,1-2.692,5.726,35.053,35.053,0,0,0-2.692,6.028c0,1.47,1.055,1.348,3.092-.358,1.565-1.31,2.315-2.393,3.819-5.519,3.744-7.778,9.426-14.942,14.618-18.43,3.023-2.031,5.773-1.82,5.773.443,0,1.2-2.49,6.571-4.2,9.055a40.813,40.813,0,0,1-9.287,8.689c-3.989,2.738-4.14,2.911-4.433,5.046-.285,2.082.7,3.292,2.343,2.879,1.715-.43,5.238-4.443,7.486-8.527a62.687,62.687,0,0,1,6.877-10.679c2.564-3.164,8.035-7.772,9.649-8.126,1.575-.346,2.671.064,2.93,1.1.271,1.081-1.252,5.321-2.952,8.221-1.6,2.727-6.891,8.035-10.832,10.867-3.1,2.224-3.748,3.359-3.195,5.562.714,2.843,4,1.655,7.592-2.747,2.09-2.557,2.417-2.815,2.929-2.3.831.832.4,1.98-1.88,5-2.158,2.86-5.1,5.06-7.291,5.454a5.473,5.473,0,0,1-5.857-3.839c-.069-.2-.719.188-1.444.871-1.823,1.719-4.831,3.154-6.615,3.154a3.18,3.18,0,0,1-2.616-1.124,3.727,3.727,0,0,1-1.124-1.923c0-.439-.094-.8-.209-.8a16.137,16.137,0,0,0-2.211,1.511c-3.383,2.554-5.149,2.751-6.765.755l-.648-.8-1.332.784a13.194,13.194,0,0,1-3.165,1.192,4.99,4.99,0,0,1-5.227-1.635l-.906-.983-1.527,1.106c-2.331,1.689-3.866,2.086-5.265,1.362a3.911,3.911,0,0,1-2.345-3.282,25.41,25.41,0,0,1,2.307-5.369c1.264-2.419,2.3-4.538,2.3-4.711,0-.738-1.1-.181-3.048,1.542-1.807,1.6-2.376,2.487-4.254,6.628-2.479,5.467-3.407,6.4-5.292,5.34-1.1-.623-1.365-2.014-.675-3.59.209-.477-.638-.055-2.466,1.229-4.606,3.235-8.317,3.5-10.863.774l-1.028-1.1-2.049,1.227a9.027,9.027,0,0,1-4.245,1.4c-2.041.16-2.278.09-3.365-1A3.232,3.232,0,0,1,66.526,37.9c0-1.846,2.272-6.193,4.6-8.8,1.221-1.368,1.79-2.282,1.524-2.447-.517-.319-.331-.531-4,4.564-4.052,5.62-6.382,8.089-8.748,9.268-2.4,1.2-4,1.257-5.133.191l-.849-.8-1.564.8a7.227,7.227,0,0,1-6.51.025,4.3,4.3,0,0,1-1.48-1.337c-.176-.458-.529-.353-1.83.543-2.738,1.884-6.063,2.327-8.4,1.12-1.788-.923-2.45-4.9-1.719-10.321l.285-2.115-1.2,2.115c-3.336,5.864-7.319,11.152-8.4,11.152A3.017,3.017,0,0,1,22.093,41.317ZM84.81,37.84c.766-.766.943-1.327.939-2.98-.006-2.358-.333-3.846-.811-3.686-.678.227-3.8,4.36-3.8,5.03,0,.756,1.632,2.581,2.307,2.581A3.343,3.343,0,0,0,84.81,37.84Zm33.9-1.934c3.2-2.735,5.474-9.431,3.314-9.739-2.84-.4-8.212,5.7-8.318,9.45C113.631,38.321,115.748,38.443,118.713,35.906Zm-66.356.616a12.493,12.493,0,0,0,5.191-8.3c.261-1.907-.222-2.407-1.916-1.982-3.522.884-8.808,8.855-7.176,10.822C49.174,37.922,50.419,37.751,52.356,36.522ZM141.427,23.5c2.748-2.7,6.766-8.556,5.876-8.556a25.316,25.316,0,0,0-3.362,3.21c-2.914,3.079-6.629,8.326-5.894,8.326A22.979,22.979,0,0,0,141.427,23.5Zm12.565-.673c1.9-1.743,5.705-7.883,4.892-7.883-1.113,0-8.912,9.873-8.912,11.281,0,.228.811-.356,1.8-1.3S153.762,23.036,153.992,22.825ZM72.25,19.9c.373-1.069.055-2.654-.533-2.654-.49,0-.979,1.736-.764,2.714C71.274,21.421,71.728,21.4,72.25,19.9Z" fill="#000000"/>
</svg>
