<svg id="Group_422" data-name="Group 422" xmlns="http://www.w3.org/2000/svg" width="122.5" height="77.087" viewBox="0 0 122.5 77.087">
  <g id="Group_421" data-name="Group 421">
    <g id="Group_420" data-name="Group 420">
      <path id="Path_870" data-name="Path 870" d="M65.807,34.763a3.993,3.993,0,1,0-3.993-3.993,3.994,3.994,0,0,0,3.993,3.993" transform="translate(-37.032 -16.268)" fill="#000000"/>
      <path id="Path_871" data-name="Path 871" d="M23.628,24.612V16.08c0-2.9-2.867-5.535-5.084-4.872S7.078,14.708,6.7,14.877,1.48,16.92,1.48,22.215l.073,34.41a3.607,3.607,0,0,0,3.81,3.392A6.441,6.441,0,0,0,8.107,59.1s4.165-2.282,4.447-2.4,2.536-.84,2.609,2.258V78.279L22,76.09V58.954c0-1.164.846-6.923,3.81-9.3a1.96,1.96,0,0,1,2.891.632,4.918,4.918,0,0,0,2.4,1.973s1.384.609,2.61-1.48c.073-.146,2.23-3.716,2.327-3.877a1.27,1.27,0,0,1,1.335-.562s2.267-.147,1.911,3.029c0,0,10.486-3.184,11.356-3.67a15.38,15.38,0,0,0,6.554-5.357s.722-1.064,1.629-.987c.159,0,2.389.139,1.753,3.1,0,0,10.167-3.106,10.731-3.384,1.2-.493,4.373-1.812,4.3-5.5a5.6,5.6,0,0,0-1.838-4.378c-.085-.085-6.995-5.173-7.056-5.218a2.029,2.029,0,0,1,.073-2.891A2.454,2.454,0,0,1,68.7,20.027s.858-.039,2.181,1.7c.171.17,1.151,1.48,1.837,1.619,0,0,.563.185,1.262-.493,1.715-1.488,2.609-1.549,2.609-1.549s2.474-.709,2.474,2.112v5.928c0,1.3,1.7,5.265,5.574,5.073a18.181,18.181,0,0,0,2.609-.493L91.4,32.585s5.23-1.572,7.056-4.941c0,0,.87-1.689,2.119-1.689,0,0,2.181-.285,1.972,3.03l5.929-1.974V12.7S108.3,11,110.3,11c1.972,0,1.911,1.549,1.911,1.549V42.172a3.651,3.651,0,0,0,3.736,3.384s8.036-.069,8.036-6.914V36.036l-2.046.7v2.474a1.654,1.654,0,0,1-1.764,1.758,1.788,1.788,0,0,1-1.972-1.835V2.89a1.84,1.84,0,0,0-1.838-1.7s-1.543-.139-2.744,1.981-1.629,3.731-3.246,3.731c0,0-1.924.231-1.9-1.48V3.591L102.4,5.572v6.976c0,1.735-1.3,10.337-3.589,10.368a1.935,1.935,0,0,1-2.4-1.834V12.972c.061-1.094-.8-4.363-3.528-4.016l-2.462.493V27.01A3.1,3.1,0,0,1,87.3,30.254c-.257.039-3.1-.077-3.1-2.821V16.01a2.016,2.016,0,0,1,1.911-2.189l.061-2.96s-6.2,1.411-9.089,6.63a2.515,2.515,0,0,1-1.556.7,1.628,1.628,0,0,1-1.764-1.48v-1.9L63.539,18.191s-4.018,1.272-4.018,5.366c0,0,0,2.821,1.764,4.155l7.129,5.365a1.965,1.965,0,0,1,.625,2.329,3.13,3.13,0,0,1-2.61,1.973c-.331.038-1.409,0-2.046-1.627,0,0-.563-2.112-2.388-1.48,0,0-3.43,1.2-3.675,1.272s-2.254.424-2.254-1.974v-7.9c0-.587-.723-3.932-3.528-3.808a10.556,10.556,0,0,0-3.025.778v3.454s1.9-.285,1.9,2.182V40.2a2.92,2.92,0,0,1-3.026,3.03,3.059,3.059,0,0,1-3.038-2.821c-.025-1.688.073-38.01.073-38.01l-6.21,2.4.073,26.023s-.38,8.449-2.756,11.709a1.916,1.916,0,0,1-3.307-1.134V28l-6.063,1.9v5.427c0,.91-.846,11.686-3.945,11.532-.392.008-1.225-.424-1.238-2.274l.037-13.127L16.082,33.57s-.061,7.215-.074,7.616c-.184,2.313.147,12.765-6.774,12.765,0,0-1.691.069-1.691-1.974v-29.2s.2-3.3,2.756-4.448c0,0,2.61-.933,3.173-1.125a2.2,2.2,0,0,1,2.683,2.328v7.408l7.473-2.328" transform="translate(-1.48 -1.192)" fill="#000000"/>
      <path id="Path_872" data-name="Path 872" d="M287.79,4.05a1.948,1.948,0,1,1,1.948,1.9,1.887,1.887,0,0,1-1.948-1.9m1.948-1.5a1.438,1.438,0,0,0-1.446,1.5,1.447,1.447,0,1,0,2.892,0A1.445,1.445,0,0,0,289.738,2.555Zm-.344,2.559h-.416V2.987h.809c.527,0,.82.169.82.632a.523.523,0,0,1-.514.571l.514.925h-.465l-.478-.91h-.27Zm0-1.234h.368c.306,0,.417-.1.417-.3s-.134-.262-.44-.262h-.344V3.88Z" transform="translate(-170.19 -1.759)" fill="#000000"/>
    </g>
  </g>
</svg>
