<svg xmlns="http://www.w3.org/2000/svg" width="241.248" height="20.096" viewBox="0 0 241.248 20.096">
  <g id="Bang_and_Olufsen_logo" transform="translate(0 -120.47)">
    <path id="Path_858" data-name="Path 858" d="M0,120.862H5.25c4.028,0,6.806,1.305,6.806,4.889,0,2.667-1.556,4-4,4.611v.056a4.535,4.535,0,0,1,4.5,4.667c0,4.167-3.444,5.167-7.389,5.167H0Zm2.777,17.111H4.861c2.5,0,4.75-.528,4.75-3.139,0-3-2.639-3.417-5.028-3.417H2.777Zm0-8.834H4.306c2.694,0,4.972-.25,4.972-3.111,0-2.306-1.972-2.889-3.583-2.889H2.777Z" transform="translate(0 -0.058)"/>
    <path id="Path_859" data-name="Path 859" d="M26.468,120.862h2.917l8.195,19.389H34.551l-1.972-4.889h-9.5l-1.972,4.889H18.189Zm1.361,2.611-3.861,9.611H31.69Z" transform="translate(-2.712 -0.058)"/>
    <path id="Path_860" data-name="Path 860" d="M45.971,120.862h3.777L58.3,136.473h.055V120.862h2.778v19.389H57.582L48.8,124.306h-.055v15.945H45.971V120.862Z" transform="translate(-6.855 -0.058)"/>
    <path id="Path_861" data-name="Path 861" d="M85.69,124.248a8.939,8.939,0,0,0-5.333-1.333,7.587,7.587,0,0,0-.139,15.167,11.22,11.22,0,0,0,3.111-.333v-5.889H79.246v-2.278h6.861v10.084a17.659,17.659,0,0,1-5.917.861c-6.139,0-10.223-3.945-10.223-10.111,0-5.973,4.334-9.945,10.251-9.945a14.6,14.6,0,0,1,5.694.973Z" transform="translate(-10.433 0)"/>
    <path id="Path_862" data-name="Path 862" d="M144.366,120.47c5.889,0,9.334,4.278,9.334,10.028,0,5.889-3.417,10.028-9.334,10.028s-9.334-4.139-9.334-10.028C135.033,124.748,138.478,120.47,144.366,120.47Zm0,17.612c4.473,0,6.389-3.722,6.389-7.584,0-3.944-2.111-7.611-6.389-7.584-4.278-.028-6.389,3.639-6.389,7.584C137.978,134.359,139.895,138.082,144.366,138.082Z" transform="translate(-20.135)"/>
    <path id="Path_863" data-name="Path 863" d="M163.471,120.862h2.778v16.945h8.112v2.444h-10.89V120.862Z" transform="translate(-24.376 -0.058)"/>
    <path id="Path_864" data-name="Path 864" d="M195.622,132.223c0,5.444-2.75,8.361-7.528,8.361s-7.528-2.917-7.528-8.361V120.862h2.778v11c0,3.723,1.167,6.278,4.75,6.278s4.75-2.556,4.75-6.278v-11h2.778Z" transform="translate(-26.925 -0.058)"/>
    <path id="Path_865" data-name="Path 865" d="M206.139,120.862h10.306v2.444h-7.528v5.667h7.195v2.445h-7.195v8.833h-2.778V120.862Z" transform="translate(-30.738 -0.058)"/>
    <path id="Path_866" data-name="Path 866" d="M234.686,123.72a8.544,8.544,0,0,0-3.639-.806c-1.556,0-3.389.555-3.389,2.583,0,3.722,8.334,2.861,8.334,9.251,0,4.139-3.195,5.778-7.083,5.778a12.965,12.965,0,0,1-3.972-.806l.278-2.583a11.768,11.768,0,0,0,4.028.944c1.583,0,3.806-.889,3.806-3.167,0-4.334-8.334-3.139-8.334-9.167,0-3.445,2.722-5.278,6.222-5.278a12.937,12.937,0,0,1,4.139.695Z" transform="translate(-33.508 0)"/>
    <path id="Path_867" data-name="Path 867" d="M245.387,120.862h10.861v2.444h-8.083v5.667h7.361v2.445h-7.361v6.389h8.083v2.444H245.387V120.862Z" transform="translate(-36.59 -0.058)"/>
    <path id="Path_868" data-name="Path 868" d="M265.7,120.862h3.778l8.556,15.611h.055V120.862h2.778v19.389h-3.556l-8.778-15.945h-.056v15.945H265.7V120.862Z" transform="translate(-39.619 -0.058)"/>
    <path id="Path_869" data-name="Path 869" d="M119.109,139.908l-2.745-2.745c-.461.447-.915.9-1.776,1.762a5.537,5.537,0,1,1-7.837-7.823c.631-.63,1.383-1.369,1.776-1.762a5.5,5.5,0,0,1-2.007-4.027,4.857,4.857,0,0,1,4.841-4.84,4.743,4.743,0,0,1,3.43,1.437l-1.956,1.949a2.022,2.022,0,0,0-1.475-.61,2.1,2.1,0,0,0-2.074,2.074,2.173,2.173,0,0,0,.63,1.475c.926.925,6.437,6.457,6.437,6.457l1.963-1.963,1.953,1.963-1.963,1.952,2.745,2.746Zm-8.631-8.6-1.762,1.762a2.766,2.766,0,0,0,3.905,3.919c.949-.936,1.79-1.79,1.79-1.79Z" transform="translate(-15.677 0)"/>
  </g>
</svg>
