<svg xmlns="http://www.w3.org/2000/svg" width="41.242" height="16.377" viewBox="0 0 41.242 16.377">
  <g id="Google_Pay__GPay__Logo" data-name="Google_Pay_(GPay)_Logo" opacity="0.42">
    <path id="Path_780" data-name="Path 780" d="M191.623,17.047v4.8H190.1V9.992h4.039a3.652,3.652,0,0,1,2.615,1.026,3.427,3.427,0,0,1,0,5.018,3.641,3.641,0,0,1-2.615,1.009h-2.516Zm0-5.6V15.59h2.554a2.05,2.05,0,0,0,1.507-3.51,1.986,1.986,0,0,0-1.507-.629h-2.554Z" transform="translate(-172.118 -9.046)"/>
    <path id="Path_781" data-name="Path 781" d="M275.189,46.78a3.777,3.777,0,0,1,2.666.9,3.2,3.2,0,0,1,.976,2.475v5h-1.457V54.03h-.066a2.909,2.909,0,0,1-2.516,1.39,3.271,3.271,0,0,1-2.243-.795,2.537,2.537,0,0,1-.9-1.986,2.409,2.409,0,0,1,.952-2,4.024,4.024,0,0,1,2.541-.745,4.5,4.5,0,0,1,2.234.5v-.348a1.734,1.734,0,0,0-.629-1.348,2.157,2.157,0,0,0-1.47-.555,2.331,2.331,0,0,0-2.02,1.076l-1.341-.845A3.733,3.733,0,0,1,275.189,46.78Zm-1.97,5.893a1.216,1.216,0,0,0,.505.993,1.858,1.858,0,0,0,1.183.4,2.428,2.428,0,0,0,1.713-.711,2.225,2.225,0,0,0,.757-1.671,3.111,3.111,0,0,0-1.986-.568,2.575,2.575,0,0,0-1.547.447A1.334,1.334,0,0,0,273.218,52.673Z" transform="translate(-245.95 -42.355)"/>
    <path id="Path_782" data-name="Path 782" d="M358.334,49.58l-5.085,11.687h-1.572l1.887-4.089-3.344-7.6h1.655l2.417,5.827h.033l2.351-5.827Z" transform="translate(-317.092 -44.89)"/>
    <path id="Path_783" data-name="Path 783" d="M78.54,60.385A8.114,8.114,0,0,0,78.423,59H72v2.623h3.679a3.153,3.153,0,0,1-1.36,2.07v1.7h2.2A6.66,6.66,0,0,0,78.54,60.385Z" transform="translate(-65.19 -53.419)"/>
    <path id="Path_784" data-name="Path 784" d="M13.755,91.287a6.518,6.518,0,0,0,4.514-1.644l-2.2-1.7a4.131,4.131,0,0,1-6.142-2.16H7.67v1.755a6.811,6.811,0,0,0,6.085,3.752Z" transform="translate(-6.945 -77.665)"/>
    <path id="Path_785" data-name="Path 785" d="M2.99,44.032a4.081,4.081,0,0,1,0-2.607V39.67H.728a6.811,6.811,0,0,0,0,6.116Z" transform="translate(-0.003 -35.917)"/>
    <path id="Path_786" data-name="Path 786" d="M13.756,2.692a3.7,3.7,0,0,1,2.613,1.022h0l1.944-1.944A6.544,6.544,0,0,0,13.756,0,6.811,6.811,0,0,0,7.671,3.748L9.933,5.5A4.074,4.074,0,0,1,13.756,2.692Z" transform="translate(-6.946 0.005)"/>
  </g>
</svg>
