<svg xmlns="http://www.w3.org/2000/svg" width="194" height="13.446" viewBox="0 0 194 13.446">
  <g id="Логотип_ХКФ_Банка" transform="translate(-0.077 -0.691)">
    <path id="Path_904" data-name="Path 904" d="M11.422,1.231V13.838H8.3V9.155H3.2V13.9H.077V1.292H3.2V6.334H8.3V1.292h3.121ZM47.436,13.837H44.315v-6.3l-2.821,4.322H39.753l-2.82-4.382v6.362H33.811V1.231h2.341l4.442,6.723,4.442-6.723h2.341V13.838ZM22.646.692a8.794,8.794,0,0,0-9,8.584,8.015,8.015,0,0,0,1.381,4.561h4.322a5.463,5.463,0,1,1,6.6,0h4.322A8.5,8.5,0,0,0,31.65,9.275a8.8,8.8,0,0,0-9-8.584Z" fill="#fff"/>
    <path id="Path_905" data-name="Path 905" d="M25.207,10.817a3.082,3.082,0,0,0,5.883,0ZM58.641,4.094V6.375h5.582V9.016H58.641v2.161H65v2.7H55.459V1.273H65v2.7H58.641Zm99.521,6.362c0,2.1-1.681,3.481-4.5,3.481H147.3V1.333h6c2.761,0,4.322,1.321,4.322,3.362a2.918,2.918,0,0,1-1.742,2.761,3,3,0,0,1,2.281,3Zm-7.743-6.543V6.555h2.342c1.2,0,1.86-.6,1.86-1.38s-.66-1.2-1.86-1.2h-2.342v-.06Zm4.682,6.123c0-.781-.661-1.2-1.8-1.2h-2.881v2.521h2.821C154.5,11.357,155.1,10.817,155.1,10.037Zm12.725,1.741h-5.342l-.84,2.16h-3.362l5.342-12.605h3l5.342,12.606h-3.362ZM166.806,9.2l-1.681-4.262L163.444,9.2Zm17.827-7.864V13.939h-2.4l-6.062-6.9v6.9h-3.121V1.333h2.4l6.062,7.083V1.333Zm7.623,7.924-1.86,2.16V14h-3.122V1.393H190.4V7.155l5.042-5.763h3.722l-4.8,5.522L199.579,14h-3.9ZM94.476,13.938l-2.4-3.662H89.734v3.662H86.553V1.333h5.522c3.122,0,5.222,1.681,5.222,4.442a4.284,4.284,0,0,1-2.1,3.782l2.941,4.382H94.476Zm-4.8-6.422h2.342c1.2,0,2.16-.66,2.16-1.681s-.961-1.681-2.16-1.681H89.674ZM102.82,4.094V6.375H108.4V9.016h-5.582v2.161h6.362v2.7H99.638V1.273h9.544v2.7h-6.362Zm20.349,3.541c0,3.722-2.821,6.362-6.783,6.362h-5.042V1.393h5.042C120.287,1.333,123.168,3.914,123.168,7.636Zm-3.182,0a3.462,3.462,0,0,0-3.6-3.421h-1.921v6.962h1.921a3.561,3.561,0,0,0,3.6-3.541Zm7.984-6.3V13.939h-3.122V1.332Zm12,2.821h-3.6v9.784h-3.121V4.154h-3.6V1.333h10.324ZM81.451,9.436A2.982,2.982,0,0,1,78.569,11.3a3.406,3.406,0,0,1-3.481-3.6,3.406,3.406,0,0,1,3.482-3.6,2.9,2.9,0,0,1,2.881,1.86h3.3a6.059,6.059,0,0,0-6.182-4.8A6.437,6.437,0,0,0,71.907,7.7a6.437,6.437,0,0,0,6.662,6.542,6.059,6.059,0,0,0,6.182-4.8h-3.3Z" transform="translate(-5.502 -0.101)" fill="#fff"/>
  </g>
</svg>
