<svg xmlns="http://www.w3.org/2000/svg" width="22.348" height="13.817" viewBox="0 0 22.348 13.817">
  <g id="Mastercard-logo" transform="translate(1565.623 -1106.749)" opacity="0.42">
    <g id="Group_258" data-name="Group 258" transform="translate(-1565.623 1106.748)">
      <g id="Group_255" data-name="Group 255" transform="translate(21.555 10.921)">
        <path id="Path_494" data-name="Path 494" d="M-4.625-2.129V-2.4h-.07l-.081.184-.08-.184h-.07v.268h.05v-.2l.076.174h.051l.076-.175v.2Zm-.443,0v-.222h.09V-2.4h-.228v.045h.09v.222Z" transform="translate(5.207 2.397)" fill="#f79410"/>
      </g>
      <path id="Path_495" data-name="Path 495" d="M3349.048,2158.435H3343v-10.863h6.044Z" transform="translate(-3334.852 -2146.093)" fill="#717171"/>
      <g id="Group_256" data-name="Group 256" transform="translate(0 0)">
        <path id="Path_496" data-name="Path 496" d="M-67.853-54.9a6.9,6.9,0,0,1,2.638-5.432,6.878,6.878,0,0,0-4.269-1.477A6.908,6.908,0,0,0-76.392-54.9a6.908,6.908,0,0,0,6.908,6.909,6.878,6.878,0,0,0,4.269-1.477A6.9,6.9,0,0,1-67.853-54.9" transform="translate(76.392 61.809)"/>
      </g>
      <g id="Group_257" data-name="Group 257" transform="translate(11.171 0)">
        <path id="Path_497" data-name="Path 497" d="M-88.824-54.9a6.908,6.908,0,0,1-6.908,6.909A6.88,6.88,0,0,1-100-49.469,6.9,6.9,0,0,0-97.362-54.9,6.9,6.9,0,0,0-100-60.332a6.881,6.881,0,0,1,4.27-1.477A6.908,6.908,0,0,1-88.824-54.9" transform="translate(100.001 61.809)" fill="#acacac"/>
      </g>
    </g>
  </g>
</svg>
