<svg id="Telegram_logo" xmlns="http://www.w3.org/2000/svg" xmlns:xlink="http://www.w3.org/1999/xlink" width="50" height="50" viewBox="0 0 50 50">
  <defs>
    <linearGradient id="linear-gradient" x1="0.667" y1="0.167" x2="0.417" y2="0.75" gradientUnits="objectBoundingBox">
      <stop offset="0" stop-color="#37aee2"/>
      <stop offset="1" stop-color="#1e96c8"/>
    </linearGradient>
    <linearGradient id="linear-gradient-2" x1="0.66" y1="0.437" x2="0.851" y2="0.802" gradientUnits="objectBoundingBox">
      <stop offset="0" stop-color="#eff7fc"/>
      <stop offset="1" stop-color="#fff"/>
    </linearGradient>
  </defs>
  <circle id="Ellipse_80" data-name="Ellipse 80" cx="25" cy="25" r="25" fill="url(#linear-gradient)"/>
  <path id="Path_1024" data-name="Path 1024" d="M85.333,99.792c-.81,0-.672-.306-.952-1.077L82,90.876,100.333,80" transform="translate(-64.917 -63.333)" fill="#c8daea"/>
  <path id="Path_1025" data-name="Path 1025" d="M98,150.781a1.6,1.6,0,0,0,1.25-.625l3.333-3.241-4.158-2.507" transform="translate(-77.583 -114.322)" fill="#a9c9dd"/>
  <path id="Path_1026" data-name="Path 1026" d="M59.569,87.228l10.075,7.444c1.15.634,1.979.306,2.266-1.067l4.1-19.326c.42-1.683-.642-2.447-1.742-1.948L50.188,81.617c-1.644.659-1.634,1.576-.3,1.985l6.18,1.929L70.375,76.5c.675-.41,1.3-.189.786.262" transform="translate(-38.727 -57.143)" fill="url(#linear-gradient-2)"/>
</svg>
