<svg xmlns="http://www.w3.org/2000/svg" width="162.446" height="44.505" viewBox="0 0 162.446 44.505">
  <g id="Group_450" data-name="Group 450" transform="translate(-56.446 -80.507)">
    <path id="Path_907" data-name="Path 907" d="M215.059,116.062v5.154h4.063a2.992,2.992,0,0,0,2.169-.694,2.531,2.531,0,0,0,.709-1.894,2.3,2.3,0,0,0-.826-1.9,3.239,3.239,0,0,0-2.1-.663Zm0-5.638v4.186h4.01a2.37,2.37,0,0,0,1.741-.615,2.037,2.037,0,0,0,.623-1.51,2.01,2.01,0,0,0-.57-1.5,2.34,2.34,0,0,0-1.71-.562Zm8.54,8.177a3.83,3.83,0,0,1-1.178,3.012,4.85,4.85,0,0,1-3.345,1.054h-5.512V108.973h5.608a4.277,4.277,0,0,1,2.794.871,3.337,3.337,0,0,1,.533,4.252,2.771,2.771,0,0,1-1.467,1.113v.063a3.337,3.337,0,0,1,1.02.421,3.155,3.155,0,0,1,.821.738,3.384,3.384,0,0,1,.536.991,3.585,3.585,0,0,1,.189,1.18Zm8.015-.331a7.147,7.147,0,0,0-1.257-.568,4.78,4.78,0,0,0-1.508-.21,2.687,2.687,0,0,0-1.7.537,1.841,1.841,0,0,0-.691,1.546,1.957,1.957,0,0,0,.587,1.536,2.464,2.464,0,0,0,1.7.526,3.66,3.66,0,0,0,1.561-.442,5.537,5.537,0,0,0,1.31-.968v-1.956Zm-2.209-6.058a4.062,4.062,0,0,1,2.745.831,3.122,3.122,0,0,1,.957,2.492v7.131h-1.494v-1.01h-.042a4.227,4.227,0,0,1-1.63.968,5.631,5.631,0,0,1-1.546.232,4.326,4.326,0,0,1-1.22-.179,3.249,3.249,0,0,1-1.1-.566,2.883,2.883,0,0,1-.8-1,3.291,3.291,0,0,1-.3-1.488,3.188,3.188,0,0,1,.284-1.363,2.977,2.977,0,0,1,.8-1.038,3.65,3.65,0,0,1,1.22-.66,4.95,4.95,0,0,1,1.546-.23,7.07,7.07,0,0,1,1.357.134,5.08,5.08,0,0,1,1.441.547v-1.272a2.226,2.226,0,0,0-.6-1.729,2.591,2.591,0,0,0-1.791-.541,4.994,4.994,0,0,0-1.4.19,8.247,8.247,0,0,0-1.3.5l-.5-1.17a8.87,8.87,0,0,1,1.557-.569,7.139,7.139,0,0,1,1.83-.217Zm14.052,10.455h-1.494V116.5a3.7,3.7,0,0,0-.568-2.22,2.151,2.151,0,0,0-1.852-.768,2.308,2.308,0,0,0-1.62.621,3.065,3.065,0,0,0-.9,1.5,3.726,3.726,0,0,0-.1.9v6.122h-1.494V112.4h1.494v1.451l.042.021a3.333,3.333,0,0,1,1.4-1.272,3.827,3.827,0,0,1,1.615-.389,3.2,3.2,0,0,1,2.631,1.041,4.679,4.679,0,0,1,.849,3.018v6.4m5.133-5.511,4.649-4.734h-1.7l-4.417,4.544V108.11l-1.494.673v13.884h1.494v-5.238l4.46,5.238h1.788l-4.776-5.511m-103.825-6.748h4v12.254h2.854V110.408h3.865v-2.391H144.765v2.391m38.977,2.028H180.61l-3.681,4.363v-8.468l-2.725.988v13.343h2.725v-5l3.595,5h3.24l-4.043-5.5,4.022-4.724m7.463,6.341a3.44,3.44,0,0,1-.434,1,2.056,2.056,0,0,1-.707.672,1.916,1.916,0,0,1-.968.242,1.953,1.953,0,0,1-1.7-.829,4.005,4.005,0,0,1-.588-2.343,4.061,4.061,0,0,1,.565-2.224,1.843,1.843,0,0,1,1.653-.882,1.957,1.957,0,0,1,1.738.871,4,4,0,0,1,.587,2.279,4.72,4.72,0,0,1-.151,1.217m1.507-5.144a4.378,4.378,0,0,0-1.587-1.06,5.762,5.762,0,0,0-4.057,0,4.548,4.548,0,0,0-1.6,1.049,4.724,4.724,0,0,0-1.036,1.68,6.555,6.555,0,0,0-.366,2.259,6.434,6.434,0,0,0,.357,2.2,4.787,4.787,0,0,0,1,1.681,4.423,4.423,0,0,0,1.564,1.071,5.377,5.377,0,0,0,2.061.377,5.5,5.5,0,0,0,2.029-.367,4.5,4.5,0,0,0,1.6-1.06,4.906,4.906,0,0,0,1.047-1.691,6.339,6.339,0,0,0,.379-2.258,6.259,6.259,0,0,0-.369-2.2,4.847,4.847,0,0,0-1.024-1.68m-34.477-5.616a1.617,1.617,0,0,0-1.171.463,1.533,1.533,0,0,0-.469,1.121,1.512,1.512,0,0,0,.469,1.1,1.611,1.611,0,0,0,1.171.462,1.588,1.588,0,0,0,1.136-.462,1.481,1.481,0,0,0,.482-1.1,1.5,1.5,0,0,0-.482-1.121,1.594,1.594,0,0,0-1.136-.463m-1.385,14.645H159.6V112.411h-2.747Zm11.242-10.346a4.229,4.229,0,0,0-3.126.944v-.844h-2.747v10.246h2.747v-6.106a1.937,1.937,0,0,1,3.872,0v6.106h2.745V116.6c0-3.214-1.866-4.162-3.492-4.282m28.626-.112v.19H195.07v2.1h1.647v8.168h2.746s0-4.916,0-8.168h1.64v-2.1h-1.639v-.214c0-1.414.662-2.11,1.959-1.906l.427-2.12c-4.177-.5-5.135,1.725-5.135,4.051m7.086,0v.19h-1.646v2.1H203.8v8.168h2.748v-8.168h1.641v-2.1h-1.639v-.214c0-1.414.662-2.11,1.958-1.906l.429-2.12c-4.177-.5-5.136,1.725-5.136,4.051" transform="translate(-34.473 -10.738)" fill="#fff"/>
    <path id="Path_908" data-name="Path 908" d="M69.328,119.511l-.549.931a11.875,11.875,0,0,0-.779-1.7,1.676,1.676,0,0,1-1.8.929c.148-2.171-2.578-4.354-1.38-6.831a1.008,1.008,0,0,0-.432-1.361c-1.829-.929-.982,2.925-2.81,3.041a4.867,4.867,0,0,0,.535-1.432c-.389.1-1.321.693-1.739-.065a3.014,3.014,0,0,0,1.543-2.335,8.965,8.965,0,0,1,.527-2.083,11.65,11.65,0,0,1,1.358-1.913,9.158,9.158,0,0,1-2.7.245c3.556-2.184,2.755-4.962,8.179-7.437-1.422-1.056-2.877-1.9-1.834-3.917,1.486,1.785,4.31,1.168,5.835.338a5.586,5.586,0,0,1-3.91-3.106c.569-.088,1.3.528,1.728.815.2-.545.285-1.18.946-1.318-.881,1.888.861,2.87,2.522,2.878.257,0,1.332-.107,1.332-.107-.171-.354-.866-1.318-.36-1.709A16.744,16.744,0,0,0,76.865,94.4c3.23,2.5-1.536,4.818-3.486,5.869-3.06,1.653-2.241,3.62-.963,4.123-.005.224-.143.322-.355.391-.894.3-1.733-.339-2.446-.748.043,1.234-.041,2.42,1.322,3.1l-.94.344a3.539,3.539,0,0,0,2.028,1.066,4.4,4.4,0,0,1-1.5.262A3.593,3.593,0,0,0,71,109.915c-1.992.236-2.789-.9-3.405-.854-1.314.1-1.232,2.571,2,2.575l-.335.553a3.684,3.684,0,0,0,1.174.427c-.215.174-.423.408-.6.588l.516.444c-1.319.237-1.694-1.167-2.549-.49-1.306,1.035,1.573,3.219,4.334,2.893a8.958,8.958,0,0,1-1.161.961c2.25,2.125,1.14,4.126,2.066,5.591a4.075,4.075,0,0,1-3.712-3.092m2.529-2.39c.624-.5,1.14-.744,1.116-1.941-.937.478-3.6.453-4.707-1.077-.315-.434.021-.653.325-.311.76.862,2.168.471,2.682.222a2.025,2.025,0,0,0-.5-.847c.192-.19.736-.471.848-.956a6.768,6.768,0,0,0-1.42-.271.974.974,0,0,0,.273-1.063,3.239,3.239,0,0,1-2.9-.554c-.318-.419.007-.812.273-.536.574.6,3.405,1.295,4.459.246a1.568,1.568,0,0,1-.9-.673,1.846,1.846,0,0,0,1.816-1.39,4.338,4.338,0,0,1-1.9-.3,1.2,1.2,0,0,0,.909-.865c-1.782-.108-1.923-1.432-1.932-1.651,1.16.669,3.2.373,2.675-1.276-.963-.051-1.938-1.614.718-3.051,2.412-1.3,5.158-2.713,4.916-5.032-.159-1.482-2.6-2.5-2.912-3.247-1.019.485-1.226,1.049-.766,1.992,0,0-2.27.226-2.45-1.172a2.139,2.139,0,0,1,.79-1.662c-.254,0-1.966-.458-2.482.936a1.7,1.7,0,0,0-2.427.06c1.032.613,1.671,2.712,3.376,3.332A3.247,3.247,0,0,1,67.41,94.4c-1.083,1.632-1.706,3.248.616,4.973-4.227,1.925-4.2,5.6-7.873,7.353.374,1,1.16,1,2.161.845-1.59,2.066-.235,4.227-2.751,5.111.235.842.707,1.513,1.636,1.268-.265.412-.438.4-.849.856,1.375.866,3.007.238,3.376-2.54.066-.5.75-.186.513.3-1.568,3.243,2.4,5.682.994,8.061a4.943,4.943,0,0,0,2.7-.566,2.671,2.671,0,0,1,.349,1.481,1.083,1.083,0,0,0,.979-1.005c.448,1.3,2.049,2.7,4.611,2.7-1.359-1.935-.094-3.9-2.013-6.113" transform="translate(-1.217 -4.344)" fill="#d0d5d6"/>
    <path id="Path_909" data-name="Path 909" d="M67.828,114.672c.466.487,1.033.537,2.108.469-1.18-.142-1.842-.429-2.253-1.213a11.4,11.4,0,0,1-.118-1.3,9,9,0,0,1,1.23-4.339,3.033,3.033,0,0,0,2.6,2.878,3.192,3.192,0,0,1-2.047-3.834q.534-.852,1.14-1.656c.213-.273.42-.535.623-.779-.218.785.732,1.6,1.368,1.731-.345-.336-1.083-1.428.622-3.253a7.764,7.764,0,0,0-1.4.856c3.1-3.351,5.648-3.444,6.819-5.129-1.7,1.159-6.185,1.785-8.2,1.237,1.113.744,3.8.676,4.452.538-2.188,2.127-6.965,4.323-7.792,6.278a5.573,5.573,0,0,1,2.923-1.84,19.414,19.414,0,0,0-2,3.434c-1.271,2.76-2.97,2.795-3.082,5.072.58-1.764,1.756-2.211,2.572-3.37a11.39,11.39,0,0,0-.185,2.508,7.808,7.808,0,0,0,.562,2.744,5.528,5.528,0,0,0,1.308,4.316,5.819,5.819,0,0,1-.987-3.617c1.01,1.949,3.89,4.64,5.282,6.45-1.392-2.327-4.8-5.045-5.536-8.182M99.7,105.318a5.585,5.585,0,0,1,2.922,1.84c-.825-1.955-5.606-4.152-7.794-6.279.658.138,3.34.207,4.454-.537-2.015.547-6.506-.078-8.2-1.237,1.172,1.685,3.718,1.779,6.82,5.129a7.706,7.706,0,0,0-1.4-.856c1.7,1.825.968,2.915.622,3.253.636-.135,1.585-.945,1.368-1.731.2.244.412.507.623.779.427.563.8,1.118,1.139,1.656a3.2,3.2,0,0,1-2.045,3.834,3.026,3.026,0,0,0,2.592-2.878,8.972,8.972,0,0,1,1.231,4.339,11.415,11.415,0,0,1-.117,1.3c-.413.783-1.075,1.071-2.251,1.213,1.072.068,1.635.018,2.107-.469-.733,3.137-4.146,5.854-5.538,8.182,1.392-1.81,4.27-4.5,5.282-6.45a5.827,5.827,0,0,1-.985,3.617,5.539,5.539,0,0,0,1.306-4.317,7.89,7.89,0,0,0,.561-2.743,11.138,11.138,0,0,0-.185-2.508c.816,1.159,1.992,1.606,2.572,3.37-.11-2.277-1.81-2.312-3.083-5.072a19.211,19.211,0,0,0-2-3.434" transform="translate(-3.266 -7.259)" fill="#d0d5d6"/>
    <path id="Path_910" data-name="Path 910" d="M114.636,113.089a4.69,4.69,0,0,0,.529,1.432c-1.829-.116-.98-3.971-2.809-3.042a1.006,1.006,0,0,0-.43,1.361c1.2,2.476-1.53,4.66-1.377,6.831a1.681,1.681,0,0,1-1.81-.929,12.014,12.014,0,0,0-.777,1.7l-.547-.931A4.08,4.08,0,0,1,103.7,122.6c.92-1.466-.185-3.466,2.065-5.591a8.851,8.851,0,0,1-1.161-.961c2.762.326,5.641-1.858,4.333-2.893-.854-.677-1.231.727-2.547.49l.516-.444c-.18-.18-.391-.413-.6-.588a3.663,3.663,0,0,0,1.174-.427l-.335-.553c3.235,0,3.312-2.477,2-2.575-.615-.047-1.416,1.091-3.406.855a3.754,3.754,0,0,0,.479-1.111,4.411,4.411,0,0,1-1.5-.262,3.54,3.54,0,0,0,2.027-1.066l-.937-.344c1.361-.679,1.278-1.866,1.318-3.1-.71.41-1.553,1.047-2.443.748-.212-.069-.351-.167-.356-.391,1.278-.5,2.093-2.469-.963-4.123-1.949-1.052-6.717-3.37-3.486-5.87a16.778,16.778,0,0,0,1.33-1.024c.507.391-.186,1.355-.36,1.709,0,0,1.074.108,1.329.108,1.666-.009,3.411-.992,2.528-2.879.661.138.739.772.941,1.318.425-.287,1.161-.9,1.731-.815a5.584,5.584,0,0,1-3.91,3.106c1.523.83,4.348,1.447,5.833-.338,1.043,2.019-.41,2.861-1.834,3.918,5.424,2.475,4.624,5.251,8.182,7.436a9.237,9.237,0,0,1-2.706-.245,11.5,11.5,0,0,1,1.363,1.913,9.06,9.06,0,0,1,.523,2.083,3.022,3.022,0,0,0,1.544,2.334c-.418.759-1.349.168-1.733.066m-.212-5.519c1,.155,1.788.155,2.161-.846-3.677-1.751-3.646-5.427-7.874-7.351,2.323-1.725,1.7-3.34.619-4.973a3.247,3.247,0,0,1-4.319,1.639c1.7-.62,2.344-2.719,3.374-3.332a1.7,1.7,0,0,0-2.427-.06c-.521-1.4-2.228-.936-2.484-.936a2.144,2.144,0,0,1,.791,1.662c-.177,1.4-2.448,1.173-2.448,1.173.457-.945.254-1.508-.765-1.994-.313.752-2.753,1.764-2.91,3.246-.244,2.32,2.5,3.728,4.914,5.033,2.655,1.437,1.68,3,.719,3.051-.533,1.649,1.511,1.945,2.672,1.276-.005.219-.152,1.543-1.934,1.651a1.2,1.2,0,0,0,.911.866,4.368,4.368,0,0,1-1.9.3,1.848,1.848,0,0,0,1.817,1.388,1.567,1.567,0,0,1-.9.675c1.053,1.049,3.882.358,4.458-.246.263-.276.587.117.274.535a3.242,3.242,0,0,1-2.9.554.982.982,0,0,0,.271,1.063,6.753,6.753,0,0,0-1.419.271c.11.485.657.766.849.956a2.036,2.036,0,0,0-.5.847c.516.249,1.925.64,2.68-.222.308-.342.642-.124.33.311-1.113,1.53-3.771,1.554-4.71,1.077-.026,1.2.491,1.444,1.116,1.941-1.92,2.213-.652,4.177-2.011,6.112,2.559,0,4.161-1.4,4.61-2.7a1.084,1.084,0,0,0,.978,1.005,2.716,2.716,0,0,1,.347-1.481,4.961,4.961,0,0,0,2.7.566c-1.4-2.379,2.566-4.818.994-8.061-.234-.487.449-.8.515-.3.368,2.778,2,3.406,3.378,2.54-.415-.453-.585-.444-.849-.856.926.246,1.4-.426,1.637-1.268-2.517-.884-1.163-3.045-2.753-5.111m-25.6,10.118.756-.574a.466.466,0,0,1,.375-.147l1.065.14a1.736,1.736,0,0,0,.228.506l-1.133-.239a.391.391,0,0,0-.358.1l-.536.405a.268.268,0,0,0-.049.344l.087.187-.376.283-.143-.27c-.146-.288-.155-.551.084-.733m1.731-2-.2.1c-.135.079-.2.114-.323-.034l-.086-.107a.223.223,0,0,1,.032-.273l.843-.985-.778-.638.991.365.362-.452c.106.091.069.352.069.352a2.012,2.012,0,0,1,1.611,2.029.964.964,0,0,0,.6.41l1.716.1a2.3,2.3,0,0,1,1.91-.029,1.834,1.834,0,0,1,.733-.279,2.223,2.223,0,0,1,1.84,1.066q.393.51.765,1.036c-.19.226-.378.3-.535.244a.791.791,0,0,1-.39-.579,1.869,1.869,0,0,0-.584-.782,3.611,3.611,0,0,1,.265.9c-.67-.663-.8-1.475-1.266-1.585a.688.688,0,0,0-.674.3c.237.547.226,1.185.467,1.609.184.319.222.347.305.417.2.142.085.4.055.583l-.254,1.594H97.6l.282-1.56c.086-.474-1.248-.474-1.931-1.38-.582.679-2.214.509-2.92.4a.626.626,0,0,0-.719.257c-.091.159-.246.111-.339.088l-1.287-.278a.308.308,0,0,0-.424.2l-.258.533a.241.241,0,0,0,.048.315l.123.131a1.057,1.057,0,0,1-.306.451l-.282-.316a.561.561,0,0,1-.034-.619l.416-.868a.334.334,0,0,1,.313-.2l1.593-.026-.488-.794c-.364-.6.239-1.658.149-2.16-.045.673-.857.365-.984.457m6.628,3.672-.687,1.694h-.427l.686-1.641c.071-.211-.063-.311-.235-.543a4.975,4.975,0,0,0,.747.357.852.852,0,0,0-.084.132m-8.382-.192.773-.655-.118-.237c-.084-.166-.039-.179.051-.244l.406-.3a.325.325,0,0,1,.312-.041l1.225.288H90.16a.5.5,0,0,0-.493.355l-.09.183-.333.683a.773.773,0,0,0,.125.9l.235.278-.476.966h.4l.329-.671a2.175,2.175,0,0,0,.616-.928c-.139-.113-.24-.193-.162-.354l.15-.319c.048-.107.065-.151.207-.121l1.288.279a.446.446,0,0,0,.567-.144c.177-.27.2-.24.609-.2l.657.069a3.46,3.46,0,0,0,2.143-.416,8.381,8.381,0,0,0,.478.709c.041.08-.027.194-.084.335l-.737,1.761h1.136l.644-1.61a.92.92,0,0,1,.214-.335l-.369,1.944h1.1l.294-1.927c.064-.426.026-.565-.179-.74-.461-.388-.45-1.2-.6-1.7a.441.441,0,0,1,.277-.055c.241.024.421.637.7,1.031.563.794,1.337,1.67,2.22.436a2.917,2.917,0,0,0-.286-.391l-.246-.288c-.143-.16-.828-.942-1.111-1.224a1.66,1.66,0,0,0-2.038-.237,3.056,3.056,0,0,0-2.067.006l-1.545-.093a.3.3,0,0,1-.252-.148l.286-.094A2.624,2.624,0,0,0,91.65,113.7s-.069-.354-.248-.422l-.352.416a1.151,1.151,0,0,0-.3.082l-1.506-.56,1.131,1.142s-.587.83-.754,1a.3.3,0,0,0,.024.426l.22.288c.114.148.237.143.418.05l.248-.129c.106-.091.471.088.625-.054a4.53,4.53,0,0,0-.172.886l-1.015-.123a.516.516,0,0,0-.459.106l-.865.666a.752.752,0,0,0-.2.957l.349.73m3.3-21.919a7.913,7.913,0,0,0,1.144.59v-.487l-1.608-.616s0,.2.464.512m1.144-.587v-.482l-1.825-.653a4.52,4.52,0,0,0,.682.55,7.783,7.783,0,0,0,1.144.585m0-1.1v-.488l-2-.735s.391.317.855.633a7.912,7.912,0,0,0,1.144.59" transform="translate(-12.458 -4.344)" fill="#d0d5d6"/>
    <path id="Path_911" data-name="Path 911" d="M98.036,103.911h2.045a.949.949,0,0,0-1-.6,1.15,1.15,0,0,0-1.045.6M95.9,96.066,93.9,96.8v.488a7.7,7.7,0,0,0,1.142-.59c.465-.316.853-.633.853-.633m-.388,2.4-1.607.616v.487a7.891,7.891,0,0,0,1.143-.59c.465-.315.465-.512.465-.512m.216-1.21-1.824.653v.482a7.67,7.67,0,0,0,1.143-.585,4.448,4.448,0,0,0,.681-.55m-8.488,6.063a.943.943,0,0,0-1,.6h2.044a1.154,1.154,0,0,0-1.047-.6" transform="translate(-11.63 -6.073)" fill="#d0d5d6"/>
    <path id="Path_912" data-name="Path 912" d="M91.608,93.593l-3.282-1.3c.278-.66,1.566-1.223,3.282-1.223s3,.563,3.281,1.223Zm2.444,4.053-2.214,1.163v-4.7l3.007-1.022-.793,4.559Zm2.587,1.96c-.831.144-1.542,1.16-2.128,2.073l-.066.106h-.623v.108a2.027,2.027,0,0,1-2.216,1.664,2.421,2.421,0,0,1-1.552-.494,1.819,1.819,0,0,1-.593-.851,1.475,1.475,0,0,1-.067-.319l0-.108h-.619l-.066-.106c-.588-.913-1.3-1.928-2.127-2.073l2.258-1.31L91.608,99.8l2.77-1.507Zm3.044,3.457a5.569,5.569,0,0,0-.428,1.953V112.2h-.835a4.883,4.883,0,0,1-.7-1.593,1.991,1.991,0,0,0,.253,1.593H96.9a6.309,6.309,0,0,1-.5-1.635c-.321.366-.118,1.36.082,1.635h-.714a3.6,3.6,0,0,1,.1-1.066c-.372-.069-.771-.266-.769-.683a.557.557,0,0,0,.527.171l.3-.24c-1.009.032-1.054-1.073-.257-1.591-.8.026-1.394-.448-1.1-1.3a1.169,1.169,0,0,1-.349-1.677,1.431,1.431,0,0,1-.16-1.419,1.58,1.58,0,0,1-1.107-.436.519.519,0,0,1-.063.023,2.805,2.805,0,0,0,1.217-.921Zm-.426,14.266a3.549,3.549,0,0,1-1.842,3.267l.413-.84h-.4l-.529,1.074a5.218,5.218,0,0,1-1.859.321c-2.1,0-2.656.086-3.431.86-.78-.774-1.335-.86-3.431-.86a5.3,5.3,0,0,1-1.852-.316h.016l.529-1.08h-.4l-.465.944q-.165-.078-.323-.17l.383-.774h-.4l-.285.577a3.585,3.585,0,0,1-1.429-3V112.62h15.3v4.709Zm-10.414-8.6.646.079a2.137,2.137,0,0,1-.275,1.287l-.624-.181A4,4,0,0,0,88.843,108.729Zm-.928-.473a3.364,3.364,0,0,1,.758.035c.124.051.04.258-.118.236A3.369,3.369,0,0,1,87.915,108.256Zm-.04-2.351-.53,1.941.181-3.128.824-.7.419.92L87.71,107.97l.279-2.045c.027-.143-.09-.159-.113-.02Zm-.408,3.233c-.279.113-.563-.039-.476-.22.129.119.49.061.49.061Zm-.523.259c.128.125.518.078.518.078l.015.077C87.307,109.778,86.836,109.677,86.944,109.4Zm-.611-1.248a.17.17,0,0,1,.084-.316c.18,0,.421.209.66.312a2.3,2.3,0,0,1-.743,0Zm.591,1.718a1.412,1.412,0,0,0,.4.094.234.234,0,0,1-.274.209A.218.218,0,0,1,86.925,109.867Zm.419-1.171a.291.291,0,0,1-.418-.3,1.007,1.007,0,0,1,1.019.034c.159.1.288.381.5.559a4.764,4.764,0,0,1-.2.822.627.627,0,0,1-.406-1.006.4.4,0,0,0-.5-.106Zm2.6.172.643.076a2.538,2.538,0,0,1-.3,1.461l-.655-.189A2.11,2.11,0,0,0,89.946,108.868Zm1.1.135.53.067a2.6,2.6,0,0,1-.251,1.635l-.618-.18A2.527,2.527,0,0,0,91.05,109Zm.95.118h.012a.782.782,0,0,0,.415-.057,2.056,2.056,0,0,1,.166,1.925,2.05,2.05,0,0,1-.564-.082l-.143-.043A2.471,2.471,0,0,0,92,109.121Zm.81-.313.375-.368a2.051,2.051,0,0,1,.729,1.791l-.41.374a1.412,1.412,0,0,1-.26.2A2.238,2.238,0,0,0,92.81,108.808Zm2.206.211a1.237,1.237,0,0,0-.193.377l-.457.421a2.2,2.2,0,0,0-.767-1.781l.487-.476.1.1A1.121,1.121,0,0,0,95.016,109.019ZM93.8,105.787a1.477,1.477,0,0,0,.066,1.466l-.187.184c-.819-.1-1.142-1.322-1.142-1.322a2.083,2.083,0,0,0-.024.325,1.142,1.142,0,0,1-.756-1.183,1.9,1.9,0,0,0,.6.211l.055-.358a1.248,1.248,0,0,1-1.035-.879l-.076-.013c.1.009.2.017.306.017a3.425,3.425,0,0,0,.963-.141,1.58,1.58,0,0,0,1.083.628A1.733,1.733,0,0,0,93.8,105.787Zm-4.7-2.725a2.952,2.952,0,0,0,1.795,1.1,1.544,1.544,0,0,0,.521.849,1.513,1.513,0,0,0,1.139,1.833,1.186,1.186,0,0,0,.8.9l-.628.726a.918.918,0,0,1-.813.335l-2.806-.319c.121-.312-.2-.674-1.089-.519l1.1-3.083-.674-1.432-1.275,1.088-.094,3.236-.541-.267c-.715-.306-.922.98-.244.986l.268,0a.3.3,0,0,0,.127.323.22.22,0,0,0,0,.379.265.265,0,0,0-.054.427.584.584,0,0,0,.329.883c.4.107.654-.328.738-.579l4.365,1.352a1.486,1.486,0,0,0,1.572-.372l1.139-1a1.184,1.184,0,0,0,.587,1.433,5.872,5.872,0,0,0-.048.847H83.959v-7.182a5.674,5.674,0,0,0-.424-1.953h5.572Zm-.737-9.976,3,1.022v4.7l-2.212-1.163-.792-4.559Zm7.3-.559c0-1.15-1.931-2.18-4.061-2.18s-4.063,1.03-4.063,2.18l.045.279.847,4.883-4.026,2.347a2.4,2.4,0,0,0-1.035,1.642h.735a1.634,1.634,0,0,1,1.7-1.422,2.592,2.592,0,0,1,2.026,1.422l.141.214.2.319H82.26a6.4,6.4,0,0,1,.849,2.8v12.313c0,3.168,2.434,4.676,5.069,4.676,2.034,0,2.308-.091,3.431,1.03C92.729,121.913,93,122,95.041,122c2.634,0,5.068-1.508,5.068-4.676V105.016a6.378,6.378,0,0,1,.846-2.8H95.03l.205-.319.141-.214a2.584,2.584,0,0,1,2.025-1.422,1.634,1.634,0,0,1,1.7,1.422h.734a2.4,2.4,0,0,0-1.032-1.642l-4.026-2.347.849-4.883Z" transform="translate(-10.076 -3.841)" fill="#d0d5d6"/>
    <path id="Path_913" data-name="Path 913" d="M101.914,105.161l0-.36c-1.1-.026-1.358-1.33-1.358-1.33a1.328,1.328,0,0,0,1.353,1.691m-1.4,2.206-.112-.341c-.941.241-1.426-1.252-1.426-1.252a1.27,1.27,0,0,0,1.538,1.593m.654-1.384c-1.125.179-1.588-1.131-1.588-1.131a1.273,1.273,0,0,0,1.081,1.513.987.987,0,0,0,1.446,1.075l-.108-.323a.73.73,0,0,1-.831-1.134m-.674-3.737.009-.359c-1.485-.308-1.36-1.33-1.36-1.33a1.325,1.325,0,0,0,1.35,1.689m-9.413,14.968-.533,1.08h.4l.532-1.08h-.4m.8,0-.531,1.08h.4l.527-1.08h-.4m3.217,0-.529,1.08h.4l.532-1.08h-.4m.807,0-.535,1.08h.4l.529-1.08h-.4m-1.61,0-.533,1.08h.4l.531-1.08h-.4m4.7,1.08h.4l.532-1.08h-.4l-.53,1.08m-6.306-1.08-.53,1.08h.4l.53-1.08h-.4m.8,0-.53,1.08h.4l.53-1.08h-.4m-1.819-5.8a.165.165,0,1,0,.14.165.154.154,0,0,0-.14-.165m-.162-24.927.631-1.342,1.175.623,1.294-1.278,1.3,1.278,1.172-.623.627,1.342.778-.121A6.123,6.123,0,0,0,98,87.529a6.946,6.946,0,0,0-6.769,0,6.048,6.048,0,0,0-.491-1.161Zm3.1.588a6.048,6.048,0,0,1,3.7,1.134,7.386,7.386,0,0,1,.956-2.459l-1.327.149-.7-1.478-1.336.694-1.295-1.286L93.32,85.117l-1.339-.694-.7,1.478-1.327-.149a7.315,7.315,0,0,1,.955,2.459A6.051,6.051,0,0,1,94.615,87.076Z" transform="translate(-13.081 -1.297)" fill="#d0d5d6"/>
    <path id="Path_914" data-name="Path 914" d="M96.352,84.156a.353.353,0,0,0,.38-.321,2.2,2.2,0,0,0-.263-.707s-.422.454-.435.649a.352.352,0,0,0,.318.379m2.176.79A.351.351,0,0,0,99,84.8a2.171,2.171,0,0,0,.032-.751s-.562.252-.654.424a.357.357,0,0,0,.146.476m-4.891-.79a.351.351,0,0,0,.321-.379c-.017-.194-.435-.649-.435-.649a2.215,2.215,0,0,0-.263.707.351.351,0,0,0,.377.321m-2.174.79a.351.351,0,0,0,.144-.476c-.09-.172-.652-.424-.652-.424a2.158,2.158,0,0,0,.035.751.348.348,0,0,0,.472.149M115.541,97.17a2.353,2.353,0,0,1-.252,2.272,9.512,9.512,0,0,0-2.7-3.445c-.189-.121.1-.339.633-.408a10.291,10.291,0,0,1,4.382.614,2.311,2.311,0,0,1-1.18.505,7.251,7.251,0,0,1,1.461,1.521c-.633.157-.986-.242-2.343-1.059m2.024-.263a1.881,1.881,0,0,0,1-1.016c-1.179-.171-4.313-1.486-6.889-.415.965-.917,1.83-1.035,1.911-2.352a.932.932,0,0,0,1.458-.237c-.265-.786-.937-.149-1.03-.366-.132-.3.846.094,1.056-.925-.761-.262-.988.36-1.124.216s.483-.4.035-1.221c-.793.463-.379.985-.546,1.042-.2.082-.044-.557-.918-.527-.086.939.823.97.672,1.119-.178.183-.415-.541-1.077-.174a.976.976,0,0,0,1.261,1c-.1,1.442-1.425,1.174-2.411,2.8,2.086,1.069,3.029,2.936,4.313,4.223a7.381,7.381,0,0,0,1.15-1.638,1.685,1.685,0,0,0,2.367,0c-.479-.49-.5-.861-1.228-1.529M94.609,122.492l-.9-.034-.1.363.113,0c.037,0,.037-.07.07-.109a.832.832,0,0,1,.312-.027l.379.029c-.224.464-.807.9-.8,1.208.009.164.175.2.273.192.182-.005.241-.135.288-.332.109-.457.331-.807.491-1.329l-.112,0-.007.03m.616.539.015-.278h.785l-.041-.311c-.215.007-.53.077-.821.079l-.053.607c.364-.016.6.143.6.524,0,.141-.093.408-.257.427a.167.167,0,0,1-.112-.027c-.079-.059.024-.123.024-.222a.173.173,0,0,0-.215-.155.181.181,0,0,0-.185.2c0,.224.332.286.476.286.322,0,.694-.179.694-.544,0-.48-.537-.58-.913-.59m1.883.248c-.279,0-.319-.436-.319-.647,0-.06.055-.144.116-.144.255,0,.326.593.346.76a.4.4,0,0,1-.143.031m-.177-.874a.5.5,0,0,0-.512.5.551.551,0,0,0,.846.429c.045.351-.027.6-.16.612-.114,0-.1-.085-.114-.157a.176.176,0,0,0-.249-.138.166.166,0,0,0-.115.215c.052.179.273.183.377.169a.715.715,0,0,0,.657-.777.766.766,0,0,0-.73-.851m-3.86-.093a3.479,3.479,0,0,1-.652.6l.034.063c.046-.026.119-.06.246-.135l-.246.857c-.013.047-.07.052-.1.047l-.147-.022-.027.1.8.143.024-.1-.137-.032a.072.072,0,0,1-.059-.086l.363-1.425-.1-.015" transform="translate(-13.463 -1.023)" fill="#d0d5d6"/>
    <path id="Path_915" data-name="Path 915" d="M86.472,128.1l-.707-2.3a20.92,20.92,0,0,0,3.356-.941V126.3l1.243.5a20.324,20.324,0,0,1-3.892,1.306m-4.113,1.345a16.844,16.844,0,0,1-3.952-.5l.747-2.411a19.448,19.448,0,0,0,6.409,0l.748,2.411a16.912,16.912,0,0,1-3.952.5M74.349,126.8l1.246-.5v-1.436a20.9,20.9,0,0,0,3.356.941l-.705,2.3a20.559,20.559,0,0,1-3.9-1.306m15.157-.8v-1.76a16.128,16.128,0,0,1-5.318,1.33l-.1.629c.19.026.429.05.75.07a18.178,18.178,0,0,1-4.953,0q.375-.021.747-.07l-.1-.629a16.107,16.107,0,0,1-5.319-1.33V126l-1.845.758a22.356,22.356,0,0,0,4.757,1.76l-.214.737a16.405,16.405,0,0,0,8.9,0l-.215-.737a22.38,22.38,0,0,0,4.76-1.76L89.506,126m-30.037-22.99a7.065,7.065,0,0,1,1.463-1.519,2.333,2.333,0,0,1-1.183-.507,10.315,10.315,0,0,1,4.385-.614c.527.07.825.287.632.408a9.507,9.507,0,0,0-2.7,3.443,2.357,2.357,0,0,1-.249-2.271c-1.355.817-1.71,1.216-2.344,1.059m1.458.2a7.408,7.408,0,0,0,1.149,1.638c1.285-1.288,2.23-3.154,4.314-4.223-.986-1.624-2.311-1.352-2.407-2.8a.979.979,0,0,0,1.259-1c-.664-.363-.9.359-1.079.174-.149-.152.76-.18.672-1.119-.875-.027-.713.608-.92.526-.164-.059.248-.58-.547-1.042-.446.825.164,1.082.037,1.221s-.364-.477-1.122-.216c.2,1.02,1.186.627,1.054.925-.093.216-.763-.419-1.027.367a.929.929,0,0,0,1.453.237c.083,1.322.948,1.431,1.915,2.351-2.575-1.072-5.71.243-6.893.415a1.878,1.878,0,0,0,1,1.012c-.729.674-.746,1.044-1.226,1.531a1.683,1.683,0,0,0,2.366,0m20.3-.98V103a.973.973,0,0,1,.784-.259v1.116a1.673,1.673,0,0,1-.212.789h1.117a1.68,1.68,0,0,1-.213-.789v-1.116a.969.969,0,0,1,.783.259v-.775H81.229" transform="translate(-0.826 -5.802)" fill="#d0d5d6"/>
    <path id="Path_916" data-name="Path 916" d="M106,96.761a2.511,2.511,0,0,1-.329-.442q-.094-.146-.193-.29a3.064,3.064,0,0,0,.485-.773l.5-1.138-1.229-.177c-.208-.03-.542-.118-.932-.221a18.329,18.329,0,0,0-2.776-.562,1.878,1.878,0,0,0,.88-.828l.2-.364s-.054-.51-.252-.671a2.258,2.258,0,0,0,.174-.522l.166-.815-.785-.269a2.131,2.131,0,0,0-.365-.092,2.5,2.5,0,0,0-.2-.473l-.466-.855-.841.493a2.259,2.259,0,0,0-.529.42,2.213,2.213,0,0,0-.4-.035,2.48,2.48,0,0,0-1.01.138l-.679-.7-.8-.857a2.472,2.472,0,0,0-2.8-.646,2.664,2.664,0,0,0-1.971-.722,5.722,5.722,0,0,0-.778.062,4.713,4.713,0,0,0-2.06.944l-.9-.428a3.2,3.2,0,0,1-1.635,1.25,2.233,2.233,0,0,0-.362-.773l.059-.335a6.419,6.419,0,0,1,.819-2.1l1.073-1.671-1.521.171a4.352,4.352,0,0,0-.024-.54l-.136-1.3-1.192.538q-.176.08-.345.173l-.235-.5-.546.283a4.352,4.352,0,0,0-.221-.463l-.629-1.153-.893.963c-.091.1-.168.19-.236.278l-.542-.539-.545.541q-.11-.144-.234-.277l-.895-.972-.631,1.159a4.428,4.428,0,0,0-.22.462l-.544-.283-.237.5q-.17-.092-.346-.174l-1.2-.538-.132,1.3a4.178,4.178,0,0,0-.024.537l-1.523-.171,1.077,1.672a6.356,6.356,0,0,1,.818,2.1l.057.335a2.243,2.243,0,0,0-.363.776,4.629,4.629,0,0,1-1.625-1.252l-.918.438a4.651,4.651,0,0,0-2.826-1.014,2.562,2.562,0,0,0-1.97.722,2.47,2.47,0,0,0-2.8.647s-.492.534-.8.857a4.146,4.146,0,0,1-.769.592,3.349,3.349,0,0,0-1.322.009,2.254,2.254,0,0,0-.534-.423l-.843-.491-.464.86a2.407,2.407,0,0,0-.2.468,2.151,2.151,0,0,0-.365.092l-.78.269.163.81a2.13,2.13,0,0,0,.174.528,1.982,1.982,0,0,0-.119.276l-.132.393.2.364a1.868,1.868,0,0,0,.878.829,18.332,18.332,0,0,0-2.778.562c-.388.1-.724.19-.931.221l-1.235.178.281.635.224.505a3.137,3.137,0,0,0,.488.768,8.6,8.6,0,0,1-.522.73l-.623.635.6.66a2.592,2.592,0,0,0,1.831.785,2.642,2.642,0,0,0,.883-.155,4.417,4.417,0,0,0,.947,1.136,6.349,6.349,0,0,1-2.169,1.711l-.782.373.335.893a2.189,2.189,0,0,0,1.468,1.357,9.368,9.368,0,0,0-.336,1.471c-.176,1.057-.251,1.495-1.182,1.822l-.836.293.239.852a3.123,3.123,0,0,0,.8,1.456l-.555.612a6.173,6.173,0,0,0,2.611,1.108,2.114,2.114,0,0,0,1.616-.558,12.321,12.321,0,0,0,.8,1.972c.584,1.228.9,1.956.5,2.619l-.882,1.5,1.736-.073A10.711,10.711,0,0,0,66.135,117a.8.8,0,0,1-.005.1l-.142,1.286,1.521-.321a2.368,2.368,0,0,0,.448-.185,6.046,6.046,0,0,0,4.7,1.961h.126l-2.48,1.018,1.8.94a21.911,21.911,0,0,0,4.017,1.577l-.21.722.907.265a17.3,17.3,0,0,0,9.43,0l.9-.265-.21-.721a21.973,21.973,0,0,0,4.019-1.578l1.806-.94-2.481-1.018h.125a6.044,6.044,0,0,0,4.7-1.961,2.5,2.5,0,0,0,.446.185l1.521.321-.139-1.285a.957.957,0,0,1,0-.1,10.754,10.754,0,0,0,2.07.227l1.734.073-.879-1.5c-.392-.664-.08-1.391.5-2.619a12.26,12.26,0,0,0,.8-1.973,2.671,2.671,0,0,0,1.052.487,2.4,2.4,0,0,0,.544.09,2.578,2.578,0,0,0,1.678-.527l.957-.6-.56-.612a3.136,3.136,0,0,0,.8-1.452l.241-.855-.838-.293c-.932-.327-1-.765-1.182-1.821a9.291,9.291,0,0,0-.336-1.472,2.192,2.192,0,0,0,1.467-1.357l.334-.894-.78-.371a6.348,6.348,0,0,1-2.17-1.711,4.466,4.466,0,0,0,.95-1.136,2.649,2.649,0,0,0,.882.155,2.59,2.59,0,0,0,1.831-.784l.6-.66L106,96.761" fill="#fffffe"/>
    <path id="Path_917" data-name="Path 917" d="M92.427,130.159c-.78-.775-1.335-.86-3.435-.86-2.508,0-4.213-1.471-4.213-3.823V120.77h15.295v4.707c0,2.352-1.7,3.823-4.215,3.823-2.1,0-2.656.085-3.431.86m-7.648-9.812v-7.18a5.643,5.643,0,0,0-.425-1.952h5.571a3.253,3.253,0,0,0,5,0H100.5a5.536,5.536,0,0,0-.427,1.952v7.18H84.779" transform="translate(-10.893 -11.986)" fill="#ffe52b"/>
    <path id="Path_918" data-name="Path 918" d="M76.509,123.845v1.435l-1.244.5a20.467,20.467,0,0,0,3.893,1.305l.707-2.3a21.207,21.207,0,0,1-3.356-.941m6.763,1.942a16.728,16.728,0,0,1-3.2-.267l-.746,2.412a15.914,15.914,0,0,0,7.9,0l-.749-2.412a16.721,16.721,0,0,1-3.2.267m6.76-1.942a21.185,21.185,0,0,1-3.355.941l.708,2.3a20.328,20.328,0,0,0,3.89-1.305l-1.243-.5v-1.435M71.573,100.909c-1.707,1.825-.968,2.916-.623,3.253-.636-.137-1.584-.946-1.368-1.73-.2.243-.408.505-.622.777q-.6.8-1.139,1.656a3.189,3.189,0,0,0,2.045,3.832,3.029,3.029,0,0,1-2.594-2.876,8.994,8.994,0,0,0-1.229,4.338,11.641,11.641,0,0,0,.116,1.3c.412.782,1.074,1.069,2.253,1.212-1.072.068-1.638.018-2.106-.47.731,3.137,4.142,5.853,5.532,8.18-1.39-1.808-4.27-4.5-5.279-6.448a5.813,5.813,0,0,0,.986,3.616,5.524,5.524,0,0,1-1.307-4.315,7.814,7.814,0,0,1-.562-2.744,11.375,11.375,0,0,1,.185-2.506c-.815,1.158-1.991,1.605-2.571,3.368.113-2.275,1.811-2.31,3.081-5.069a19.412,19.412,0,0,1,2-3.432,5.577,5.577,0,0,0-2.922,1.839c.826-1.954,5.6-4.15,7.788-6.277-.655.139-3.338.207-4.451-.537,2.017.547,6.506-.078,8.2-1.237-1.171,1.683-3.717,1.778-6.818,5.126a7.982,7.982,0,0,1,1.4-.855m2.33-.194c1.95-1.052,6.714-3.368,3.484-5.867-.441-.339-.924-.644-1.332-1.024-.5.389.19,1.353.362,1.707,0,0-1.075.109-1.333.109-1.661-.007-3.4-.991-2.521-2.877-.661.137-.743.771-.944,1.317-.424-.287-1.16-.9-1.728-.816A5.591,5.591,0,0,0,73.8,96.371c-1.524.829-4.347,1.446-5.833-.339-1.043,2.017.41,2.861,1.833,3.917-5.421,2.473-4.621,5.249-8.178,7.433a9.2,9.2,0,0,0,2.7-.244,11.81,11.81,0,0,0-1.358,1.911,9.069,9.069,0,0,0-.527,2.084,3.011,3.011,0,0,1-1.541,2.334c.418.757,1.348.166,1.737.065a4.886,4.886,0,0,1-.533,1.432c1.827-.118.981-3.969,2.809-3.042a1.01,1.01,0,0,1,.432,1.362c-1.2,2.476,1.528,4.659,1.379,6.828a1.677,1.677,0,0,0,1.8-.929,12.245,12.245,0,0,1,.779,1.7l.547-.93a4.07,4.07,0,0,0,3.712,3.089c-.925-1.464.183-3.464-2.064-5.589a8.861,8.861,0,0,0,1.159-.959c-2.759.324-5.638-1.858-4.332-2.894.855-.677,1.228.728,2.548.492l-.516-.446c.182-.179.388-.413.6-.588a3.662,3.662,0,0,1-1.172-.427l.334-.552c-3.232,0-3.315-2.476-2-2.575.618-.045,1.414,1.091,3.4.855a3.582,3.582,0,0,1-.477-1.112,4.366,4.366,0,0,0,1.5-.261,3.533,3.533,0,0,1-2.026-1.064l.94-.344c-1.363-.679-1.28-1.864-1.322-3.1.712.41,1.551,1.046,2.445.75.213-.071.349-.169.354-.391-1.278-.5-2.1-2.469.963-4.122m26.776,7.268a11.124,11.124,0,0,1,.185,2.506,7.883,7.883,0,0,1-.562,2.744A5.525,5.525,0,0,1,99,117.547a5.839,5.839,0,0,0,.986-3.616c-1.013,1.948-3.89,4.64-5.282,6.448,1.392-2.327,4.8-5.044,5.536-8.18-.471.488-1.033.538-2.106.471,1.177-.143,1.838-.43,2.25-1.213a11.211,11.211,0,0,0,.118-1.3,8.975,8.975,0,0,0-1.23-4.338,3.025,3.025,0,0,1-2.594,2.877,3.193,3.193,0,0,0,2.045-3.833q-.532-.853-1.138-1.656-.3-.394-.623-.777c.216.784-.732,1.594-1.368,1.73.346-.337,1.082-1.428-.622-3.253a7.889,7.889,0,0,1,1.4.855c-3.1-3.348-5.644-3.442-6.82-5.126,1.7,1.159,6.187,1.785,8.2,1.237-1.112.743-3.8.676-4.452.537,2.186,2.127,6.966,4.323,7.79,6.276a5.581,5.581,0,0,0-2.92-1.838,19.292,19.292,0,0,1,2,3.431c1.273,2.76,2.972,2.795,3.084,5.071-.58-1.765-1.756-2.211-2.572-3.369m3.421,3.149a9.02,9.02,0,0,0-.525-2.083,11.4,11.4,0,0,0-1.361-1.912,9.232,9.232,0,0,0,2.705.244c-3.556-2.184-2.757-4.96-8.179-7.433,1.424-1.057,2.876-1.9,1.835-3.918-1.486,1.786-4.31,1.169-5.833.34a5.582,5.582,0,0,0,3.909-3.108c-.57-.087-1.306.529-1.73.815-.2-.544-.28-1.18-.941-1.318.883,1.888-.861,2.872-2.527,2.879-.254,0-1.328-.109-1.328-.109.173-.354.865-1.318.359-1.707-.407.38-.888.685-1.33,1.024-3.231,2.5,1.538,4.816,3.486,5.867,3.054,1.653,2.241,3.618.963,4.122,0,.222.142.32.355.391.89.3,1.731-.34,2.442-.75-.041,1.233.045,2.42-1.319,3.1l.938.344a3.532,3.532,0,0,1-2.024,1.064,4.379,4.379,0,0,0,1.5.262,3.747,3.747,0,0,1-.479,1.111c1.992.236,2.791-.9,3.405-.855,1.308.1,1.232,2.571-2,2.575l.335.554a3.659,3.659,0,0,1-1.174.426c.213.175.424.408.6.588l-.516.446c1.316.236,1.693-1.169,2.547-.492,1.307,1.036-1.571,3.218-4.332,2.894a8.954,8.954,0,0,0,1.161.96c-2.249,2.124-1.144,4.124-2.064,5.59a4.083,4.083,0,0,0,3.712-3.091l.546.93a12.539,12.539,0,0,1,.778-1.7,1.679,1.679,0,0,0,1.808.929c-.152-2.17,2.574-4.352,1.377-6.828a1.009,1.009,0,0,1,.43-1.362c1.83-.927.981,2.924,2.809,3.042a4.747,4.747,0,0,1-.53-1.432c.387.1,1.314.694,1.733-.065a3.024,3.024,0,0,1-1.542-2.334" transform="translate(-1.738 -4.783)" fill="#fffffe"/>
    <path id="Path_919" data-name="Path 919" d="M96.434,111.215a3.082,3.082,0,0,1-2.5,1.172,3.667,3.667,0,0,1-.71-.071,1.49,1.49,0,0,0,.521.846,1.512,1.512,0,0,0,1.139,1.832,1.186,1.186,0,0,0,.807.9l-.627.726a.932.932,0,0,1-.813.335l-2.805-.319c.121-.312-.2-.672-1.091-.517l1.1-3.084-.671-1.431L89.512,112.7l-.094,3.235-.548-.267c-.707-.307-.915.98-.242.986l.271,0a.306.306,0,0,0,.129.326.217.217,0,0,0-.006.375.267.267,0,0,0-.054.427.586.586,0,0,0,.326.883c.4.105.658-.328.741-.58l4.365,1.352a1.489,1.489,0,0,0,1.571-.373l1.139-1A1.182,1.182,0,0,0,97.7,119.5a5.045,5.045,0,0,0-.048.845l1.527,0h2.405v-7.179a5.54,5.54,0,0,1,.427-1.953H96.434M89.9,123.3l.085.107c.119.146.188.112.324.034l.2-.1c.124-.093.936.216.983-.459.09.5-.51,1.565-.149,2.158l.487.8-1.592.023a.335.335,0,0,0-.313.2l-.416.864a.566.566,0,0,0,.037.622l.282.317a1.09,1.09,0,0,0,.3-.452L90,127.274a.241.241,0,0,1-.046-.316l.257-.532a.309.309,0,0,1,.426-.2l1.287.278c.1.023.247.069.338-.088a.626.626,0,0,1,.719-.255c.707.106,2.337.275,2.92-.4.683.907,2.018.907,1.93,1.381l-.282,1.559h.425l.258-1.593c.029-.185.143-.441-.057-.583-.082-.064-.119-.1-.305-.415-.243-.425-.23-1.061-.465-1.608a.693.693,0,0,1,.672-.3c.47.115.6.927,1.266,1.589a3.532,3.532,0,0,0-.266-.9,1.861,1.861,0,0,1,.583.78.8.8,0,0,0,.391.579c.158.057.345-.019.533-.244,0,0-.441-.626-.763-1.036a2.207,2.207,0,0,0-1.839-1.062,1.767,1.767,0,0,0-.732.275,2.3,2.3,0,0,0-1.909.03l-1.713-.1a.975.975,0,0,1-.6-.412,2.01,2.01,0,0,0-1.61-2.028s.038-.262-.068-.352l-.358.449-.993-.362.779.638-.845.982a.227.227,0,0,0-.03.276" transform="translate(-12.401 -11.986)" fill="#fffffe"/>
    <path id="Path_920" data-name="Path 920" d="M89,118.946c-.239.185-.229.444-.084.733l.144.268.374-.285-.085-.184a.266.266,0,0,1,.048-.344l.536-.4a.375.375,0,0,1,.358-.1l1.133.238a1.745,1.745,0,0,1-.229-.5l-1.066-.141a.478.478,0,0,0-.374.145l-.754.576m7.243,3.362h.427l.686-1.694a1.217,1.217,0,0,1,.083-.133,4.988,4.988,0,0,1-.746-.356c.173.231.307.33.236.543l-.686,1.639M94.908,98.615,96.514,98s0,.2-.463.511a7.8,7.8,0,0,1-1.143.59Zm0-1.174,1.824-.651a4.578,4.578,0,0,1-.681.549,7.95,7.95,0,0,1-1.143.587Zm0-1.1L96.9,95.6s-.39.316-.852.633a7.769,7.769,0,0,1-1.143.589Zm1.7,3.075.793-4.559-3,1.021v4.7Z" transform="translate(-12.635 -5.6)" fill="#fffffe"/>
    <path id="Path_921" data-name="Path 921" d="M91.47,106.781l.067.1h.618l.007.108a1.39,1.39,0,0,0,.065.318,1.831,1.831,0,0,0,.593.852,2.42,2.42,0,0,0,1.552.494,2.023,2.023,0,0,0,2.214-1.664l0-.108h.621l.066-.1c.584-.914,1.3-1.929,2.127-2.073L97.144,103.4l-2.77,1.507L91.6,103.4l-2.256,1.311c.826.144,1.538,1.159,2.125,2.073" transform="translate(-12.841 -8.935)" fill="#fffffe"/>
    <path id="Path_922" data-name="Path 922" d="M82.2,93.568v.485a7.8,7.8,0,0,1-1.141-.587,4.469,4.469,0,0,1-.683-.549Zm0-1.1v.487a7.755,7.755,0,0,1-1.141-.589c-.466-.318-.857-.633-.857-.633Zm0,2.762a7.888,7.888,0,0,1-1.141-.589c-.466-.315-.466-.512-.466-.512l1.607.616ZM82.71,96.7V92l-3-1.021.79,4.559L82.71,96.7Zm.235-7.734c-1.717,0-3,.563-3.282,1.222l3.282,1.3,3.28-1.3c-.279-.659-1.564-1.222-3.28-1.222m0-1.881a7.045,7.045,0,0,1,3.383.88,5.862,5.862,0,0,1,.489-1.16l-.778.119-.627-1.342-1.174.624-1.293-1.278L81.651,86.21l-1.173-.624-.633,1.342-.776-.119a5.976,5.976,0,0,1,.492,1.16,7.043,7.043,0,0,1,3.385-.88m21.419,10.333a2.337,2.337,0,0,0,1.181-.507,10.263,10.263,0,0,0-4.379-.613c-.53.07-.824.285-.635.407a9.5,9.5,0,0,1,2.7,3.443,2.354,2.354,0,0,0,.252-2.271c1.357.818,1.711,1.215,2.341,1.06a7.1,7.1,0,0,0-1.46-1.519m-41.71,2.731a9.486,9.486,0,0,1,2.7-3.443c.192-.123-.105-.338-.632-.407a10.285,10.285,0,0,0-4.385.613,2.351,2.351,0,0,0,1.183.507,7.069,7.069,0,0,0-1.461,1.519c.633.155.986-.242,2.341-1.06a2.366,2.366,0,0,0,.251,2.272" transform="translate(-1.412 -1.727)" fill="#fffffe"/>
    <path id="Path_923" data-name="Path 923" d="M69.335,119.521l-.547.93a12.246,12.246,0,0,0-.779-1.7,1.676,1.676,0,0,1-1.8.929c.149-2.17-2.579-4.352-1.379-6.828a1.009,1.009,0,0,0-.432-1.362c-1.828-.927-.983,2.924-2.809,3.042a4.886,4.886,0,0,0,.533-1.432c-.389.1-1.319.694-1.737-.065a3.014,3.014,0,0,0,1.542-2.334,9.012,9.012,0,0,1,.526-2.083,11.749,11.749,0,0,1,1.358-1.912,9.2,9.2,0,0,1-2.7.244c3.557-2.184,2.756-4.96,8.178-7.433-1.422-1.057-2.875-1.9-1.833-3.917,1.486,1.785,4.309,1.168,5.833.339a5.586,5.586,0,0,1-3.909-3.108c.567-.087,1.3.529,1.726.816.2-.546.285-1.18.946-1.317-.882,1.886.86,2.87,2.521,2.877.258,0,1.333-.109,1.333-.109-.173-.354-.866-1.318-.362-1.707.408.38.891.685,1.332,1.024,3.229,2.5-1.536,4.816-3.486,5.867-3.057,1.653-2.239,3.62-.961,4.122,0,.222-.141.32-.354.391-.894.3-1.733-.34-2.445-.75.042,1.235-.042,2.42,1.322,3.1l-.94.342a3.525,3.525,0,0,0,2.026,1.066,4.377,4.377,0,0,1-1.5.262,3.6,3.6,0,0,0,.477,1.111c-1.99.236-2.787-.9-3.4-.855-1.313.1-1.23,2.571,2,2.575l-.335.554a3.666,3.666,0,0,0,1.174.426c-.215.174-.421.409-.6.588l.516.446c-1.32.236-1.693-1.169-2.548-.492-1.307,1.036,1.572,3.218,4.332,2.894a8.97,8.97,0,0,1-1.159.96c2.247,2.124,1.139,4.124,2.064,5.59a4.075,4.075,0,0,1-3.711-3.091m2.528-2.39c.625-.5,1.142-.743,1.116-1.941-.938.479-3.6.454-4.705-1.075-.314-.435.022-.654.324-.312.76.862,2.169.472,2.682.223a2.014,2.014,0,0,0-.5-.848c.192-.189.736-.471.847-.955a6.782,6.782,0,0,0-1.418-.271.976.976,0,0,0,.272-1.063,3.242,3.242,0,0,1-2.9-.553c-.318-.419.007-.812.274-.535.573.6,3.4,1.294,4.455.245a1.562,1.562,0,0,1-.9-.674,1.847,1.847,0,0,0,1.815-1.389,4.341,4.341,0,0,1-1.9-.3,1.2,1.2,0,0,0,.91-.865c-1.781-.108-1.922-1.431-1.932-1.65,1.16.669,3.2.371,2.675-1.276-.965-.052-1.938-1.613.716-3.047,2.414-1.307,5.157-2.715,4.914-5.033-.158-1.484-2.6-2.5-2.91-3.246-1.019.485-1.224,1.049-.764,1.992,0,0-2.272.226-2.451-1.172a2.141,2.141,0,0,1,.791-1.661c-.255,0-1.966-.458-2.482.936a1.7,1.7,0,0,0-2.425.06c1.03.612,1.669,2.711,3.373,3.331a3.245,3.245,0,0,1-4.317-1.637c-1.083,1.631-1.706,3.247.616,4.971-4.226,1.924-4.2,5.6-7.871,7.35.373,1,1.159,1,2.161.844-1.589,2.065-.235,4.226-2.751,5.11.237.842.709,1.515,1.636,1.269-.263.411-.437.4-.848.855,1.375.866,3.006.239,3.376-2.54.065-.5.749-.186.513.3-1.568,3.241,2.4,5.68.994,8.058a4.954,4.954,0,0,0,2.694-.565,2.651,2.651,0,0,1,.35,1.48,1.08,1.08,0,0,0,.979-1.007c.449,1.307,2.049,2.7,4.609,2.7-1.358-1.935-.093-3.9-2.012-6.112" transform="translate(-1.221 -4.351)" fill="#1a1919"/>
    <path id="Path_924" data-name="Path 924" d="M67.838,114.681c.468.488,1.033.538,2.106.471-1.178-.143-1.841-.43-2.253-1.213a11.793,11.793,0,0,1-.116-1.3A8.994,8.994,0,0,1,68.8,108.3a3.031,3.031,0,0,0,2.594,2.877,3.19,3.19,0,0,1-2.045-3.833q.534-.852,1.139-1.656c.213-.271.42-.533.622-.777-.216.783.732,1.594,1.366,1.73-.343-.336-1.082-1.427.624-3.252a8.017,8.017,0,0,0-1.4.855c3.1-3.348,5.647-3.442,6.818-5.126-1.695,1.159-6.183,1.785-8.2,1.237,1.113.743,3.8.676,4.451.537-2.187,2.127-6.962,4.323-7.789,6.277a5.563,5.563,0,0,1,2.922-1.838,19.409,19.409,0,0,0-2,3.432c-1.27,2.759-2.969,2.795-3.081,5.071.58-1.764,1.755-2.211,2.571-3.369a11.413,11.413,0,0,0-.185,2.506,7.828,7.828,0,0,0,.562,2.744,5.524,5.524,0,0,0,1.307,4.315,5.813,5.813,0,0,1-.986-3.616c1.009,1.948,3.888,4.64,5.28,6.448-1.391-2.327-4.8-5.043-5.533-8.18M99.7,105.332a5.575,5.575,0,0,1,2.919,1.838c-.824-1.954-5.6-4.15-7.79-6.277.657.138,3.34.207,4.452-.537-2.015.547-6.5-.078-8.2-1.237,1.172,1.684,3.718,1.778,6.819,5.126a7.89,7.89,0,0,0-1.4-.855c1.7,1.825.968,2.916.622,3.253.636-.137,1.584-.947,1.368-1.73.2.243.412.505.623.777.427.565.8,1.119,1.138,1.656a3.193,3.193,0,0,1-2.044,3.833A3.024,3.024,0,0,0,100.8,108.3a8.97,8.97,0,0,1,1.23,4.338,11.5,11.5,0,0,1-.116,1.3c-.414.782-1.076,1.069-2.252,1.213,1.074.067,1.636.017,2.107-.471-.732,3.137-4.143,5.853-5.536,8.18,1.393-1.808,4.268-4.5,5.282-6.448a5.825,5.825,0,0,1-.986,3.616,5.522,5.522,0,0,0,1.306-4.316,7.87,7.87,0,0,0,.562-2.742,11.125,11.125,0,0,0-.185-2.506c.816,1.158,1.991,1.605,2.572,3.369-.112-2.276-1.811-2.311-3.084-5.071a19.3,19.3,0,0,0-1.995-3.432" transform="translate(-3.27 -7.265)" fill="#1a1919"/>
    <path id="Path_925" data-name="Path 925" d="M114.631,113.1a4.747,4.747,0,0,0,.53,1.432c-1.828-.118-.98-3.969-2.809-3.042a1.009,1.009,0,0,0-.43,1.362c1.2,2.476-1.53,4.659-1.377,6.828a1.678,1.678,0,0,1-1.808-.929,12.515,12.515,0,0,0-.779,1.7l-.547-.929a4.082,4.082,0,0,1-3.711,3.091c.92-1.466-.186-3.466,2.066-5.59a8.844,8.844,0,0,1-1.162-.96c2.761.324,5.639-1.858,4.332-2.894-.855-.677-1.231.728-2.547.492l.516-.446c-.18-.179-.39-.413-.6-.588a3.659,3.659,0,0,0,1.174-.426l-.335-.554c3.233,0,3.311-2.476,2-2.575-.614-.045-1.413,1.091-3.405.855a3.74,3.74,0,0,0,.479-1.111,4.391,4.391,0,0,1-1.5-.262,3.531,3.531,0,0,0,2.025-1.064l-.936-.344c1.362-.679,1.277-1.864,1.318-3.1-.711.41-1.553,1.046-2.442.75-.213-.071-.351-.169-.355-.391,1.278-.5,2.092-2.469-.962-4.122-1.948-1.051-6.717-3.368-3.486-5.867.442-.339.922-.644,1.328-1.024.507.389-.185,1.353-.358,1.707,0,0,1.074.109,1.328.109,1.666-.007,3.41-.991,2.527-2.879.661.138.74.773.941,1.318.424-.286,1.16-.9,1.73-.815a5.587,5.587,0,0,1-3.909,3.108c1.522.829,4.348,1.446,5.833-.339,1.041,2.017-.41,2.861-1.835,3.917,5.422,2.472,4.622,5.249,8.179,7.433a9.232,9.232,0,0,1-2.705-.244,11.4,11.4,0,0,1,1.361,1.912,9.018,9.018,0,0,1,.525,2.083,3.024,3.024,0,0,0,1.542,2.334c-.419.759-1.347.166-1.733.065m-.211-5.519c1,.157,1.788.157,2.161-.843-3.677-1.752-3.645-5.427-7.871-7.35,2.323-1.724,1.7-3.34.618-4.971a3.245,3.245,0,0,1-4.316,1.637c1.7-.619,2.342-2.719,3.373-3.331a1.7,1.7,0,0,0-2.428-.061c-.519-1.393-2.227-.935-2.483-.935a2.136,2.136,0,0,1,.792,1.661c-.177,1.4-2.449,1.172-2.449,1.172.458-.943.255-1.507-.765-1.992-.312.751-2.75,1.762-2.909,3.245-.244,2.318,2.5,3.726,4.913,5.033,2.653,1.434,1.68,3,.719,3.047-.533,1.648,1.51,1.945,2.672,1.276-.005.219-.153,1.542-1.934,1.65a1.2,1.2,0,0,0,.911.864,4.343,4.343,0,0,1-1.9.3,1.847,1.847,0,0,0,1.816,1.389,1.57,1.57,0,0,1-.9.674c1.052,1.049,3.881.357,4.457-.245.263-.277.585.115.271.533a3.24,3.24,0,0,1-2.9.554.978.978,0,0,0,.272,1.063,6.724,6.724,0,0,0-1.419.271c.11.485.657.766.849.955a2.028,2.028,0,0,0-.5.848c.517.249,1.925.638,2.681-.223.306-.342.64-.124.327.311-1.111,1.529-3.77,1.554-4.708,1.075-.026,1.2.492,1.444,1.116,1.941-1.922,2.212-.652,4.177-2.01,6.112,2.558,0,4.158-1.4,4.607-2.7a1.085,1.085,0,0,0,.978,1.007,2.7,2.7,0,0,1,.348-1.48,4.975,4.975,0,0,0,2.7.565c-1.4-2.378,2.564-4.817.991-8.058-.232-.487.451-.8.516-.3.368,2.779,2,3.406,3.377,2.54-.414-.452-.585-.444-.85-.855.927.246,1.4-.427,1.636-1.269-2.515-.883-1.16-3.045-2.752-5.11M88.829,117.7l.754-.574a.477.477,0,0,1,.376-.148l1.064.141a1.745,1.745,0,0,0,.229.5l-1.133-.238a.389.389,0,0,0-.358.1l-.536.406a.265.265,0,0,0-.049.344l.087.187-.374.284-.144-.269c-.145-.289-.155-.55.084-.733m1.73-2-.2.1c-.136.079-.2.113-.324-.034l-.085-.108a.225.225,0,0,1,.03-.274l.843-.982-.777-.638.99.365.362-.452c.106.091.069.352.069.352a2.012,2.012,0,0,1,1.61,2.029.968.968,0,0,0,.6.41l1.716.1a2.3,2.3,0,0,1,1.91-.03,1.868,1.868,0,0,1,.732-.279,2.221,2.221,0,0,1,1.839,1.067q.393.509.765,1.035c-.19.226-.377.3-.535.244a.8.8,0,0,1-.391-.579,1.872,1.872,0,0,0-.583-.78,3.587,3.587,0,0,1,.266.9c-.671-.663-.8-1.474-1.266-1.586a.689.689,0,0,0-.674.3c.237.549.224,1.185.466,1.61.185.318.223.347.305.415.2.143.086.4.056.583l-.254,1.594H97.6l.282-1.56c.087-.475-1.247-.475-1.93-1.381-.582.68-2.213.51-2.92.4a.624.624,0,0,0-.719.256c-.091.157-.245.11-.338.088l-1.287-.278a.309.309,0,0,0-.425.2l-.257.533a.243.243,0,0,0,.049.317l.121.13a1.07,1.07,0,0,1-.305.45l-.28-.316a.557.557,0,0,1-.037-.616l.416-.87a.337.337,0,0,1,.313-.2l1.592-.024-.487-.794c-.363-.6.239-1.657.149-2.159-.046.673-.858.366-.985.457m6.627,3.67L96.5,121.06h-.426l.686-1.641c.071-.212-.063-.311-.236-.543a4.9,4.9,0,0,0,.746.356,1.217,1.217,0,0,0-.083.133m-8.379-.192.773-.655-.118-.235c-.084-.168-.039-.178.05-.245l.408-.3a.322.322,0,0,1,.308-.041l1.227.288H90.162a.5.5,0,0,0-.493.356l-.089.181-.332.683a.771.771,0,0,0,.125.9l.235.28-.476.963h.4l.329-.668a2.2,2.2,0,0,0,.616-.929c-.14-.115-.241-.194-.163-.355l.149-.319c.049-.106.066-.149.209-.121l1.286.278a.444.444,0,0,0,.568-.144c.176-.269.2-.24.608-.2l.657.07a3.456,3.456,0,0,0,2.143-.416,8.464,8.464,0,0,0,.478.708c.041.08-.028.194-.084.335l-.737,1.76h1.136l.643-1.606a.962.962,0,0,1,.213-.338l-.369,1.944h1.1l.293-1.924c.065-.427.026-.566-.179-.741-.46-.388-.449-1.2-.6-1.7a.434.434,0,0,1,.277-.055c.241.021.421.635.7,1.03.564.793,1.335,1.669,2.217.435a2.782,2.782,0,0,0-.284-.391l-.246-.289c-.143-.159-.826-.941-1.111-1.222a1.656,1.656,0,0,0-2.036-.237,3.048,3.048,0,0,0-2.067.005l-1.544-.093a.305.305,0,0,1-.252-.149l.287-.094a2.624,2.624,0,0,0-2.123-2.214s-.069-.353-.249-.421l-.352.415a1.166,1.166,0,0,0-.3.083l-1.506-.56,1.131,1.142s-.587.83-.754,1a.3.3,0,0,0,.024.425l.219.288c.114.149.237.143.418.051l.248-.129c.108-.091.47.088.626-.055a4.416,4.416,0,0,0-.172.886l-1.016-.121a.512.512,0,0,0-.457.1l-.866.667a.754.754,0,0,0-.2.955l.351.73m3.3-21.912a7.887,7.887,0,0,0,1.141.589v-.485l-1.607-.616s0,.2.466.512m1.141-.585v-.485l-1.824-.651a4.424,4.424,0,0,0,.683.549,7.935,7.935,0,0,0,1.141.587m0-1.1v-.487l-2-.735s.39.316.857.633a7.754,7.754,0,0,0,1.141.589" transform="translate(-12.459 -4.351)" fill="#1a1919"/>
    <path id="Path_926" data-name="Path 926" d="M98.036,103.925h2.042a.944.944,0,0,0-1-.6,1.149,1.149,0,0,0-1.044.6M95.9,96.082l-1.995.735V97.3a7.769,7.769,0,0,0,1.143-.589q.438-.3.852-.633m-.388,2.4-1.606.616v.485a7.9,7.9,0,0,0,1.143-.589c.464-.315.464-.512.464-.512m.217-1.209L93.9,97.92V98.4a7.783,7.783,0,0,0,1.143-.587,4.493,4.493,0,0,0,.681-.549m-8.486,6.06a.945.945,0,0,0-1,.6h2.045a1.155,1.155,0,0,0-1.047-.6" transform="translate(-11.631 -6.079)" fill="#1a1919"/>
    <path id="Path_927" data-name="Path 927" d="M91.611,93.61l-3.282-1.3c.279-.659,1.566-1.222,3.282-1.222s3,.563,3.28,1.222Zm2.442,4.051-2.211,1.164v-4.7L94.847,93.1Zm2.587,1.96c-.83.144-1.542,1.159-2.127,2.073l-.065.1h-.623l0,.108a2.023,2.023,0,0,1-2.214,1.664,2.427,2.427,0,0,1-1.552-.494,1.826,1.826,0,0,1-.593-.852,1.448,1.448,0,0,1-.066-.318l-.005-.108h-.618l-.067-.1c-.587-.914-1.3-1.929-2.125-2.073l2.256-1.311,2.773,1.507,2.77-1.507Zm3.044,3.456a5.527,5.527,0,0,0-.427,1.953v7.179h-.835a4.859,4.859,0,0,1-.7-1.591,1.988,1.988,0,0,0,.252,1.591H96.9a6.274,6.274,0,0,1-.5-1.635c-.321.366-.118,1.359.082,1.635H95.77a3.639,3.639,0,0,1,.1-1.066c-.374-.069-.771-.265-.771-.681a.56.56,0,0,0,.528.168l.3-.239c-1.007.033-1.054-1.073-.255-1.59-.8.026-1.394-.449-1.1-1.3a1.17,1.17,0,0,1-.349-1.677,1.432,1.432,0,0,1-.16-1.418,1.579,1.579,0,0,1-1.107-.435c-.02.009-.043.015-.063.023a2.8,2.8,0,0,0,1.217-.921Zm-.426,14.262a3.545,3.545,0,0,1-1.843,3.266l.413-.839h-.4L96.9,120.84a5.215,5.215,0,0,1-1.857.321c-2.1,0-2.656.085-3.431.86-.78-.774-1.334-.86-3.431-.86a5.23,5.23,0,0,1-1.849-.317h.013l.53-1.079h-.4l-.465.944a3.591,3.591,0,0,1-.322-.171l.382-.773h-.4l-.284.576a3.581,3.581,0,0,1-1.428-3V112.63H99.259v4.708Zm-10.411-8.6.644.08a2.135,2.135,0,0,1-.273,1.286l-.625-.18A4.019,4.019,0,0,0,88.847,108.74Zm-.929-.472a3.411,3.411,0,0,1,.76.035c.123.051.039.258-.12.235A3.38,3.38,0,0,1,87.918,108.268Zm-.039-2.349-.531,1.938.181-3.127.824-.7.419.92-1.06,3.037.28-2.044c.026-.142-.09-.159-.113-.019Zm-.408,3.232c-.277.111-.563-.04-.475-.22.129.117.489.06.489.06Zm-.523.258c.129.124.518.077.518.077l.014.078C87.31,109.79,86.84,109.688,86.948,109.409Zm-.61-1.249a.169.169,0,0,1,.084-.315c.18,0,.422.209.66.311A2.238,2.238,0,0,1,86.337,108.16Zm.591,1.72a1.472,1.472,0,0,0,.4.093.234.234,0,0,1-.274.209.217.217,0,0,1-.13-.3Zm.419-1.172a.292.292,0,0,1-.419-.3,1.016,1.016,0,0,1,1.02.034c.157.1.289.382.5.559a4.553,4.553,0,0,1-.194.821.626.626,0,0,1-.408-1A.4.4,0,0,0,87.348,108.708Zm2.6.172.642.076a2.538,2.538,0,0,1-.3,1.461l-.655-.19A2.1,2.1,0,0,0,89.949,108.88Zm1.105.135.529.066a2.584,2.584,0,0,1-.251,1.635l-.616-.179a2.539,2.539,0,0,0,.338-1.522Zm.949.118h.012a.794.794,0,0,0,.415-.057A2.049,2.049,0,0,1,92.6,111a1.941,1.941,0,0,1-.564-.081l-.143-.043A2.456,2.456,0,0,0,92,109.133Zm.81-.313.377-.368a2.058,2.058,0,0,1,.728,1.79l-.41.376a1.462,1.462,0,0,1-.261.2A2.233,2.233,0,0,0,92.812,108.82Zm2.2.21a1.261,1.261,0,0,0-.191.377l-.457.419a2.2,2.2,0,0,0-.767-1.779l.485-.476.1.1a1.121,1.121,0,0,0,.832,1.362ZM93.8,105.8a1.472,1.472,0,0,0,.067,1.465l-.188.185c-.819-.1-1.142-1.323-1.142-1.323a1.961,1.961,0,0,0-.024.326,1.143,1.143,0,0,1-.755-1.182,1.9,1.9,0,0,0,.6.209l.056-.357a1.244,1.244,0,0,1-1.033-.88c-.027,0-.052-.009-.078-.011.1.009.2.016.306.016a3.4,3.4,0,0,0,.963-.141,1.578,1.578,0,0,0,1.082.628A1.746,1.746,0,0,0,93.8,105.8Zm-4.694-2.724a2.946,2.946,0,0,0,1.795,1.1,1.537,1.537,0,0,0,.519.849,1.512,1.512,0,0,0,1.139,1.832,1.183,1.183,0,0,0,.8.9l-.627.726a.924.924,0,0,1-.813.335l-2.805-.319c.121-.312-.2-.672-1.089-.517l1.1-3.084-.673-1.431-1.275,1.088-.093,3.235-.542-.267c-.713-.307-.92.98-.243.986l.269,0a.3.3,0,0,0,.127.323.22.22,0,0,0,0,.379.265.265,0,0,0-.053.426.585.585,0,0,0,.329.883c.4.105.654-.328.737-.58l4.365,1.352a1.486,1.486,0,0,0,1.571-.373l1.139-1a1.182,1.182,0,0,0,.588,1.433,6.031,6.031,0,0,0-.049.847H83.964V105.03a5.687,5.687,0,0,0-.423-1.953ZM88.373,93.1l3,1.021v4.7l-2.212-1.164L88.373,93.1Zm7.3-.56c0-1.149-1.93-2.178-4.06-2.178s-4.061,1.029-4.061,2.178l.045.282.847,4.881-4.026,2.347a2.4,2.4,0,0,0-1.032,1.642h.735a1.63,1.63,0,0,1,1.7-1.422,2.584,2.584,0,0,1,2.027,1.422l.141.213.2.318H82.266a6.391,6.391,0,0,1,.849,2.806v12.308c0,3.167,2.432,4.675,5.066,4.675,2.034,0,2.308-.093,3.431,1.03,1.119-1.123,1.393-1.03,3.431-1.03,2.631,0,5.066-1.508,5.066-4.675V105.03a6.389,6.389,0,0,1,.847-2.806H95.033l.2-.318.141-.213a2.579,2.579,0,0,1,2.027-1.422,1.631,1.631,0,0,1,1.7,1.422h.733a2.393,2.393,0,0,0-1.032-1.642l-4.025-2.347.849-4.881Z" transform="translate(-10.078 -3.848)" fill="#1a1919"/>
    <path id="Path_928" data-name="Path 928" d="M101.913,105.173l.006-.36c-1.1-.026-1.357-1.328-1.357-1.328a1.324,1.324,0,0,0,1.351,1.688m-1.395,2.206-.11-.34c-.942.241-1.429-1.252-1.429-1.252a1.271,1.271,0,0,0,1.539,1.592m.655-1.383c-1.125.178-1.588-1.131-1.588-1.131a1.272,1.272,0,0,0,1.082,1.512.985.985,0,0,0,1.444,1.076l-.108-.324a.729.729,0,0,1-.83-1.133m-.674-3.735.01-.36c-1.485-.306-1.361-1.328-1.361-1.328a1.326,1.326,0,0,0,1.351,1.689m-9.41,14.963-.532,1.079h.4l.53-1.079h-.4m.8,0-.53,1.079h.4l.526-1.079h-.4m3.216,0-.529,1.079h.4l.53-1.079h-.4m.805,0-.533,1.079h.4l.528-1.079h-.4m-1.608,0-.531,1.079h.4l.531-1.079h-.4M99,118.3h.4l.53-1.079h-.4L99,118.3m-6.3-1.079-.53,1.079h.4l.531-1.079h-.4m.8,0-.53,1.079h.4l.53-1.079h-.4m-1.819-5.8a.164.164,0,1,0,.141.163.153.153,0,0,0-.141-.163m-.163-24.92.633-1.341,1.173.623,1.295-1.278,1.295,1.278,1.172-.623.626,1.341.78-.119A5.9,5.9,0,0,0,98,87.547a6.944,6.944,0,0,0-6.768,0,6.02,6.02,0,0,0-.492-1.16l.776.119Zm3.1.588a6.048,6.048,0,0,1,3.7,1.133,7.372,7.372,0,0,1,.957-2.457l-1.328.149-.694-1.478-1.336.694L94.615,83.85l-1.295,1.285-1.338-.694-.7,1.478L89.96,85.77a7.323,7.323,0,0,1,.955,2.457A6.051,6.051,0,0,1,94.615,87.094Z" transform="translate(-13.081 -1.305)" fill="#1a1919"/>
    <path id="Path_929" data-name="Path 929" d="M96.352,84.176a.355.355,0,0,0,.38-.32,2.193,2.193,0,0,0-.263-.707s-.422.454-.435.647a.354.354,0,0,0,.318.38m2.176.788A.348.348,0,0,0,99,84.817a2.148,2.148,0,0,0,.032-.752s-.56.253-.653.425a.356.356,0,0,0,.148.474m-4.891-.788a.354.354,0,0,0,.321-.38c-.018-.194-.435-.647-.435-.647a2.208,2.208,0,0,0-.263.707.352.352,0,0,0,.377.32m-2.172.788a.351.351,0,0,0,.144-.474c-.09-.172-.652-.425-.652-.425a2.143,2.143,0,0,0,.034.752.347.347,0,0,0,.473.148m24.07,12.221a2.354,2.354,0,0,1-.252,2.271,9.5,9.5,0,0,0-2.7-3.443c-.188-.123.1-.338.635-.407a10.263,10.263,0,0,1,4.379.613,2.313,2.313,0,0,1-1.181.5,7.187,7.187,0,0,1,1.46,1.522c-.63.155-.985-.243-2.342-1.06m2.024-.263a1.88,1.88,0,0,0,1-1.016c-1.18-.169-4.312-1.485-6.888-.414.965-.916,1.831-1.034,1.913-2.351a.931.931,0,0,0,1.457-.237c-.266-.784-.936-.149-1.03-.365-.131-.3.846.092,1.055-.927-.76-.261-.987.36-1.122.216s.482-.4.035-1.22c-.791.463-.38.985-.547,1.043-.2.08-.043-.557-.917-.528-.086.94.821.969.672,1.119-.18.182-.417-.54-1.077-.174a.976.976,0,0,0,1.26,1c-.1,1.442-1.425,1.173-2.411,2.8,2.086,1.069,3.029,2.934,4.313,4.223a7.421,7.421,0,0,0,1.148-1.638,1.684,1.684,0,0,0,2.366,0c-.478-.49-.5-.862-1.227-1.53M94.609,122.5l-.9-.034-.1.362.113.006c.038,0,.038-.071.071-.109a.823.823,0,0,1,.311-.027l.379.029c-.223.464-.806.9-.8,1.208.009.164.175.2.274.192.182-.007.239-.135.287-.332.11-.457.331-.8.491-1.328l-.112,0-.007.03m.618.54.013-.279h.785l-.041-.311c-.215.007-.53.077-.819.079l-.055.607c.364-.016.6.143.6.524,0,.142-.093.407-.257.427a.167.167,0,0,1-.112-.026c-.079-.059.024-.124.024-.222a.173.173,0,0,0-.215-.155.181.181,0,0,0-.183.2c0,.224.332.286.474.286.323,0,.694-.179.694-.544,0-.48-.538-.579-.911-.59m1.882.248c-.28,0-.32-.436-.32-.647,0-.06.054-.144.116-.144.255,0,.325.593.346.76a.4.4,0,0,1-.142.031m-.179-.874a.5.5,0,0,0-.513.5.552.552,0,0,0,.846.43c.045.351-.027.6-.16.612-.113,0-.1-.085-.113-.158a.176.176,0,0,0-.249-.137.167.167,0,0,0-.115.216c.052.177.272.181.377.168a.715.715,0,0,0,.656-.777.767.767,0,0,0-.729-.851m-3.859-.093a3.524,3.524,0,0,1-.652.6l.035.06c.046-.024.119-.059.245-.134l-.245.858c-.014.046-.071.051-.1.046l-.146-.021-.027.1.8.143.024-.1-.138-.03a.074.074,0,0,1-.059-.087l.363-1.424-.1-.015" transform="translate(-13.464 -1.031)" fill="#1a1919"/>
    <path id="Path_930" data-name="Path 930" d="M86.476,128.11l-.707-2.3a21.076,21.076,0,0,0,3.356-.941V126.3l1.243.5a20.284,20.284,0,0,1-3.892,1.305m-4.111,1.346a16.829,16.829,0,0,1-3.95-.5l.746-2.412a19.342,19.342,0,0,0,6.406,0l.749,2.412a16.9,16.9,0,0,1-3.951.5M74.358,126.8l1.244-.5V124.87a21.1,21.1,0,0,0,3.356.941l-.707,2.3a20.452,20.452,0,0,1-3.893-1.305m15.152-.8v-1.76a16.081,16.081,0,0,1-5.318,1.329l-.1.63c.189.026.429.049.749.07a18.356,18.356,0,0,1-4.951,0c.319-.021.557-.044.746-.07l-.1-.63a16.045,16.045,0,0,1-5.316-1.329v1.76l-1.845.757a22.332,22.332,0,0,0,4.757,1.759l-.215.737a16.334,16.334,0,0,0,8.9,0l-.215-.737a22.394,22.394,0,0,0,4.759-1.759l-1.847-.757M59.481,103.022a7.091,7.091,0,0,1,1.464-1.519A2.35,2.35,0,0,1,59.76,101a10.29,10.29,0,0,1,4.385-.613c.527.07.824.285.631.406a9.517,9.517,0,0,0-2.7,3.443,2.363,2.363,0,0,1-.251-2.27c-1.355.818-1.708,1.215-2.343,1.06m1.459.2a7.477,7.477,0,0,0,1.147,1.637c1.286-1.289,2.23-3.153,4.314-4.223-.986-1.624-2.31-1.351-2.408-2.8a.977.977,0,0,0,1.259-1c-.663-.364-.9.36-1.077.174-.149-.152.758-.179.672-1.118-.875-.027-.715.607-.92.527-.164-.06.248-.581-.547-1.043-.446.825.164,1.082.038,1.22s-.364-.477-1.123-.216c.206,1.019,1.188.626,1.054.927-.093.215-.763-.419-1.027.365a.927.927,0,0,0,1.452.238c.085,1.321.949,1.432,1.916,2.35-2.575-1.071-5.709.243-6.892.416a1.88,1.88,0,0,0,1,1.01c-.731.674-.748,1.044-1.226,1.533a1.683,1.683,0,0,0,2.365,0m20.3-.982v.776a.968.968,0,0,1,.783-.258v1.116a1.666,1.666,0,0,1-.213.786h1.117a1.666,1.666,0,0,1-.213-.786V102.76a.966.966,0,0,1,.783.258v-.776H81.236" transform="translate(-0.831 -5.808)" fill="#1a1919"/>
  </g>
</svg>
