<svg xmlns="http://www.w3.org/2000/svg" width="40.948" height="13.252" viewBox="0 0 40.948 13.252">
  <g id="Visa_Inc._logo" opacity="0.42">
    <path id="polygon9" d="M436.824,123.555h-3.317l2.075-12.829H438.9Z" transform="translate(-419.08 -110.494)"/>
    <path id="path11" d="M575.129,105.594a8.175,8.175,0,0,0-2.975-.546c-3.276,0-5.582,1.747-5.6,4.244-.027,1.843,1.652,2.866,2.907,3.48,1.283.628,1.72,1.038,1.72,1.6-.013.859-1.037,1.256-1.992,1.256a6.6,6.6,0,0,1-3.112-.682l-.437-.2-.464,2.88a10.1,10.1,0,0,0,3.7.683c3.481,0,5.746-1.72,5.773-4.381.013-1.46-.873-2.579-2.784-3.494-1.16-.587-1.871-.983-1.871-1.583.014-.546.6-1.105,1.911-1.105a5.635,5.635,0,0,1,2.471.491l.3.136.451-2.77Z" transform="translate(-545.36 -105.048)"/>
    <path id="path13" d="M795.654,119.011c.273-.737,1.324-3.589,1.324-3.589-.014.027.273-.751.436-1.228l.232,1.105s.628,3.071.765,3.712Zm4.094-8.284h-2.566a1.637,1.637,0,0,0-1.734,1.064l-4.927,11.764H794l.7-1.924h4.259c.1.45.4,1.924.4,1.924h3.071l-2.676-12.828Z" transform="translate(-761.477 -110.494)"/>
    <path id="path15" d="M174.025,110.727l-3.249,8.748-.355-1.774a9.819,9.819,0,0,0-4.586-5.377l2.975,11.219h3.508l5.214-12.815Z" transform="translate(-162.369 -110.494)"/>
    <path id="path17" d="M86.557,110.727H81.22l-.055.259c4.163,1.065,6.92,3.631,8.053,6.715l-1.16-5.9a1.373,1.373,0,0,0-1.5-1.078Z" transform="translate(-81.166 -110.494)"/>
  </g>
</svg>
