<svg id="whatsapp-icon-seeklogo.com" xmlns="http://www.w3.org/2000/svg" xmlns:xlink="http://www.w3.org/1999/xlink" width="50" height="50.224" viewBox="0 0 50 50.224">
  <defs>
    <linearGradient id="linear-gradient" x1="0.5" y1="1" x2="0.5" gradientUnits="objectBoundingBox">
      <stop offset="0" stop-color="#20b038"/>
      <stop offset="1" stop-color="#60d66a"/>
    </linearGradient>
  </defs>
  <path id="Path_1027" data-name="Path 1027" d="M42.715,7.3A24.9,24.9,0,0,0,3.532,37.328L0,50.224l13.2-3.461a24.879,24.879,0,0,0,11.9,3.03H25.1A24.9,24.9,0,0,0,42.715,7.3ZM25.1,45.59H25.1a20.667,20.667,0,0,1-10.532-2.884l-.756-.448L5.977,44.311l2.091-7.633L7.576,35.9A20.693,20.693,0,1,1,25.1,45.59Z" fill="#e0e0e0"/>
  <path id="Path_1028" data-name="Path 1028" d="M27.875,69.007,31.246,56.7a23.759,23.759,0,1,1,20.587,11.9h-.011A23.75,23.75,0,0,1,40.469,65.7l-12.594,3.3Z" transform="translate(-26.732 -20.214)" fill="url(#linear-gradient)"/>
  <rect id="Rectangle_323" data-name="Rectangle 323" width="27.961" height="26.198" transform="translate(11.11 11.946)" fill="none" opacity="0.08"/>
  <path id="Path_1029" data-name="Path 1029" d="M313.643,324.1c-.461-1.024-.946-1.044-1.384-1.062-.358-.015-.769-.014-1.178-.014a2.259,2.259,0,0,0-1.64.769,6.893,6.893,0,0,0-2.152,5.128c0,3.026,2.2,5.949,2.511,6.36s4.254,6.817,10.5,9.281c5.194,2.048,6.251,1.641,7.379,1.538s3.638-1.487,4.15-2.923a5.138,5.138,0,0,0,.359-2.923c-.154-.256-.564-.41-1.179-.717s-3.638-1.8-4.2-2-.974-.307-1.384.308-1.588,2-1.947,2.41-.717.462-1.332.155a16.821,16.821,0,0,1-4.945-3.052,18.519,18.519,0,0,1-3.421-4.258c-.359-.615-.038-.948.27-1.255.276-.275.615-.718.922-1.077a4.216,4.216,0,0,0,.614-1.025,1.132,1.132,0,0,0-.051-1.077C315.385,328.361,314.19,325.32,313.643,324.1Z" transform="translate(-294.691 -309.784)" fill="#fff" fill-rule="evenodd"/>
  <path id="Path_1030" data-name="Path 1030" d="M49.225,7.329A24.612,24.612,0,0,0,10.491,37.014L7,49.762l13.046-3.421a24.593,24.593,0,0,0,11.76,2.995h.011A24.611,24.611,0,0,0,49.225,7.329ZM31.817,45.181h-.008A20.429,20.429,0,0,1,21.4,42.33l-.747-.443-7.742,2.03,2.067-7.545-.487-.774a20.455,20.455,0,1,1,17.328,9.583Z" transform="translate(-6.713 -0.109)" fill="#fff"/>
</svg>
